<?xml version="1.0" encoding="utf-8"?><svg xmlns="http://www.w3.org/2000/svg" xmlns:xlink="http://www.w3.org/1999/xlink"><symbol viewBox="0 0 1000 1000" id="celcius" xmlns="http://www.w3.org/2000/svg"><path d="M283.04 426.112q-12.688-28.304 0-58.072t40.992-39.528q28.792-12.2 59.048.244t42.456 40.748q5.856 11.712 5.856 27.328t-5.856 29.28q-11.712 26.84-41.968 39.04-30.256 11.712-59.536 0t-40.992-39.04zm37.088-29.28q0 13.664 9.76 23.424t24.4 9.76 24.4-9.76 9.76-23.424-9.76-23.424-24.4-9.76-24.4 9.76-9.76 23.424zm165.92 169.824V437.824q0-51.24 39.772-81.252t91.012-30.012q68.808 0 105.408 33.184l-33.184 52.704q-27.328-23.424-70.272-23.424-25.864 0-45.14 15.128t-19.276 47.336v99.552q0 32.208 19.276 47.336t45.14 15.128q38.552 0 72.224-23.424l31.232 52.704q-43.432 35.136-103.456 35.136-52.704 0-92.72-30.256t-40.016-81.008z"/></symbol><symbol viewBox="0 0 1000 1000" id="cloud" xmlns="http://www.w3.org/2000/svg"><path d="M0 531.52q0-89.792 64.416-154.208t154.208-64.416q17.568 0 31.232 1.952 43.432-61 109.312-93.696 67.344-33.184 140.544-33.184t140.544 33.184q65.88 32.696 109.312 93.696 13.664-1.952 31.232-1.952 89.792 0 154.208 64.416t64.416 154.208-64.416 154.208T780.8 750.144q-41.48 0-78.08-13.664-87.84 76.128-203.008 76.128T296.704 736.48q-36.6 13.664-78.08 13.664-89.792 0-154.208-64.416T0 531.52zm62.464 0q0 64.416 45.872 110.288t110.288 45.872q48.8 0 89.792-29.28 76.128 91.744 191.296 91.744T691.008 658.4Q732 687.68 780.8 687.68q64.416 0 110.288-45.872T936.96 531.52t-45.872-110.288T780.8 375.36q-31.232 0-58.56 11.712-32.696-61.976-91.744-99.552-58.072-37.088-130.784-37.088T368.928 287.52q-59.048 37.576-91.744 99.552-27.328-11.712-58.56-11.712-64.416 0-110.288 45.872T62.464 531.52z"/></symbol><symbol viewBox="0 0 1000 1000" id="cloud-flash" xmlns="http://www.w3.org/2000/svg"><path d="M0 344.128q0-89.792 64.416-154.208t154.208-64.416q17.568 0 31.232 1.952 43.432-61 109.312-93.696Q426.512.576 499.712.576T640.256 33.76q65.88 32.696 109.312 93.696 13.664-1.952 31.232-1.952 89.792 0 154.208 64.416t64.416 154.208-64.416 154.208T780.8 562.752q-41.48 0-78.08-13.664-75.64 65.88-181.536 74.176l-21.472 64.416 62.464 62.464-187.392 187.392 62.464-187.392-62.464-62.464 68.32-68.32q-83.936-15.616-146.4-70.272-36.6 13.664-78.08 13.664-89.792 0-154.208-64.416T0 344.128zm62.464 0q0 64.416 45.872 110.288t110.288 45.872q48.8 0 89.792-29.28 76.128 91.744 191.296 91.744l42.944-5.856q89.304-15.128 148.352-85.888 40.992 29.28 89.792 29.28 64.416 0 110.288-45.872t45.872-110.288-45.872-110.288T780.8 187.968q-31.232 0-58.56 11.712-32.696-61.976-91.744-99.552Q572.424 63.04 499.712 63.04t-130.784 37.088q-59.048 37.576-91.744 99.552-27.328-11.712-58.56-11.712-64.416 0-110.288 45.872T62.464 344.128z"/></symbol><symbol viewBox="0 0 1000 1000" id="cloud-flash-alt" xmlns="http://www.w3.org/2000/svg"><path d="M0 344.128q0-89.792 64.416-154.208t154.208-64.416q17.568 0 31.232 1.952 43.432-61 109.312-93.696Q426.512.576 499.712.576T640.256 33.76q65.88 32.696 109.312 93.696 13.664-1.952 31.232-1.952 89.792 0 154.208 64.416t64.416 154.208-64.416 154.208T780.8 562.752q-41.48 0-78.08-13.664-46.36 40.504-111.264 60.512l25.376-78.08q45.384-26.352 74.176-60.512 40.992 29.28 89.792 29.28 64.416 0 110.288-45.872t45.872-110.288-45.872-110.288T780.8 187.968q-31.232 0-58.56 11.712-32.696-61.976-91.744-99.552Q572.424 63.04 499.712 63.04t-130.784 37.088q-59.048 37.576-91.744 99.552-27.328-11.712-58.56-11.712-64.416 0-110.288 45.872T62.464 344.128t45.872 110.288 110.288 45.872q48.8 0 89.792-29.28 44.408 54.656 117.12 78.08l-48.8 48.8q-47.824-20.008-80.032-48.8-36.6 13.664-78.08 13.664-89.792 0-154.208-64.416T0 344.128zm374.784 593.408l62.464-187.392-62.464-62.464 187.392-187.392-62.464 187.392 62.464 62.464z"/></symbol><symbol viewBox="0 0 1000 1000" id="cloud-flash-inv" xmlns="http://www.w3.org/2000/svg"><path d="M0 344.128q0-89.792 64.416-154.208t154.208-64.416q17.568 0 31.232 1.952 43.432-61 109.312-93.696Q426.512.576 499.712.576T640.256 33.76q65.88 32.696 109.312 93.696 13.664-1.952 31.232-1.952 89.792 0 154.208 64.416t64.416 154.208-64.416 154.208T780.8 562.752q-41.48 0-78.08-13.664-75.64 65.88-181.536 74.176l-21.472 64.416 62.464 62.464-187.392 187.392 62.464-187.392-62.464-62.464 68.32-68.32q-83.936-15.616-146.4-70.272-36.6 13.664-78.08 13.664-89.792 0-154.208-64.416T0 344.128z"/></symbol><symbol viewBox="0 0 1000 1000" id="cloud-inv" xmlns="http://www.w3.org/2000/svg"><path d="M0 531.52q0-89.792 64.416-154.208t154.208-64.416q17.568 0 31.232 1.952 43.432-61 109.312-93.696 67.344-33.184 140.544-33.184t140.544 33.184q65.88 32.696 109.312 93.696 13.664-1.952 31.232-1.952 89.792 0 154.208 64.416t64.416 154.208-64.416 154.208T780.8 750.144q-41.48 0-78.08-13.664-87.84 76.128-203.008 76.128T296.704 736.48q-36.6 13.664-78.08 13.664-89.792 0-154.208-64.416T0 531.52z"/></symbol><symbol viewBox="0 0 1000 1000" id="cloud-moon" xmlns="http://www.w3.org/2000/svg"><path d="M1.952 718.912q0-89.792 64.416-154.208t154.208-64.416q17.568 0 31.232 1.952 78.08-107.36 210.816-124.928-9.272-31.232-9.272-63.928 0-30.744 8.296-62.952 16.592-66.368 63.44-113.216 39.04-39.04 93.696-58.56 6.832-2.928 12.688-2.928 11.224 0 20.496 9.76 9.76 10.248 9.76 21.96 0 4.88-1.952 10.248-12.2 32.696-12.2 65.392 0 19.52 4.392 39.04 11.712 51.728 49.776 90.768 38.552 39.04 90.768 50.752 20.008 4.392 39.528 4.392 33.184 0 65.88-12.2 5.368-1.952 10.248-1.952 11.712 0 21.96 9.76 9.76 9.272 9.76 20.496 0 5.856-2.928 12.688-19.52 54.656-58.56 93.696-7.808 7.808-27.328 21.472 66.368 20.984 108.336 78.08 41.968 56.608 41.968 128.832 0 89.792-64.416 154.208t-154.208 64.416q-41.48 0-78.08-13.664Q616.832 1000 501.664 1000t-203.008-76.128q-36.6 13.664-78.08 13.664-89.792 0-154.208-64.416T1.952 718.912zm62.464 0q0 64.416 45.872 110.288t110.288 45.872q48.8 0 89.792-29.28 76.128 91.744 191.296 91.744t191.296-91.744q40.992 29.28 89.792 29.28 64.416 0 110.288-45.872t45.872-110.288-45.872-110.288-110.288-45.872q-31.232 0-58.56 11.712-1.952-1.952-4.88-6.832t-2.928-6.832q-25.864-39.528-58.56-68.32-38.064-28.792-83.936-42.944-35.136-11.712-72.224-11.712-13.664 0-13.664 1.952-68.808 2.44-122.976 39.04-54.168 37.088-85.888 95.648-27.328-11.712-58.56-11.712-64.416 0-110.288 45.872T64.416 718.912zm454.816-445.056q-4.392 20.496-4.392 40.504 0 32.696 12.2 62.952 134.2 9.272 218.624 117.12 64.904-15.616 103.456-64.416-7.808.488-15.128.488-101.504 0-176.168-73.688-72.712-72.712-72.712-170.8 0-9.76.488-19.52-7.32 5.368-15.616 13.664-39.04 39.04-50.752 93.696z"/></symbol><symbol viewBox="0 0 1000 1000" id="cloud-moon-inv" xmlns="http://www.w3.org/2000/svg"><path d="M0 718.912q0-89.792 64.416-154.208t154.208-64.416q17.568 0 31.232 1.952 78.08-107.36 210.816-124.928-17.568-61-.976-126.88 16.592-66.368 63.44-113.216 39.04-39.04 93.696-58.56 19.032-7.808 33.184 6.832 13.664 14.64 7.808 32.208-19.52 52.216-7.808 104.432 11.712 51.728 49.776 90.768 38.552 39.04 90.768 50.752 53.192 11.712 105.408-7.808 17.568-5.856 32.208 7.808 14.64 14.152 6.832 33.184-19.52 54.656-58.56 93.696-7.808 7.808-27.328 21.472 66.368 20.984 108.336 78.08 41.968 56.608 41.968 128.832 0 89.792-64.416 154.208T780.8 937.536q-41.48 0-78.08-13.664Q614.88 1000 499.712 1000t-203.008-76.128q-36.6 13.664-78.08 13.664-89.792 0-154.208-64.416T0 718.912zm517.28-445.056Q505.568 329 525.088 377.312q134.2 9.272 218.624 117.12 64.904-15.616 103.456-64.416-111.264 5.856-191.296-73.2-80.032-79.544-72.224-190.32-7.32 5.368-15.616 13.664-39.04 39.04-50.752 93.696z"/></symbol><symbol viewBox="0 0 1000 1000" id="cloud-sun" xmlns="http://www.w3.org/2000/svg"><path d="M0 718.912q0-87.84 61.488-151.28t149.328-67.344q-23.424-44.896-23.424-93.696 0-89.792 64.416-154.208t154.208-64.416q89.304 0 153.232 62.464Q622.2 311.92 624.64 402.688q75.64 32.696 124.928 99.552 13.664-1.952 31.232-1.952 89.792 0 154.208 64.416t64.416 154.208-64.416 154.208T780.8 937.536q-41.48 0-78.08-13.664Q614.88 1000 499.712 1000t-203.008-76.128q-36.6 13.664-78.08 13.664-89.792 0-154.208-64.416T0 718.912zm0-312.32q0-13.664 8.784-22.448t22.448-8.784h62.464q13.664 0 22.448 8.784t8.784 22.448-8.784 22.448-22.448 8.784H31.232q-13.664 0-22.448-8.784T0 406.592zm62.464 312.32q0 64.416 45.872 110.288t110.288 45.872q48.8 0 89.792-29.28 76.128 91.744 191.296 91.744t191.296-91.744q40.992 29.28 89.792 29.28 64.416 0 110.288-45.872t45.872-110.288-45.872-110.288T780.8 562.752q-31.232 0-58.56 11.712-37.088-70.272-107.36-107.36-27.816-15.616-58.56-21.472-28.304-7.808-56.608-7.808-115.168 0-191.296 89.792-19.032 22.936-31.232 46.848-.976 0-15.616-3.904-22.936-7.808-42.944-7.808-64.416 0-110.288 45.872T62.464 718.912zm56.608-554.368q-10.736-11.712-10.736-22.936t10.736-21.96 21.96-10.736 22.936 10.736l42.944 44.896q10.736 10.736 10.736 21.472t-10.736 21.472-21.472 10.736l-21.472-10.736zm130.784 242.048q0 37.576 19.52 72.224Q361.12 375.36 499.712 375.36q27.328 0 60.512 5.856-9.76-56.608-52.704-93.696t-101.504-37.088q-64.416 0-110.288 45.872t-45.872 110.288zm124.928-312.32V31.808q0-13.664 8.784-22.448T406.016.576t22.448 8.784 8.784 22.448v62.464q0 13.664-8.784 22.448t-22.448 8.784-22.448-8.784-8.784-22.448zM605.12 207.488q-10.736-10.736-10.736-21.472t10.736-21.472l42.944-44.896q11.712-10.736 22.936-10.736t21.96 10.736 10.736 21.96-10.736 22.936l-44.896 42.944q-10.736 10.736-21.472 10.736zm81.984 199.104q0-13.664 8.784-22.448t22.448-8.784H780.8q13.664 0 22.448 8.784t8.784 22.448-8.784 22.448-22.448 8.784h-62.464q-13.664 0-22.448-8.784t-8.784-22.448z"/></symbol><symbol viewBox="0 0 1000 1000" id="cloud-sun-inv" xmlns="http://www.w3.org/2000/svg"><path d="M0 718.912q0-87.84 61.488-151.28t149.328-67.344q-23.424-44.896-23.424-93.696 0-89.792 64.416-154.208t154.208-64.416q89.304 0 153.232 62.464Q622.2 311.92 624.64 402.688q75.64 32.696 124.928 99.552 13.664-1.952 31.232-1.952 89.792 0 154.208 64.416t64.416 154.208-64.416 154.208T780.8 937.536q-41.48 0-78.08-13.664Q614.88 1000 499.712 1000t-203.008-76.128q-36.6 13.664-78.08 13.664-89.792 0-154.208-64.416T0 718.912zm0-312.32q0-13.664 8.784-22.448t22.448-8.784h62.464q13.664 0 22.448 8.784t8.784 22.448-8.784 22.448-22.448 8.784H31.232q-13.664 0-22.448-8.784T0 406.592zm119.072-242.048q-21.472-23.424 0-44.896t44.896 0l42.944 44.896q21.472 21.472 0 42.944t-42.944 0zm130.784 242.048q0 37.576 19.52 72.224Q361.12 375.36 499.712 375.36q27.328 0 60.512 5.856-9.76-56.608-52.704-93.696t-101.504-37.088q-64.416 0-110.288 45.872t-45.872 110.288zm124.928-312.32V31.808q0-13.664 8.784-22.448T406.016.576t22.448 8.784 8.784 22.448v62.464q0 13.664-8.784 22.448t-22.448 8.784-22.448-8.784-8.784-22.448zM605.12 207.488q-21.472-21.472 0-42.944l42.944-44.896q23.424-21.472 44.896 0t0 44.896l-44.896 42.944q-21.472 21.472-42.944 0zm81.984 199.104q0-13.664 8.784-22.448t22.448-8.784H780.8q13.664 0 22.448 8.784t8.784 22.448-8.784 22.448-22.448 8.784h-62.464q-13.664 0-22.448-8.784t-8.784-22.448z"/></symbol><symbol viewBox="0 0 1000 1000" id="clouds" xmlns="http://www.w3.org/2000/svg"><path d="M0 718.912q0-89.792 64.416-154.208t154.208-64.416q17.568 0 31.232 1.952 1.464-3.904 3.904-3.904-3.904-18.544-3.904-29.28 0-72.224 50.752-122.976t122.976-50.752h13.664q72.224-89.792 187.392-89.792t187.392 89.792h13.664q72.224 0 122.976 50.752t50.752 122.976q0 66.368-46.848 117.12 46.848 60.512 46.848 132.736 0 89.792-64.416 154.208T780.8 937.536q-41.48 0-78.08-13.664Q614.88 1000 499.712 1000t-203.008-76.128q-36.6 13.664-78.08 13.664-89.792 0-154.208-64.416T0 718.912zm62.464 0q0 64.416 45.872 110.288t110.288 45.872q48.8 0 89.792-29.28 76.128 91.744 191.296 91.744t191.296-91.744q40.992 29.28 89.792 29.28 64.416 0 110.288-45.872t45.872-110.288q0-52.216-33.184-95.648-22.936-28.792-55.876-44.652t-67.1-15.86l-25.376 1.952q-18.056 3.416-33.184 9.76-32.696-61.976-91.744-99.552-58.072-37.088-130.784-37.088-103.456 0-177.632 76.128-23.912 25.864-40.992 54.656 0 5.856-3.904 5.856-27.328-11.712-58.56-11.712-64.416 0-110.288 45.872T62.464 718.912zM318.176 433.92q81.984-58.56 181.536-58.56 73.2 0 140.544 33.184 65.88 32.696 109.312 93.696 13.664-1.952 31.232-1.952 70.76 0 128.832 42.944 27.328-33.184 27.328-74.176 0-46.848-32.208-79.056t-79.056-32.208q-22.448 0-42.944 7.808-21.472-42.944-64.416-70.272Q674.904 268 624.64 268t-93.696 27.328Q488 322.656 466.528 365.6q-20.496-7.808-42.944-7.808-36.6 0-65.392 21.472-27.816 20.984-40.016 54.656z"/></symbol><symbol viewBox="0 0 1000 1000" id="clouds-flash" xmlns="http://www.w3.org/2000/svg"><path d="M0 513.952q0-89.792 64.416-154.208t154.208-64.416q17.568 0 31.232 1.952 1.464-3.904 3.904-3.904-3.904-18.544-3.904-29.28 0-72.224 50.752-122.976t122.976-50.752h13.664Q509.472.576 624.64.576t187.392 89.792h13.664q72.224 0 122.976 50.752t50.752 122.976q0 66.368-46.848 117.12 46.848 58.56 46.848 132.736 0 89.792-64.416 154.208T780.8 732.576q-41.48 0-78.08-13.664-81.496 71.736-193.248 74.176l-9.76 19.52 62.464 62.464L374.784 1000l62.464-124.928-62.464-62.464 44.896-29.28q-72.224-19.52-122.976-64.416-36.6 13.664-78.08 13.664-89.792 0-154.208-64.416T0 513.952zm62.464 0q0 64.416 45.872 110.288t110.288 45.872q48.8 0 89.792-29.28 73.688 89.304 187.392 91.744l46.848-5.856q89.304-15.128 148.352-85.888 40.992 29.28 89.792 29.28 64.416 0 110.288-45.872t45.872-110.288q0-52.216-33.184-95.648-22.936-28.792-55.876-44.652t-67.1-15.86l-25.376 1.952q-18.056 3.416-33.184 9.76-32.696-61.976-91.744-99.552-58.072-37.088-130.784-37.088-103.456 0-177.632 76.128-23.912 23.912-40.992 54.656-1.464 3.416-3.904 5.856-27.328-11.712-58.56-11.712-64.416 0-110.288 45.872T62.464 513.952zM318.176 228.96q81.984-58.56 181.536-58.56 73.2 0 140.544 33.184 65.88 32.696 109.312 93.696 13.664-1.952 31.232-1.952 70.272 0 128.832 40.992 27.328-31.72 27.328-72.224 0-46.848-32.208-79.056t-79.056-32.208q-22.448 0-42.944 7.808-21.472-44.896-64.416-71.248T624.64 63.04t-93.696 26.352-64.416 71.248q-20.496-7.808-42.944-7.808-36.6 0-65.392 21.472-27.816 20.984-40.016 54.656z"/></symbol><symbol viewBox="0 0 1000 1000" id="clouds-flash-alt" xmlns="http://www.w3.org/2000/svg"><path d="M0 513.952q0-89.792 64.416-154.208t154.208-64.416q17.568 0 31.232 1.952 1.464-3.904 3.904-3.904-3.904-18.544-3.904-29.28 0-72.224 50.752-122.976t122.976-50.752h13.664Q509.472.576 624.64.576t187.392 89.792h13.664q72.224 0 122.976 50.752t50.752 122.976q0 66.368-46.848 117.12 46.848 58.56 46.848 132.736 0 89.792-64.416 154.208T780.8 732.576q-40.016 0-78.08-15.616-40.016 36.112-91.744 56.608l-35.136-35.136 11.712-23.424q63.44-25.864 103.456-74.176 40.992 29.28 89.792 29.28 64.416 0 110.288-45.872t45.872-110.288q0-52.216-33.184-95.648-22.936-28.792-55.876-44.652t-67.1-15.86l-25.376 1.952q-18.056 3.416-33.184 9.76-32.696-61.976-91.744-99.552-58.072-37.088-130.784-37.088-103.456 0-177.632 76.128-23.912 23.912-40.992 54.656-1.464 3.416-3.904 5.856-27.328-11.712-58.56-11.712-64.416 0-110.288 45.872T62.464 513.952t45.872 110.288 110.288 45.872q48.8 0 89.792-29.28 20.984 24.888 50.752 44.896l-56.608 37.088-5.856-3.904q-36.6 13.664-78.08 13.664-89.792 0-154.208-64.416T0 513.952zM318.176 228.96q81.984-58.56 181.536-58.56 73.2 0 140.544 33.184 65.88 32.696 109.312 93.696 13.664-1.952 31.232-1.952 70.272 0 128.832 40.992 27.328-31.72 27.328-72.224 0-46.848-32.208-79.056t-79.056-32.208q-22.448 0-42.944 7.808-21.472-44.896-64.416-71.248T624.64 63.04t-93.696 26.352-64.416 71.248q-20.496-7.808-42.944-7.808-36.6 0-65.392 21.472-27.816 20.984-40.016 54.656zM374.784 1000l62.464-187.392-62.464-62.464 187.392-124.928-62.464 124.928 62.464 62.464z"/></symbol><symbol viewBox="0 0 1000 1000" id="clouds-flash-inv" xmlns="http://www.w3.org/2000/svg"><path d="M0 513.952q0-89.792 64.416-154.208t154.208-64.416q17.568 0 31.232 1.952 1.464-3.904 3.904-3.904-3.904-18.544-3.904-29.28 0-72.224 50.752-122.976t122.976-50.752h13.664Q509.472.576 624.64.576t187.392 89.792h13.664q72.224 0 122.976 50.752t50.752 122.976q0 66.368-46.848 117.12 46.848 58.56 46.848 132.736 0 89.792-64.416 154.208T780.8 732.576q-41.48 0-78.08-13.664-81.496 71.736-193.248 74.176l-9.76 19.52 62.464 62.464L374.784 1000l62.464-124.928-62.464-62.464 44.896-29.28q-72.224-19.52-122.976-64.416-36.6 13.664-78.08 13.664-89.792 0-154.208-64.416T0 513.952z"/></symbol><symbol viewBox="0 0 1000 1000" id="clouds-inv" xmlns="http://www.w3.org/2000/svg"><path d="M1.952 616.432q0-90.768 64.416-155.184t154.208-64.416q14.64 0 31.232 3.904 0-.976.976-2.928t.976-2.928q-1.952-15.616-1.952-29.28 0-69.784 50.752-122 50.264-51.728 122.976-51.728 8.296 0 13.664 1.952 72.224-89.792 187.392-89.792t187.392 89.792q5.368-1.952 13.664-1.952 72.712 0 122.976 51.728 50.752 52.216 50.752 122 0 68.32-46.848 117.12 46.848 60.512 46.848 132.736 0 91.744-64.416 155.184-63.928 63.44-154.208 63.44-41.48 0-78.08-13.664-87.84 76.128-203.008 76.128t-203.008-76.128q-36.6 13.664-78.08 13.664-90.28 0-154.208-63.44Q1.952 707.2 1.952 616.432z"/></symbol><symbol viewBox="0 0 1000 1000" id="compass" xmlns="http://www.w3.org/2000/svg"><path d="M0 500.288q0-206.912 146.4-353.312T499.712.576t353.312 146.4 146.4 353.312-146.4 353.312T499.712 1000 146.4 853.6 0 500.288zm124.928 0q0 154.208 110.288 264.496t264.496 110.288 263.52-109.312q111.264-111.264 111.264-265.472T764.208 235.792 499.712 125.504 235.216 235.792 124.928 500.288zM312.32 687.68l124.928-249.856 249.856-124.928-124.928 249.856z"/></symbol><symbol viewBox="0 0 1000 1000" id="drizzle" xmlns="http://www.w3.org/2000/svg"><path d="M0 406.592Q0 316.8 64.416 252.384t154.208-64.416q17.568 0 31.232 1.952 43.432-61 109.312-93.696Q426.512 63.04 499.712 63.04t140.544 33.184q65.88 32.696 109.312 93.696 13.664-1.952 31.232-1.952 89.792 0 154.208 64.416t64.416 154.208T935.008 560.8 780.8 625.216q-41.48 0-78.08-13.664-87.84 76.128-203.008 76.128t-203.008-76.128q-36.6 13.664-78.08 13.664-89.792 0-154.208-64.416T0 406.592zm62.464 0q0 64.416 45.872 110.288t110.288 45.872q48.8 0 89.792-29.28 76.128 91.744 191.296 91.744t191.296-91.744q40.992 29.28 89.792 29.28 64.416 0 110.288-45.872t45.872-110.288-45.872-110.288T780.8 250.432q-31.232 0-58.56 11.712-32.696-61.976-91.744-99.552-58.072-37.088-130.784-37.088t-130.784 37.088q-59.048 37.576-91.744 99.552-27.328-11.712-58.56-11.712-64.416 0-110.288 45.872T62.464 406.592zm374.784 468.48q0-34.648 62.464-124.928l15.616 23.424q17.568 26.84 31.232 54.656 15.616 32.208 15.616 46.848 0 25.376-18.544 43.92t-43.92 18.544-43.92-18.544-18.544-43.92z"/></symbol><symbol viewBox="0 0 1000 1000" id="drizzle-inv" xmlns="http://www.w3.org/2000/svg"><path d="M0 406.592Q0 316.8 64.416 252.384t154.208-64.416q17.568 0 31.232 1.952 43.432-61 109.312-93.696Q426.512 63.04 499.712 63.04t140.544 33.184q65.88 32.696 109.312 93.696 13.664-1.952 31.232-1.952 89.792 0 154.208 64.416t64.416 154.208T935.008 560.8 780.8 625.216q-41.48 0-78.08-13.664-87.84 76.128-203.008 76.128t-203.008-76.128q-36.6 13.664-78.08 13.664-89.792 0-154.208-64.416T0 406.592zm437.248 468.48q0-34.648 62.464-124.928l15.616 23.424q17.568 26.84 31.232 54.656 15.616 32.208 15.616 46.848 0 25.376-18.544 43.92t-43.92 18.544-43.92-18.544-18.544-43.92z"/></symbol><symbol viewBox="0 0 1000 1000" id="eclipse" xmlns="http://www.w3.org/2000/svg"><path d="M122.976 529.568q0-13.664 8.784-22.448t22.448-8.784h62.464q13.664 0 22.448 8.784t8.784 22.448-8.784 22.448-22.448 8.784h-62.464q-13.664 0-22.448-8.784t-8.784-22.448zm119.072 286.944q-10.736-10.736-10.736-21.96t10.736-22.936l44.896-42.944q10.736-12.2 21.96-12.2l20.984 11.224q10.736 11.224 10.736 22.204t-10.736 21.716l-42.944 44.896q-11.712 10.736-22.936 10.736t-21.96-10.736zm0-528.992q-10.736-11.712-10.736-22.936t10.736-21.96 21.96-10.736 22.936 10.736l42.944 44.896q10.736 10.736 10.736 21.472t-10.736 21.472-21.472 10.736l-21.472-10.736zm68.32 242.048q0-89.792 64.416-154.208t154.208-64.416q28.792 0 62.464 9.76 33.672-9.76 62.464-9.76 89.792 0 154.208 64.416t64.416 154.208-64.416 154.208-154.208 64.416q-28.792 0-62.464-9.76-33.672 9.76-62.464 9.76-89.792 0-154.208-64.416t-64.416-154.208zm62.464 0q0 56.12 36.112 99.552 35.624 42.944 88.816 52.704-62.464-62.464-62.464-152.256t62.464-152.256q-53.192 9.76-88.816 52.704-36.112 43.432-36.112 99.552zM497.76 904.352v-62.464q0-13.664 8.784-22.448t22.448-8.784 22.448 8.784 8.784 22.448v62.464q0 13.664-8.784 22.448t-22.448 8.784-22.448-8.784-8.784-22.448zm0-687.104v-62.464q0-13.664 8.784-22.448t22.448-8.784 22.448 8.784 8.784 22.448v62.464q0 13.664-8.784 22.448t-22.448 8.784-22.448-8.784-8.784-22.448z"/></symbol><symbol viewBox="0 0 1000 1000" id="fahrenheit" xmlns="http://www.w3.org/2000/svg"><path d="M275.964 388.78q2.196-19.276 15.128-35.624t31.964-22.692q30.256-11.712 59.536 0t40.992 39.04q12.2 27.816 0 56.608t-40.992 40.992q-13.664 5.856-30.256 5.856t-30.256-5.856q-28.304-12.2-40.992-40.016-7.32-19.032-5.124-38.308zm42.212 10.004q0 13.664 9.76 23.424t24.4 9.76 24.4-9.76 9.76-23.424-9.76-23.424-24.4-9.76-24.4 9.76-9.76 23.424zm167.872 277.184V330.464h238.144v62.464H554.368v80.032h144.448v62.464H554.368v140.544h-68.32z"/></symbol><symbol viewBox="0 0 1000 1000" id="fog" xmlns="http://www.w3.org/2000/svg"><path d="M187.392 656.448q0-13.664 8.784-22.448t22.448-8.784H780.8q13.664 0 22.448 8.784t8.784 22.448-8.784 22.448-22.448 8.784H218.624q-13.664 0-22.448-8.784t-8.784-22.448zm0-124.928q0-13.664 8.784-22.448t22.448-8.784H780.8q13.664 0 22.448 8.784t8.784 22.448-8.784 22.448-22.448 8.784H218.624q-13.664 0-22.448-8.784t-8.784-22.448zm0-124.928q0-13.664 8.784-22.448t22.448-8.784H780.8q13.664 0 22.448 8.784t8.784 22.448-8.784 22.448-22.448 8.784H218.624q-13.664 0-22.448-8.784t-8.784-22.448zm0-124.928q0-13.664 8.784-22.448t22.448-8.784H780.8q13.664 0 22.448 8.784t8.784 22.448-8.784 22.448-22.448 8.784H218.624q-13.664 0-22.448-8.784t-8.784-22.448z"/></symbol><symbol viewBox="0 0 1000 1000" id="fog-cloud" xmlns="http://www.w3.org/2000/svg"><path d="M0 843.84q0-13.664 8.784-22.448t22.448-8.784h936.96q13.664 0 22.448 8.784t8.784 22.448-8.784 22.448-22.448 8.784H31.232q-13.664 0-22.448-8.784T0 843.84zm0-124.928q0-13.664 8.784-22.448t22.448-8.784h936.96q13.664 0 22.448 8.784t8.784 22.448-8.784 22.448-22.448 8.784H31.232q-13.664 0-22.448-8.784T0 718.912zm0-124.928q0-13.664 8.784-22.448t22.448-8.784h936.96q13.664 0 22.448 8.784t8.784 22.448-8.784 22.448-22.448 8.784H31.232q-13.664 0-22.448-8.784T0 593.984zm0-124.928q0-89.792 64.416-154.208t154.208-64.416q17.568 0 31.232 1.952 43.432-61 109.312-93.696 67.344-33.184 140.544-33.184t140.544 33.184q65.88 32.696 109.312 93.696 13.664-1.952 31.232-1.952 89.792 0 154.208 64.416t64.416 154.208q0 8.784-3.904 31.232h-62.464q3.904-16.592 3.904-31.232 0-64.416-45.872-110.288T780.8 312.896q-31.232 0-58.56 11.712-32.696-61.976-91.744-99.552-58.072-37.088-130.784-37.088t-130.784 37.088q-59.048 37.576-91.744 99.552-27.328-11.712-58.56-11.712-64.416 0-110.288 45.872T62.464 469.056q0 14.64 3.904 31.232H3.904Q0 477.84 0 469.056z"/></symbol><symbol viewBox="0 0 1000 1000" id="fog-moon" xmlns="http://www.w3.org/2000/svg"><path d="M93.696 841.888q0-13.664 8.784-22.448t22.448-8.784h749.568q13.664 0 22.448 8.784t8.784 22.448-8.784 22.448-22.448 8.784H124.928q-13.664 0-22.448-8.784t-8.784-22.448zm0-124.928q0-13.664 8.784-22.448t22.448-8.784h749.568q13.664 0 22.448 8.784t8.784 22.448-8.784 22.448-22.448 8.784H124.928q-13.664 0-22.448-8.784t-8.784-22.448zm0-124.928q0-13.664 8.784-22.448t22.448-8.784h749.568q13.664 0 22.448 8.784t8.784 22.448-8.784 22.448-22.448 8.784H124.928q-13.664 0-22.448-8.784t-8.784-22.448zm188.368-253.76q8.784-87.84 71.248-150.304 39.04-39.04 93.696-58.56 5.856-1.952 11.224-1.952 12.2 0 21.96 9.76t9.76 20.984q0 4.88-1.952 10.248-12.2 32.696-12.2 65.88 0 20.008 4.392 39.528 11.712 52.216 50.752 90.768 39.04 38.064 90.768 49.776 19.52 4.392 39.04 4.392l65.392-12.2q5.368-1.952 10.248-1.952 11.712 0 21.228 9.76t9.516 21.96q0 5.368-1.952 11.224-9.76 27.816-23.424 50.752h-81.984q15.616-13.664 17.568-17.568-9.76.488-19.52.488-98.576 0-170.8-72.712-73.688-74.664-73.688-176.168 0-7.32.488-15.128-7.32 5.368-15.616 13.664-54.656 54.656-54.656 132.736t54.656 132.736l1.952 1.952h-80.032q-39.528-61-39.528-132.736 0-13.664 1.464-27.328z"/></symbol><symbol viewBox="0 0 1000 1000" id="fog-sun" xmlns="http://www.w3.org/2000/svg"><path d="M93.696 841.888q0-13.664 8.784-22.448t22.448-8.784h749.568q13.664 0 22.448 8.784t8.784 22.448-8.784 22.448-22.448 8.784H124.928q-13.664 0-22.448-8.784t-8.784-22.448zm0-124.928q0-13.664 8.784-22.448t22.448-8.784h749.568q13.664 0 22.448 8.784t8.784 22.448-8.784 22.448-22.448 8.784H124.928q-13.664 0-22.448-8.784t-8.784-22.448zm0-124.928q0-13.664 8.784-22.448t22.448-8.784h749.568q13.664 0 22.448 8.784t8.784 22.448-8.784 22.448-22.448 8.784H124.928q-13.664 0-22.448-8.784t-8.784-22.448zm0-124.928q0-13.664 8.784-22.448t22.448-8.784h62.464q13.664 0 22.448 8.784t8.784 22.448-8.784 22.448-22.448 8.784h-62.464q-13.664 0-22.448-8.784t-8.784-22.448zm119.072-242.048q-10.736-11.712-10.736-22.936t10.736-21.96 21.96-10.736 22.936 10.736l42.944 44.896q10.736 10.736 10.736 21.472T300.608 268t-21.472 10.736L257.664 268zm68.32 242.048q0-89.792 64.416-154.208t154.208-64.416 154.208 64.416 64.416 154.208q0 8.784-3.904 31.232h-62.464q3.904-16.592 3.904-31.232 0-64.416-45.872-110.288t-110.288-45.872-110.288 45.872-45.872 110.288q0 14.64 3.904 31.232h-62.464q-3.904-22.448-3.904-31.232zm187.392-312.32V92.32q0-13.664 8.784-22.448t22.448-8.784 22.448 8.784 8.784 22.448v62.464q0 13.664-8.784 22.448t-22.448 8.784-22.448-8.784-8.784-22.448zM698.816 268q-10.736-10.736-10.736-21.472t10.736-21.472l42.944-44.896q11.712-10.736 22.936-10.736t21.96 10.736 10.736 21.96-10.736 22.936L741.76 268q-10.736 10.736-21.472 10.736zM780.8 467.104q0-13.664 8.784-22.448t22.448-8.784h62.464q13.664 0 22.448 8.784t8.784 22.448-8.784 22.448-22.448 8.784h-62.464q-13.664 0-22.448-8.784t-8.784-22.448z"/></symbol><symbol viewBox="0 0 1000 1000" id="hail" xmlns="http://www.w3.org/2000/svg"><path d="M0 344.128q0-89.792 64.416-154.208t154.208-64.416q17.568 0 31.232 1.952 43.432-61 109.312-93.696Q426.512.576 499.712.576T640.256 33.76q65.88 32.696 109.312 93.696 13.664-1.952 31.232-1.952 89.792 0 154.208 64.416t64.416 154.208-64.416 154.208T780.8 562.752q-41.48 0-78.08-13.664-87.84 76.128-203.008 76.128t-203.008-76.128q-36.6 13.664-78.08 13.664-89.792 0-154.208-64.416T0 344.128zm62.464 0q0 64.416 45.872 110.288t110.288 45.872q28.304 0 54.656-9.76l35.136-13.664 29.28 25.376q69.784 60.512 162.016 60.512t162.016-60.512l29.28-25.376 35.136 13.664q26.352 9.76 54.656 9.76 64.416 0 110.288-45.872t45.872-110.288-45.872-110.288T780.8 187.968q-13.176 0-21.472 1.952l-37.088 5.856-23.424-31.232Q625.128 63.04 499.712 63.04T300.608 164.544l-23.424 31.232-37.088-5.856q-8.296-1.952-21.472-1.952-64.416 0-110.288 45.872T62.464 344.128zm62.464 343.552q0-25.376 18.544-43.92t43.92-18.544 42.944 19.52q19.52 17.568 19.52 42.944t-18.544 43.92-43.92 18.544-43.92-18.544-18.544-43.92zm124.928 249.856q0-25.376 18.544-43.92t43.92-18.544 42.944 19.52q19.52 17.568 19.52 42.944t-18.544 43.92T312.32 1000t-43.92-18.544-18.544-43.92zm187.392-187.392q0-25.376 18.544-43.92t43.92-18.544 42.944 19.52q19.52 17.568 19.52 42.944t-18.544 43.92-43.92 18.544-43.92-18.544-18.544-43.92zM624.64 937.536q0-25.376 18.544-43.92t43.92-18.544 42.944 19.52q19.52 17.568 19.52 42.944t-18.544 43.92-43.92 18.544-43.92-18.544-18.544-43.92zM749.568 687.68q0-25.376 18.544-43.92t43.92-18.544 42.944 19.52q19.52 17.568 19.52 42.944t-18.544 43.92-43.92 18.544-43.92-18.544-18.544-43.92z"/></symbol><symbol viewBox="0 0 1000 1000" id="hail-inv" xmlns="http://www.w3.org/2000/svg"><path d="M0 344.128q0-89.792 64.416-154.208t154.208-64.416q17.568 0 31.232 1.952 43.432-61 109.312-93.696Q426.512.576 499.712.576T640.256 33.76q65.88 32.696 109.312 93.696 13.664-1.952 31.232-1.952 89.792 0 154.208 64.416t64.416 154.208-64.416 154.208T780.8 562.752q-41.48 0-78.08-13.664-87.84 76.128-203.008 76.128t-203.008-76.128q-36.6 13.664-78.08 13.664-89.792 0-154.208-64.416T0 344.128zM124.928 687.68q0-25.376 18.544-43.92t43.92-18.544 42.944 19.52q19.52 17.568 19.52 42.944t-18.544 43.92-43.92 18.544-43.92-18.544-18.544-43.92zm124.928 249.856q0-25.376 18.544-43.92t43.92-18.544 42.944 19.52q19.52 17.568 19.52 42.944t-18.544 43.92T312.32 1000t-43.92-18.544-18.544-43.92zm187.392-187.392q0-25.376 18.544-43.92t43.92-18.544 42.944 19.52q19.52 17.568 19.52 42.944t-18.544 43.92-43.92 18.544-43.92-18.544-18.544-43.92zM624.64 937.536q0-25.376 18.544-43.92t43.92-18.544 42.944 19.52q19.52 17.568 19.52 42.944t-18.544 43.92-43.92 18.544-43.92-18.544-18.544-43.92zM749.568 687.68q0-25.376 18.544-43.92t43.92-18.544 42.944 19.52q19.52 17.568 19.52 42.944t-18.544 43.92-43.92 18.544-43.92-18.544-18.544-43.92z"/></symbol><symbol viewBox="0 0 1000 1000" id="mist" xmlns="http://www.w3.org/2000/svg"><path d="M60.512 592.032q0-13.664 10.736-22.448T97.6 560.8h167.872q-10.248-31.232-13.664-62.464h-97.6q-13.664 0-22.448-8.784t-8.784-22.448 8.784-22.448 22.448-8.784h97.6q3.416-31.232 13.664-62.464H91.744q-13.664 0-22.448-8.784t-8.784-22.448 8.784-22.448 22.448-8.784h203.008q38.552-56.12 100.528-90.768 61-34.16 133.712-34.16 107.848 0 186.416 72.224 79.056 72.712 90.768 177.632H966.24q13.664 0 22.448 8.784t8.784 22.448-8.784 22.448-22.448 8.784H806.176q-3.416 31.232-13.664 62.464h42.944q15.616 0 26.352 8.784t10.736 22.448-10.736 22.448-26.352 8.784h-72.224q-38.552 56.12-100.528 90.768-61 34.16-133.712 34.16t-133.712-34.16q-61.976-34.648-100.528-90.768H97.6q-15.616 0-26.352-8.784t-10.736-22.448zm253.76-93.696q3.904 33.184 17.568 62.464h394.304q13.664-29.28 17.568-62.464h-429.44zm0-62.464h429.44Q732 355.352 671.488 302.16q-61-53.68-142.496-53.68-87.352 0-152.256 62.464h152.256q13.664 0 22.448 8.784t8.784 22.448-8.784 22.448-22.448 8.784H331.84q-13.664 29.28-17.568 62.464zm62.464 187.392q64.904 62.464 152.256 62.464t152.256-62.464H376.736z"/></symbol><symbol viewBox="0 0 1000 1000" id="moon" xmlns="http://www.w3.org/2000/svg"><path d="M255.712 494.432q0-103.456 74.176-177.632 39.04-39.04 93.696-58.56 5.368-1.952 10.248-1.952 11.712 0 21.228 9.76t9.516 21.96q0 5.368-1.952 11.224-10.736 30.256-10.248 61.488 0 20.984 4.392 41.968 11.712 52.704 49.776 90.768t90.768 49.776q20.984 4.88 41.968 4.392 31.232 0 61.488-10.248 5.856-1.952 11.224-1.952 12.2 0 21.96 9.76t9.76 20.984q0 4.88-1.952 10.248-19.52 54.656-58.56 93.696-74.176 74.176-177.632 74.176t-176.656-73.2-73.2-176.656zm62.464-.976q0 77.592 54.656 133.712Q427 681.336 503.616 681.336q6.344 0 12.688-.488 85.4-5.368 135.664-71.248-9.76.488-19.52.488-98.576 0-170.556-71.736t-71.98-170.8q0-9.76.488-19.52-10.248 6.344-17.568 13.664-54.656 54.656-54.656 131.76z"/></symbol><symbol viewBox="0 0 1000 1000" id="moon-inv" xmlns="http://www.w3.org/2000/svg"><path d="M286.944 493.456q0-90.768 64.416-155.184 35.624-33.184 81.984-50.752-21.472 59.536-7.808 121.024 14.152 62.952 58.56 107.36t107.36 58.56q61.488 13.664 121.024-7.808-17.568 46.36-50.752 81.984-64.416 64.416-155.184 64.416T351.36 648.64t-64.416-155.184z"/></symbol><symbol viewBox="0 0 1000 1000" id="na" xmlns="http://www.w3.org/2000/svg"><path d="M101.504 670.112V326.56h62.464L244 443.68l64.416 101.504h1.952V326.56h68.32v343.552h-62.464L230.336 541.28l-58.56-87.84h-1.952v216.672h-68.32zm300.608 21.472l126.88-382.592h50.752l-126.88 382.592h-50.752zm185.44-21.472L708.576 326.56h70.272L897.92 670.112h-74.176l-21.472-70.272H683.2l-23.424 70.272h-72.224zm113.216-126.88h83.936l-13.664-44.896-27.328-89.792h-1.952l-27.328 87.84z"/></symbol><symbol viewBox="0 0 1000 1000" id="rain" xmlns="http://www.w3.org/2000/svg"><path d="M0 344.128q0-89.792 64.416-154.208t154.208-64.416q17.568 0 31.232 1.952 43.432-61 109.312-93.696Q426.512.576 499.712.576T640.256 33.76q65.88 32.696 109.312 93.696 13.664-1.952 31.232-1.952 89.792 0 154.208 64.416t64.416 154.208-64.416 154.208T780.8 562.752q-41.48 0-78.08-13.664-87.84 76.128-203.008 76.128t-203.008-76.128q-36.6 13.664-78.08 13.664-89.792 0-154.208-64.416T0 344.128zm62.464 0q0 64.416 45.872 110.288t110.288 45.872q48.8 0 89.792-29.28 76.128 91.744 191.296 91.744t191.296-91.744q40.992 29.28 89.792 29.28 64.416 0 110.288-45.872t45.872-110.288-45.872-110.288T780.8 187.968q-31.232 0-58.56 11.712-32.696-61.976-91.744-99.552Q572.424 63.04 499.712 63.04t-130.784 37.088q-59.048 37.576-91.744 99.552-27.328-11.712-58.56-11.712-64.416 0-110.288 45.872T62.464 344.128zm124.928 406.016q0-34.648 62.464-124.928l15.616 23.424q17.568 26.84 31.232 54.656 15.616 32.208 15.616 46.848 0 25.376-18.544 43.92t-43.92 18.544-43.92-18.544-18.544-43.92zM439.2 937.536q0-34.648 62.464-124.928l15.616 23.424q17.568 26.84 31.232 54.656 15.616 32.208 15.616 46.848 0 25.376-18.544 43.92T501.664 1000t-43.92-18.544-18.544-43.92zm247.904-62.464q0-34.648 62.464-124.928l15.616 23.424q17.568 26.84 31.232 54.656 15.616 32.208 15.616 46.848 0 25.376-18.544 43.92t-43.92 18.544-43.92-18.544-18.544-43.92z"/></symbol><symbol viewBox="0 0 1000 1000" id="rain-inv" xmlns="http://www.w3.org/2000/svg"><path d="M0 344.128q0-89.792 64.416-154.208t154.208-64.416q17.568 0 31.232 1.952 43.432-61 109.312-93.696Q426.512.576 499.712.576T640.256 33.76q65.88 32.696 109.312 93.696 13.664-1.952 31.232-1.952 89.792 0 154.208 64.416t64.416 154.208-64.416 154.208T780.8 562.752q-41.48 0-78.08-13.664-87.84 76.128-203.008 76.128t-203.008-76.128q-36.6 13.664-78.08 13.664-89.792 0-154.208-64.416T0 344.128zm187.392 406.016q0-34.648 62.464-124.928l15.616 23.424q17.568 26.84 31.232 54.656 15.616 32.208 15.616 46.848 0 25.376-18.544 43.92t-43.92 18.544-43.92-18.544-18.544-43.92zM439.2 937.536q0-34.648 62.464-124.928l15.616 23.424q17.568 26.84 31.232 54.656 15.616 32.208 15.616 46.848 0 25.376-18.544 43.92T501.664 1000t-43.92-18.544-18.544-43.92zm247.904-62.464q0-34.648 62.464-124.928l15.616 23.424q17.568 26.84 31.232 54.656 15.616 32.208 15.616 46.848 0 25.376-18.544 43.92t-43.92 18.544-43.92-18.544-18.544-43.92z"/></symbol><symbol viewBox="0 0 1000 1000" id="snow" xmlns="http://www.w3.org/2000/svg"><path d="M0 344.128q0-89.792 64.416-154.208t154.208-64.416q17.568 0 31.232 1.952 43.432-61 109.312-93.696Q426.512.576 499.712.576T640.256 33.76q65.88 32.696 109.312 93.696 13.664-1.952 31.232-1.952 89.792 0 154.208 64.416t64.416 154.208-64.416 154.208T780.8 562.752q-41.48 0-78.08-13.664-87.84 76.128-203.008 76.128t-203.008-76.128q-36.6 13.664-78.08 13.664-89.792 0-154.208-64.416T0 344.128zm62.464 0q0 64.416 45.872 110.288t110.288 45.872q48.8 0 89.792-29.28 76.128 91.744 191.296 91.744t191.296-91.744q40.992 29.28 89.792 29.28 64.416 0 110.288-45.872t45.872-110.288-45.872-110.288T780.8 187.968q-31.232 0-58.56 11.712-32.696-61.976-91.744-99.552Q572.424 63.04 499.712 63.04t-130.784 37.088q-59.048 37.576-91.744 99.552-27.328-11.712-58.56-11.712-64.416 0-110.288 45.872T62.464 344.128zM347.456 887.76q3.904-14.64 15.616-20.496l35.136-21.472q-1.952-9.272-1.952-18.544t1.952-18.544l-35.136-19.52q-11.712-7.808-15.616-21.472-1.464-4.88-1.464-9.272 0-8.296 4.392-17.08 6.832-12.688 20.496-16.592t27.328 3.904l35.136 21.472q13.664-13.664 31.232-19.52v-40.992q0-13.664 10.736-24.4t24.4-10.736 24.4 10.736 10.736 24.4v40.992q17.568 5.856 31.232 19.52l35.136-21.472q13.664-7.808 27.328-3.904t20.496 16.592q4.392 8.296 4.392 17.08 0 4.392-1.464 9.272-3.904 13.664-15.616 21.472l-35.136 19.52q1.952 9.272 1.952 18.544t-1.952 18.544l35.136 21.472q11.712 5.856 15.616 20.496 1.464 5.368 1.464 10.248 0 8.784-4.392 16.104-7.32 12.2-20.74 15.616t-27.084-3.904l-35.136-19.52q-14.152 11.712-31.232 17.568v40.992q0 15.128-10.492 25.132T499.712 1000t-24.644-10.004-10.492-25.132v-40.992q-17.08-5.856-31.232-17.568l-35.136 19.52q-13.664 7.32-27.084 3.904t-20.74-15.616q-4.392-7.32-4.392-16.104 0-4.88 1.464-10.248zm117.12-60.512q0 14.64 10.736 24.4t24.4 9.76 23.424-9.76q11.712-9.76 11.712-24.4t-10.736-24.4-24.4-9.76-24.4 9.76-10.736 24.4z"/></symbol><symbol viewBox="0 0 1000 1000" id="snow-alt" xmlns="http://www.w3.org/2000/svg"><path d="M0 344.128q0-89.792 64.416-154.208t154.208-64.416q17.568 0 31.232 1.952 43.432-61 109.312-93.696Q426.512.576 499.712.576T640.256 33.76q65.88 32.696 109.312 93.696 13.664-1.952 31.232-1.952 89.792 0 154.208 64.416t64.416 154.208-64.416 154.208T780.8 562.752q-33.672 0-66.368-11.712-3.904-15.616-11.712-27.328-8.784-18.544-31.232-33.184.976-.976 5.856-5.124t8.54-8.052 5.124-6.344q40.992 29.28 89.792 29.28 64.416 0 110.288-45.872t45.872-110.288-45.872-110.288T780.8 187.968q-31.232 0-58.56 11.712-32.696-61.976-91.744-99.552Q572.424 63.04 499.712 63.04t-130.784 37.088q-59.048 37.576-91.744 99.552-27.328-11.712-58.56-11.712-64.416 0-110.288 45.872T62.464 344.128t45.872 110.288 110.288 45.872q48.8 0 89.792-29.28 0 1.952 19.52 19.52-22.448 14.64-31.232 33.184-7.808 11.712-11.712 27.328-33.184 11.712-66.368 11.712-89.792 0-154.208-64.416T0 344.128zm347.456 356.24q3.904-14.64 15.616-20.496l35.136-21.472q-1.952-9.272-1.952-18.544t1.952-18.544l-35.136-19.52q-11.712-7.808-15.616-21.472-1.464-4.88-1.464-9.272 0-8.296 4.392-17.08 6.832-12.688 20.496-16.592t27.328 3.904l35.136 21.472q13.664-13.664 31.232-19.52V502.24q0-13.664 10.736-24.4t24.4-10.736 24.4 10.736 10.736 24.4v40.992q17.568 5.856 31.232 19.52l35.136-21.472q13.664-7.808 27.328-3.904t20.496 16.592q4.392 8.296 4.392 17.08 0 4.392-1.464 9.272-3.904 13.664-15.616 21.472l-35.136 19.52q1.952 9.272 1.952 18.544t-1.952 18.544l35.136 21.472q11.712 5.856 15.616 20.496 1.464 5.368 1.464 10.248 0 8.784-4.392 16.104-7.32 12.2-20.74 15.616t-27.084-3.904l-35.136-19.52q-14.152 11.712-31.232 17.568v40.992q0 15.128-10.492 25.132t-24.644 10.004-24.644-10.004-10.492-25.132V736.48q-17.08-5.856-31.232-17.568l-35.136 19.52q-13.664 7.32-27.084 3.904t-20.74-15.616q-4.392-7.32-4.392-16.104 0-4.88 1.464-10.248zm117.12-60.512q0 14.64 10.736 24.4t24.4 9.76 23.424-9.76q11.712-9.76 11.712-24.4t-10.736-24.4-24.4-9.76-24.4 9.76-10.736 24.4z"/></symbol><symbol viewBox="0 0 1000 1000" id="snow-heavy" xmlns="http://www.w3.org/2000/svg"><path d="M0 344.128q0-89.792 64.416-154.208t154.208-64.416q17.568 0 31.232 1.952 43.432-61 109.312-93.696Q426.512.576 499.712.576T640.256 33.76q65.88 32.696 109.312 93.696 13.664-1.952 31.232-1.952 89.792 0 154.208 64.416t64.416 154.208-64.416 154.208T780.8 562.752q-41.48 0-78.08-13.664-87.84 76.128-203.008 76.128t-203.008-76.128q-36.6 13.664-78.08 13.664-89.792 0-154.208-64.416T0 344.128zM59.536 736.48q-.976-3.904-.976-7.32 0-13.664 15.616-18.056l23.424-5.856q0-11.712 5.856-21.472l-17.568-17.568q-6.832-6.832-6.832-13.908t6.832-14.396q7.32-7.808 15.128-7.808 6.832 0 14.152 6.832l17.568 17.568q9.272-3.416 21.472-5.856l5.856-23.424q4.392-15.128 17.08-15.128 3.904 0 8.296 1.464 15.128 4.392 15.128 17.08 0 3.904-1.464 8.296l-5.856 23.424q4.88 2.928 7.808 5.856 4.392 4.392 7.808 9.76l23.424-7.808q2.928-.488 5.856-.488 14.64 0 19.52 16.104 1.464 4.392 1.464 7.808 0 13.176-17.08 17.568l-23.424 5.856q0 11.712-5.856 21.472l17.568 17.568q8.296 7.32 8.296 14.64 0 6.832-7.32 13.664-7.808 7.808-15.616 7.808-7.32 0-14.64-6.832L185.44 765.76q-11.224 3.416-21.472 5.856l-7.808 23.424q-2.928 15.616-16.592 15.616-3.416 0-7.808-.976-16.104-3.904-16.104-17.568 0-3.904 1.464-8.784l5.856-23.424q-7.32-3.416-15.616-15.616l-23.424 7.808q-2.928.488-5.368.488-15.128 0-19.032-16.104zm2.928-392.352q0 64.416 45.872 110.288t110.288 45.872q48.8 0 89.792-29.28 76.128 91.744 191.296 91.744t191.296-91.744q40.992 29.28 89.792 29.28 64.416 0 110.288-45.872t45.872-110.288-45.872-110.288T780.8 187.968q-31.232 0-58.56 11.712-32.696-61.976-91.744-99.552Q572.424 63.04 499.712 63.04t-130.784 37.088q-59.048 37.576-91.744 99.552-27.328-11.712-58.56-11.712-64.416 0-110.288 45.872T62.464 344.128zm81.008 380.64q7.32 6.832 14.64 6.832l14.64-6.832q6.832-6.832 6.832-13.176 0-6.832-7.808-14.152-7.32-8.296-14.64-8.296l-13.664 7.32q-7.32 7.32-7.32 14.396t7.32 13.908zM347.456 887.76q3.904-14.64 15.616-20.496l35.136-21.472q-1.952-9.272-1.952-18.544t1.952-18.544l-35.136-19.52q-11.712-7.808-15.616-21.472-1.464-4.88-1.464-9.272 0-8.296 4.392-17.08 6.832-12.688 20.496-16.592t27.328 3.904l35.136 21.472q13.664-13.664 31.232-19.52v-40.992q0-13.664 10.736-24.4t24.4-10.736 24.4 10.736 10.736 24.4v40.992q17.568 5.856 31.232 19.52l35.136-21.472q13.664-7.808 27.328-3.904t20.496 16.592q6.832 13.176 2.928 26.596t-15.616 21.228l-35.136 19.52q1.952 9.272 1.952 18.544t-1.952 18.544l35.136 21.472q11.712 5.856 15.616 20.496t-2.928 26.352q-7.32 12.2-20.74 15.616t-27.084-3.904l-35.136-19.52q-14.152 11.712-31.232 17.568v40.992q0 15.128-10.492 25.132T499.712 1000t-24.644-10.004-10.492-25.132v-40.992q-17.08-5.856-31.232-17.568l-35.136 19.52q-13.664 7.32-27.084 3.904t-20.74-15.616q-4.392-7.32-4.392-16.104 0-4.88 1.464-10.248zm117.12-60.512q0 14.64 10.736 24.4t24.4 9.76 23.424-9.76q11.712-9.76 11.712-24.4t-10.736-24.4-24.4-9.76-24.4 9.76-10.736 24.4zM741.76 746.24q4.392-15.128 17.08-15.128 3.904 0 8.296 1.464l23.424 5.856q3.416-5.368 7.808-9.76 2.928-2.928 7.808-5.856l-5.856-23.424q-1.464-4.392-1.464-8.296 0-12.688 15.128-17.08 4.392-1.464 8.296-1.464 12.688 0 17.08 15.128l5.856 23.424q12.2 2.44 21.472 5.856l17.568-17.568q7.32-6.832 14.152-6.832 7.808 0 15.128 7.808 6.832 7.32 6.832 14.396t-6.832 13.908l-17.568 17.568q5.856 9.76 5.856 21.472l23.424 5.856q15.616 4.88 15.616 18.056 0 3.416-.976 7.32-3.904 16.104-19.032 16.104-2.44 0-5.368-.488l-23.424-7.808q-8.296 12.2-15.616 15.616l5.856 23.424q1.464 4.88 1.464 8.784 0 13.664-16.104 17.568-4.392.976-7.808.976-13.176 0-16.592-15.616l-7.808-23.424q-12.2-2.44-21.472-5.856l-15.616 17.568q-7.32 6.832-14.64 6.832-7.808 0-15.616-7.808-7.32-6.832-7.32-13.664 0-7.32 8.296-14.64l17.568-17.568q-5.856-9.272-5.856-21.472l-23.424-5.856q-17.08-4.392-17.08-17.568 0-3.416 1.464-7.808zm84.912 40.992q7.32 6.832 14.64 6.832l14.64-6.832q6.832-6.832 6.832-13.176 0-6.832-7.808-14.152-7.32-8.296-14.64-8.296l-13.664 7.32q-7.32 7.32-7.32 14.396t7.32 13.908z"/></symbol><symbol viewBox="0 0 1000 1000" id="snow-heavy-inv" xmlns="http://www.w3.org/2000/svg"><path d="M0 344.128q0-89.792 64.416-154.208t154.208-64.416q17.568 0 31.232 1.952 43.432-61 109.312-93.696Q426.512.576 499.712.576T640.256 33.76q65.88 32.696 109.312 93.696 13.664-1.952 31.232-1.952 89.792 0 154.208 64.416t64.416 154.208-64.416 154.208T780.8 562.752q-41.48 0-78.08-13.664-87.84 76.128-203.008 76.128t-203.008-76.128q-36.6 13.664-78.08 13.664-89.792 0-154.208-64.416T0 344.128zM59.536 736.48q-4.88-19.52 14.64-25.376l23.424-5.856q0-11.712 5.856-21.472l-17.568-17.568q-13.664-13.664 0-28.304 14.152-14.64 29.28-.976l17.568 17.568q9.272-3.416 21.472-5.856l5.856-23.424q5.856-19.52 25.376-13.664t13.664 25.376l-5.856 23.424q4.88 2.928 7.808 5.856 4.392 4.392 7.808 9.76l23.424-7.808q19.52-3.416 25.376 15.616 5.856 19.52-15.616 25.376l-23.424 5.856q0 11.712-5.856 21.472l17.568 17.568q15.616 14.152.976 28.304-14.64 14.64-30.256.976L185.44 765.76q-11.224 3.416-21.472 5.856l-7.808 23.424q-3.904 20.008-24.4 14.64-20.496-4.88-14.64-26.352l5.856-23.424q-7.32-3.416-15.616-15.616l-23.424 7.808q-19.52 3.416-24.4-15.616zm83.936-11.712q14.64 13.664 29.28 0 14.152-13.664-.976-27.328-14.152-15.616-28.304-.976-14.64 14.64 0 28.304zM347.456 887.76q3.904-14.64 15.616-20.496l35.136-21.472q-3.416-18.544 0-37.088l-35.136-19.52q-11.712-7.808-15.616-21.228t2.928-26.596q6.832-12.688 20.496-16.592t27.328 3.904l35.136 21.472q13.664-13.664 31.232-19.52v-40.992q0-13.664 10.736-24.4t24.4-10.736 24.4 10.736 10.736 24.4v40.992q17.568 5.856 31.232 19.52l35.136-21.472q13.664-7.808 27.328-3.904t20.496 16.592q6.832 13.176 2.928 26.596t-15.616 21.228l-35.136 19.52q3.416 18.544 0 37.088l35.136 21.472q11.712 5.856 15.616 20.496t-2.928 26.352q-7.32 12.2-20.74 15.616t-27.084-3.904l-35.136-19.52q-14.152 11.712-31.232 17.568v40.992q0 15.128-10.492 25.132T499.712 1000t-24.644-10.004-10.492-25.132v-40.992q-17.08-5.856-31.232-17.568l-35.136 19.52q-13.664 7.32-27.084 3.904t-20.74-15.616q-6.832-11.712-2.928-26.352zm117.12-60.512q0 14.64 10.736 24.4t24.4 9.76 23.424-9.76q11.712-9.76 11.712-24.4t-10.736-24.4-24.4-9.76-24.4 9.76-10.736 24.4zM741.76 746.24q5.856-19.52 25.376-13.664l23.424 5.856q3.416-5.368 7.808-9.76 2.928-2.928 7.808-5.856l-5.856-23.424q-5.856-19.52 13.664-25.376t25.376 13.664l5.856 23.424q12.2 2.44 21.472 5.856l17.568-17.568q15.128-13.664 29.28.976 13.664 14.64 0 28.304l-17.568 17.568q5.856 9.76 5.856 21.472l23.424 5.856q19.52 5.856 14.64 25.376-4.88 19.032-24.4 15.616l-23.424-7.808q-8.296 12.2-15.616 15.616l5.856 23.424q5.856 21.472-14.64 26.352-20.496 5.368-24.4-14.64l-7.808-23.424q-12.2-2.44-21.472-5.856l-15.616 17.568q-15.616 13.664-30.256-.976-14.64-14.152.976-28.304l17.568-17.568q-5.856-9.272-5.856-21.472l-23.424-5.856q-21.472-5.856-15.616-25.376zm84.912 40.992q14.64 13.664 29.28 0 14.152-13.664-.976-27.328-14.152-15.616-28.304-.976-14.64 14.64 0 28.304z"/></symbol><symbol viewBox="0 0 1000 1000" id="snow-inv" xmlns="http://www.w3.org/2000/svg"><path d="M0 344.128q0-89.792 64.416-154.208t154.208-64.416q17.568 0 31.232 1.952 43.432-61 109.312-93.696Q426.512.576 499.712.576T640.256 33.76q65.88 32.696 109.312 93.696 13.664-1.952 31.232-1.952 89.792 0 154.208 64.416t64.416 154.208-64.416 154.208T780.8 562.752q-41.48 0-78.08-13.664-87.84 76.128-203.008 76.128t-203.008-76.128q-36.6 13.664-78.08 13.664-89.792 0-154.208-64.416T0 344.128zM347.456 887.76q3.904-14.64 15.616-20.496l35.136-21.472q-3.416-18.544 0-37.088l-35.136-19.52q-11.712-7.808-15.616-21.228t2.928-26.596q6.832-12.688 20.496-16.592t27.328 3.904l35.136 21.472q13.664-13.664 31.232-19.52v-40.992q0-13.664 10.736-24.4t24.4-10.736 24.4 10.736 10.736 24.4v40.992q17.568 5.856 31.232 19.52l35.136-21.472q13.664-7.808 27.328-3.904t20.496 16.592q6.832 13.176 2.928 26.596t-15.616 21.228l-35.136 19.52q3.416 18.544 0 37.088l35.136 21.472q11.712 5.856 15.616 20.496t-2.928 26.352q-7.32 12.2-20.74 15.616t-27.084-3.904l-35.136-19.52q-14.152 11.712-31.232 17.568v40.992q0 15.128-10.492 25.132T499.712 1000t-24.644-10.004-10.492-25.132v-40.992q-17.08-5.856-31.232-17.568l-35.136 19.52q-13.664 7.32-27.084 3.904t-20.74-15.616q-6.832-11.712-2.928-26.352zm117.12-60.512q0 14.64 10.736 24.4t24.4 9.76 23.424-9.76q11.712-9.76 11.712-24.4t-10.736-24.4-24.4-9.76-24.4 9.76-10.736 24.4z"/></symbol><symbol viewBox="0 0 1000 1000" id="snowflake" xmlns="http://www.w3.org/2000/svg"><path d="M223.504 609.6q6.344-24.888 28.304-39.04l64.416-37.088q-3.904-16.592-3.904-33.672t3.904-34.648l-64.416-35.136q-21.96-14.152-28.304-39.04-1.952-8.784-1.952-17.08 0-16.104 7.808-30.744 12.2-22.448 38.064-28.304 8.296-1.952 16.592-1.952 16.104 0 30.256 7.808l64.416 37.088q27.816-21.472 58.56-33.184v-74.176q0-25.376 18.544-43.92t43.92-18.544 43.92 18.544 18.544 43.92v74.176q30.744 11.712 58.56 33.184l64.416-37.088q13.176-7.32 28.304-7.32 8.784 0 18.544 2.44 25.376 6.344 38.064 28.304 8.296 14.152 8.296 29.768 0 8.296-2.44 17.08-6.344 24.888-28.304 39.04L683.2 467.104q3.904 16.592 3.904 33.184t-3.904 33.184l64.416 37.088q21.96 14.152 28.304 39.04 2.44 8.784 2.44 17.08 0 15.616-8.296 29.768-12.688 21.96-38.064 28.304-9.76 2.44-18.544 2.44-15.128 0-28.304-7.32l-64.416-37.088q-26.352 21.472-58.56 33.184v74.176q0 25.376-18.544 43.92t-43.92 18.544-43.92-18.544-18.544-43.92v-74.176q-30.744-11.712-58.56-33.184l-64.416 37.088q-13.176 7.32-28.304 7.32-8.784 0-18.544-2.44-25.376-6.344-38.064-28.304-8.296-14.152-8.296-29.768 0-8.296 2.44-17.08zm213.744-109.312q0 25.376 17.568 44.896 19.52 17.568 44.896 17.568t43.92-18.544 18.544-43.92-18.544-43.92-43.92-18.544-43.92 18.544-18.544 43.92z"/></symbol><symbol viewBox="0 0 1000 1000" id="sun" xmlns="http://www.w3.org/2000/svg"><path d="M93.696 500.288q0-13.664 8.784-22.448t22.448-8.784h62.464q13.664 0 22.448 8.784t8.784 22.448-8.784 22.448-22.448 8.784h-62.464q-13.664 0-22.448-8.784t-8.784-22.448zm119.072 286.944q-10.736-10.736-10.736-21.96t10.736-22.936l44.896-42.944q10.736-12.2 21.96-12.2l20.984 11.224q10.736 11.224 10.736 22.204t-10.736 21.716l-42.944 44.896q-11.712 10.736-22.936 10.736t-21.96-10.736zm0-528.992q-10.736-11.712-10.736-22.936t10.736-21.96 21.96-10.736 22.936 10.736l42.944 44.896q10.736 10.736 10.736 21.472t-10.736 21.472-21.472 10.736l-21.472-10.736zm68.32 242.048q0-89.792 64.416-154.208t154.208-64.416T653.92 346.08t64.416 154.208-64.416 154.208-154.208 64.416-154.208-64.416-64.416-154.208zm62.464 0q0 64.416 45.872 110.288t110.288 45.872 109.312-44.896q46.848-46.848 46.848-111.264T610 390t-110.288-45.872T389.424 390t-45.872 110.288zM468.48 875.072v-62.464q0-13.664 8.784-22.448t22.448-8.784 22.448 8.784 8.784 22.448v62.464q0 13.664-8.784 22.448t-22.448 8.784-22.448-8.784-8.784-22.448zm0-687.104v-62.464q0-13.664 8.784-22.448t22.448-8.784 22.448 8.784 8.784 22.448v62.464q0 13.664-8.784 22.448t-22.448 8.784-22.448-8.784-8.784-22.448zm230.336 554.368Q688.08 731.6 688.08 720.864t10.736-21.472 21.472-10.736l21.472 10.736 44.896 42.944q10.736 11.712 10.736 22.936t-10.736 21.96-21.96 10.736-22.936-10.736zm0-441.152q-10.736-10.736-10.736-21.472t10.736-21.472l42.944-44.896q11.712-10.736 22.936-10.736t21.96 10.736 10.736 21.96-10.736 22.936l-44.896 42.944q-10.736 10.736-21.472 10.736zM780.8 500.288q0-13.664 8.784-22.448t22.448-8.784h62.464q13.664 0 22.448 8.784t8.784 22.448-8.784 22.448-22.448 8.784h-62.464q-13.664 0-22.448-8.784t-8.784-22.448z"/></symbol><symbol viewBox="0 0 1000 1000" id="sun-inv" xmlns="http://www.w3.org/2000/svg"><path d="M93.696 500.288q0-13.664 8.784-22.448t22.448-8.784h62.464q13.664 0 22.448 8.784t8.784 22.448-8.784 22.448-22.448 8.784h-62.464q-13.664 0-22.448-8.784t-8.784-22.448zm119.072 286.944q-21.472-21.472 0-44.896l44.896-42.944q21.472-21.472 42.944 0t0 42.944l-42.944 44.896q-23.424 21.472-44.896 0zm0-528.992q-21.472-23.424 0-44.896t44.896 0l42.944 44.896q21.472 21.472 0 42.944t-42.944 0zm68.32 242.048q0-89.792 64.416-154.208t154.208-64.416T653.92 346.08t64.416 154.208-64.416 154.208-154.208 64.416-154.208-64.416-64.416-154.208zM468.48 875.072v-62.464q0-13.664 8.784-22.448t22.448-8.784 22.448 8.784 8.784 22.448v62.464q0 13.664-8.784 22.448t-22.448 8.784-22.448-8.784-8.784-22.448zm0-687.104v-62.464q0-13.664 8.784-22.448t22.448-8.784 22.448 8.784 8.784 22.448v62.464q0 13.664-8.784 22.448t-22.448 8.784-22.448-8.784-8.784-22.448zm229.36 511.424q22.448-21.472 43.92 0l44.896 42.944q21.472 23.424 0 44.896t-44.896 0l-42.944-44.896q-23.912-21.472-.976-42.944zm0-398.208q-22.936-21.472.976-42.944l42.944-44.896q23.424-21.472 44.896 0t0 44.896l-44.896 42.944q-21.472 21.472-43.92 0zm82.96 199.104q0-13.664 8.784-22.448t22.448-8.784h62.464q13.664 0 22.448 8.784t8.784 22.448-8.784 22.448-22.448 8.784h-62.464q-13.664 0-22.448-8.784t-8.784-22.448z"/></symbol><symbol viewBox="0 0 1000 1000" id="sunrise" xmlns="http://www.w3.org/2000/svg"><path d="M212.768 351.936Q202.032 340.224 202.032 329t10.736-21.96 21.96-10.736 22.936 10.736l42.944 44.896q10.736 10.736 10.736 21.472t-10.736 21.472-21.472 10.736l-21.472-10.736zm68.32 304.512q0-13.664 8.784-22.448t22.448-8.784h374.784q13.664 0 22.448 8.784t8.784 22.448-8.784 22.448-22.448 8.784H312.32q-13.664 0-22.448-8.784t-8.784-22.448zm3.904-93.696q11.712-80.52 72.224-133.712 61-53.68 142.496-53.68t142.496 53.68q60.512 53.192 72.224 133.712h-62.464q-9.272-54.656-52.704-89.792-42.944-35.136-99.552-35.136T400.16 472.96q-43.432 35.136-52.704 89.792h-62.464zm58.56 218.624q0-13.664 8.784-22.448t22.448-8.784H624.64q13.664 0 22.448 8.784t8.784 22.448-8.784 22.448-22.448 8.784H374.784q-13.664 0-22.448-8.784t-8.784-22.448zM468.48 281.664V219.2q0-13.664 8.784-22.448t22.448-8.784 22.448 8.784 8.784 22.448v62.464q0 13.664-8.784 22.448t-22.448 8.784-22.448-8.784-8.784-22.448zM698.816 394.88q-10.736-10.736-10.736-21.472t10.736-21.472l42.944-44.896q11.712-10.736 22.936-10.736t21.96 10.736T797.392 329t-10.736 22.936L741.76 394.88q-10.736 10.736-21.472 10.736z"/></symbol><symbol viewBox="0 0 1000 1000" id="temperature" xmlns="http://www.w3.org/2000/svg"><path d="M374.784 812.608q0-72.224 62.464-107.36V131.36q0-28.792 18.544-48.8 18.056-19.52 43.92-19.52t43.92 19.52q18.544 20.008 18.544 48.8v573.888q62.464 35.136 62.464 107.36 0 50.752-37.088 87.84t-88.816 37.088q-52.216 0-87.84-37.088-36.112-37.576-36.112-87.84z"/></symbol><symbol viewBox="0 0 1000 1000" id="wind" xmlns="http://www.w3.org/2000/svg"><path d="M122.976 656.448q0-13.664 11.712-22.448t29.28-8.784H653.92q39.04 0 66.368 27.328t27.328 66.368-27.328 66.368-66.368 27.328-66.368-27.328-27.328-66.368q0-15.616 5.856-31.232H163.968q-17.568 0-29.28-8.784t-11.712-22.448zm0-124.928q0-13.664 8.784-22.448t22.448-8.784h599.264q-5.856-15.128-5.856-31.232 0-39.04 27.328-66.368t66.368-27.328 66.368 27.328 27.328 66.368-27.328 66.368-66.368 27.328H154.208q-13.664 0-22.448-8.784t-8.784-22.448zm0-124.928q0-13.664 8.784-22.448t22.448-8.784h286.944q-5.856-15.616-5.856-31.232 0-39.04 27.328-66.368t66.368-27.328 66.368 27.328 27.328 66.368-27.328 66.368-66.368 27.328H154.208q-13.664 0-22.448-8.784t-8.784-22.448z"/></symbol><symbol viewBox="0 0 1000 1000" id="windy" xmlns="http://www.w3.org/2000/svg"><path d="M0 718.912q0-13.664 8.784-22.448t22.448-8.784h249.856q13.664 0 22.448 8.784t8.784 22.448-8.784 22.448-22.448 8.784H31.232q-13.664 0-22.448-8.784T0 718.912zm0-124.928q0-13.664 8.784-22.448t22.448-8.784H156.16q13.664 0 22.448 8.784t8.784 22.448-8.784 22.448-22.448 8.784H31.232q-13.664 0-22.448-8.784T0 593.984zm62.464-124.928q0-13.664 8.784-22.448t22.448-8.784h124.928q13.664 0 22.448 8.784t8.784 22.448-8.784 22.448-22.448 8.784H93.696q-13.664 0-22.448-8.784t-8.784-22.448zm208.864 50.752q0-78.08 53.68-134.688 53.68-57.096 131.76-60.512 74.176-76.128 178.608-76.128t178.608 76.128q78.08 3.416 131.76 60.512 53.68 56.608 53.68 134.688 0 80.032-56.608 136.64t-138.592 56.608q-17.568 0-33.184-1.952-62.464 40.992-135.664 40.992t-135.664-40.992q-15.616 1.952-35.136 1.952-80.032 0-136.64-56.608t-56.608-136.64zm62.464 0q0 54.656 38.064 92.72t92.72 38.064q26.352 0 46.848-7.808 55.144 46.848 123.952 46.848 69.296 0 122-46.848 22.936 7.808 46.848 7.808 54.656 0 93.696-38.064t39.04-92.72-39.04-93.696-93.696-39.04q-9.272 0-17.568 1.952-56.12-78.08-151.28-78.08t-151.28 78.08q-8.296-1.952-19.52-1.952-54.656 0-92.72 39.04t-38.064 93.696z"/></symbol><symbol viewBox="0 0 1000 1000" id="windy-inv" xmlns="http://www.w3.org/2000/svg"><path d="M0 718.912q0-13.664 8.784-22.448t22.448-8.784h249.856q13.664 0 22.448 8.784t8.784 22.448-8.784 22.448-22.448 8.784H31.232q-13.664 0-22.448-8.784T0 718.912zm0-124.928q0-13.664 8.784-22.448t22.448-8.784H156.16q13.664 0 22.448 8.784t8.784 22.448-8.784 22.448-22.448 8.784H31.232q-13.664 0-22.448-8.784T0 593.984zm62.464-124.928q0-13.664 8.784-22.448t22.448-8.784h124.928q13.664 0 22.448 8.784t8.784 22.448-8.784 22.448-22.448 8.784H93.696q-13.664 0-22.448-8.784t-8.784-22.448zm208.864 50.752q0-78.08 53.68-134.688 53.68-57.096 131.76-60.512 74.176-76.128 178.608-76.128t178.608 76.128q78.08 3.416 131.76 60.512 53.68 56.608 53.68 134.688 0 80.032-56.608 136.64t-138.592 56.608q-17.568 0-33.184-1.952-62.464 40.992-135.664 40.992t-135.664-40.992q-15.616 1.952-35.136 1.952-80.032 0-136.64-56.608t-56.608-136.64z"/></symbol><symbol viewBox="0 0 1000 1000" id="windy-rain" xmlns="http://www.w3.org/2000/svg"><path d="M0 532.496q0-12.688 8.784-21.472t22.448-8.784h249.856q13.664 0 22.448 8.784t8.784 21.472q0 13.176-9.028 22.692t-22.204 9.516H31.232q-13.176 0-22.204-9.516T0 532.496zm0-124.928q0-12.688 8.784-21.472t22.448-8.784H156.16q13.664 0 22.448 8.784t8.784 21.472q0 13.176-9.028 22.692t-22.204 9.516H31.232q-13.176 0-22.204-9.516T0 407.568zM62.464 282.64q0-12.688 8.784-21.472t22.448-8.784h124.928q13.664 0 22.448 8.784t8.784 21.472q0 13.176-9.028 22.692t-22.204 9.516H93.696q-13.176 0-22.204-9.516t-9.028-22.692zm208.864 49.776q0-77.592 53.68-133.712t131.76-59.536Q530.944 63.04 635.376 63.04t178.608 76.128q78.08 3.416 131.76 59.536t53.68 133.712q0 81.984-56.608 138.592t-138.592 56.608q-17.568 0-33.184-1.952-62.464 39.04-135.664 39.04t-135.664-39.04q-15.616 1.952-35.136 1.952-80.032 0-136.64-56.608t-56.608-138.592zm62.464 0q0 54.656 38.064 93.696t92.72 39.04q26.352 0 46.848-7.808 55.144 44.896 123.952 44.896t122-44.896q22.936 7.808 46.848 7.808 54.656 0 93.696-39.04t39.04-93.696-39.04-92.72-93.696-38.064h-17.568q-56.608-76.128-151.28-76.128t-151.28 76.128h-19.52q-54.656 0-92.72 38.064t-38.064 92.72zm103.456 417.728q0-34.648 62.464-124.928l15.616 23.424q17.568 26.84 31.232 54.656 15.616 32.208 15.616 46.848 0 25.376-18.544 43.92t-43.92 18.544-43.92-18.544-18.544-43.92zm249.856 124.928q0-34.648 62.464-124.928l15.616 23.424q17.568 26.84 31.232 54.656 15.616 32.208 15.616 46.848 0 25.376-18.544 43.92t-43.92 18.544-43.92-18.544-18.544-43.92z"/></symbol><symbol viewBox="0 0 1000 1000" id="windy-rain-inv" xmlns="http://www.w3.org/2000/svg"><path d="M0 532.496q0-12.688 8.784-21.472t22.448-8.784h249.856q13.664 0 22.448 8.784t8.784 21.472q0 13.176-9.028 22.692t-22.204 9.516H31.232q-13.176 0-22.204-9.516T0 532.496zm0-124.928q0-12.688 8.784-21.472t22.448-8.784H156.16q13.664 0 22.448 8.784t8.784 21.472q0 13.176-9.028 22.692t-22.204 9.516H31.232q-13.176 0-22.204-9.516T0 407.568zM62.464 282.64q0-12.688 8.784-21.472t22.448-8.784h124.928q13.664 0 22.448 8.784t8.784 21.472q0 13.176-9.028 22.692t-22.204 9.516H93.696q-13.176 0-22.204-9.516t-9.028-22.692zm208.864 49.776q0-77.592 53.68-133.712t131.76-59.536Q530.944 63.04 635.376 63.04t178.608 76.128q78.08 3.416 131.76 59.536t53.68 133.712q0 81.984-56.608 138.592t-138.592 56.608q-17.568 0-33.184-1.952-62.464 39.04-135.664 39.04t-135.664-39.04q-15.616 1.952-35.136 1.952-80.032 0-136.64-56.608t-56.608-138.592zm165.92 417.728q0-34.648 62.464-124.928l15.616 23.424q17.568 26.84 31.232 54.656 15.616 32.208 15.616 46.848 0 25.376-18.544 43.92t-43.92 18.544-43.92-18.544-18.544-43.92zm249.856 124.928q0-34.648 62.464-124.928l15.616 23.424q17.568 26.84 31.232 54.656 15.616 32.208 15.616 46.848 0 25.376-18.544 43.92t-43.92 18.544-43.92-18.544-18.544-43.92z"/></symbol></svg>