<?xml version="1.0" encoding="UTF-8"?><svg xmlns="http://www.w3.org/2000/svg" xmlns:xlink="http://www.w3.org/1999/xlink"><symbol viewBox="0 0 38 18" id="activity" xmlns="http://www.w3.org/2000/svg"><title>activity</title><g fill="none" fill-rule="evenodd"><path d="M15 18a2 2 0 0 1-1.788-1.1l-3.6-7.183-2.047 2.551A2 2 0 0 1 6 13.013H2a1.994 1.994 0 1 1 0-3.988h3.039l3.4-4.237a2 2 0 0 1 3.351.354l2.7 5.386 2.588-9.03a2 2 0 0 1 3.75-.262l3.473 7.79H27a1.994 1.994 0 1 1 0 3.988h-4a2 2 0 0 1-1.827-1.184L19.41 7.874l-2.487 8.678a2 2 0 0 1-1.737 1.437C15.123 18 15.061 18 15 18z" fill="#FF6E6E"/><path d="M32 17a6 6 0 1 1 0-12 6 6 0 0 1 0 12zm0-8.717a2.72 2.72 0 1 0 .016 5.44A2.72 2.72 0 0 0 32 8.283z" fill="#0C0058"/></g></symbol><symbol viewBox="0 0 30 18" id="angle-bottom" xmlns="http://www.w3.org/2000/svg"><title>angle-bottom</title><g fill="none" fill-rule="evenodd"><path fill="#FF6E6E" d="M0 3l15 15L30 3l-3-3-12 12L3 0z"/><path d="M8.5 5.5l-3 3L0 3l3-3 5.5 5.5zm13 0L27 0l3 3-5.5 5.5-3-3z" fill="#0C0058"/></g></symbol><symbol viewBox="0 0 18 30" id="angle-left" xmlns="http://www.w3.org/2000/svg"><title>angle-left</title><g fill="none" fill-rule="evenodd"><path fill="#FF6E6E" d="M15 0L0 15l15 15 3-3L6 15 18 3z"/><path d="M12.5 8.5l-3-3L15 0l3 3-5.5 5.5zm0 13L18 27l-3 3-5.5-5.5 3-3z" fill="#0C0058"/></g></symbol><symbol viewBox="0 0 18 30" id="angle-right" xmlns="http://www.w3.org/2000/svg"><title>angle-right</title><g fill="none" fill-rule="evenodd"><path fill="#FF6E6E" d="M3 0l15 15L3 30l-3-3 12-12L0 3z"/><path d="M5.5 8.5l3-3L3 0 0 3l5.5 5.5zm0 13L0 27l3 3 5.5-5.5-3-3z" fill="#0C0058"/></g></symbol><symbol viewBox="0 0 30 18" id="angle-top" xmlns="http://www.w3.org/2000/svg"><title>angle-top</title><g fill="none" fill-rule="evenodd"><path fill="#FF6E6E" d="M0 15L15 0l15 15-3 3L15 6 3 18z"/><path d="M8.5 12.5l-3-3L0 15l3 3 5.5-5.5zm13 0L27 18l3-3-5.5-5.5-3 3z" fill="#0C0058"/></g></symbol><symbol viewBox="0 0 20 28" id="arrow-bottom" xmlns="http://www.w3.org/2000/svg"><title>arrow-bottom</title><g fill="none" fill-rule="evenodd"><path fill="#FF6E6E" d="M12 0v20l5-5 3 3-10 10L0 18l3-3 5 5V0z"/><path fill="#0C0058" d="M8 8h4V0H8z"/></g></symbol><symbol viewBox="0 0 28 20" id="arrow-left" xmlns="http://www.w3.org/2000/svg"><title>arrow-left</title><g fill="none" fill-rule="evenodd"><path fill="#FF6E6E" d="M28 12H8l5 5-3 3L0 10 10 0l3 3-5 5h20z"/><path fill="#0C0058" d="M20 8v4h8V8z"/></g></symbol><symbol viewBox="0 0 28 20" id="arrow-right" xmlns="http://www.w3.org/2000/svg"><title>arrow-right</title><g fill="none" fill-rule="evenodd"><path fill="#FF6E6E" d="M0 12h20l-5 5 3 3 10-10L18 0l-3 3 5 5H0z"/><path fill="#0C0058" d="M8 8v4H0V8z"/></g></symbol><symbol viewBox="0 0 20 28" id="arrow-top" xmlns="http://www.w3.org/2000/svg"><title>arrow-top</title><g fill="none" fill-rule="evenodd"><path fill="#FF6E6E" d="M12 28V8l5 5 3-3L10 0 0 10l3 3 5-5v20z"/><path fill="#0C0058" fill-rule="nonzero" d="M8 20h4v8H8z"/></g></symbol><symbol viewBox="0 0 28 38" id="badge" xmlns="http://www.w3.org/2000/svg"><title>badge</title><g fill="none" fill-rule="evenodd"><path fill="#FF6E6E" d="M7.012 24v14L14 31l6.988 7V24z"/><circle fill="#0C0058" fill-rule="nonzero" cx="14" cy="14" r="14"/><circle fill="#FF6E6E" cx="14" cy="14" r="6"/></g></symbol><symbol viewBox="0 0 28 35" id="bag" xmlns="http://www.w3.org/2000/svg"><title>bag</title><g fill="none" fill-rule="evenodd"><path fill="#FF6E6E" d="M3.394 9h21.212L28 35H0z"/><path d="M0 35l.522-4h26.956L28 35H0zM18 8c0-1.516-.737-5-4-5s-4 3.484-4 5v1H7l.01-2.951C7.01 3.017 10.053 0 14 0s6.99 3.017 6.99 6.049L21 9h-3V8z" fill="#0C0058"/><path d="M7 9l.009 2h3V9H7zm10.989 0v1.989h3L21 9H17.989z" fill="#FAFAFA"/></g></symbol><symbol viewBox="0 0 37 18" id="battery" xmlns="http://www.w3.org/2000/svg"><title>battery</title><g fill="none" fill-rule="evenodd"><path fill="#FF6E6E" fill-rule="nonzero" d="M0 0h34v18H0z"/><path d="M34 4h3v10h-3V4zM17 3l-5 6 4 1-4 5 11-6-6-1 6-5h-6z" fill="#0C0058"/></g></symbol><symbol viewBox="0 0 16 38" id="bottle" xmlns="http://www.w3.org/2000/svg"><title>bottle</title><g fill="none" fill-rule="evenodd"><path d="M4 3V0h8v3H4zM0 38V20.187c0-10.6 8-10.179 8-10.179s8-.57 8 10.179V38H0z" fill="#FF6E6E"/><path d="M5 11V3h6v8H5zm4 9h7v12H9V20z" fill="#0C0058"/></g></symbol><symbol viewBox="0 0 46 33" id="box" xmlns="http://www.w3.org/2000/svg"><title>box</title><g fill="none" fill-rule="evenodd"><path fill="#FF6E6E" fill-rule="nonzero" d="M7 9h32v24H7z"/><path d="M39 9H25l7-9h14l-7 9zM0 0h14l7 9H7L0 0zm39 33H7v-2h32v2z" fill="#0C0058"/></g></symbol><symbol viewBox="0 0 36 28" id="briefcase" xmlns="http://www.w3.org/2000/svg"><title>briefcase</title><g fill-rule="nonzero" fill="none"><path d="M1 10h34v18H1V10zm11-6h3V3h6v1h3V0H12v4z" fill="#FF6E6E"/><path d="M0 9V4h36v5c-.017 9.1-36 10.672-36 0z" fill="#0C0058"/><circle fill="#FFF" cx="18" cy="16" r="5"/><circle fill="#0C0058" cx="18" cy="16" r="2"/></g></symbol><symbol viewBox="0 0 33 35" id="building" xmlns="http://www.w3.org/2000/svg"><title>building</title><g fill="none" fill-rule="evenodd"><path fill="#FF6E6E" d="M33 35H0V0h17v10.99h16z"/><path d="M27.012 32v-2.99h3V32h-3zm0-8.01h3v3.018h-3V23.99zm0-4.992h3v2.989h-3v-2.989zm0-4.993h3V17h-3v-2.995zm-5 15.005h3V32h-3v-2.99zm0-5.021h3v3.018h-3v-3.018zm0-4.992h3v2.989h-3V18.997zm0-4.993h3V17h-3v-2.996zM17 11h2v24h-2V11zM3.994 30h9.012v2.015H3.994V30zm0-5h9.012v2.015H3.994v-2.021V25zm0-5h9.012v2.015H3.994v-2.023V20zm0-5h9.012v2.015H3.994v-2.024V15zm0-5h9.012v2H3.994V9.989 10zm0-5h9.012v2H3.994V4.987 5z" fill="#0C0058"/></g></symbol><symbol viewBox="0 0 26 36" id="bulb" xmlns="http://www.w3.org/2000/svg"><title>bulb</title><g transform="translate(-1 -1)" fill-rule="nonzero" fill="none"><path fill="#0C0058" d="M9 32h10v5H9z"/><path d="M21 25c-1.917 1.186-2 3.742-2 6v1H9v-1c0-2.258-.118-4.874-2-6a13.355 13.355 0 0 1-6-11.308C1.086 6.598 6.906.916 14 1c7.094-.084 12.914 5.598 13 12.692A13.355 13.355 0 0 1 21 25z" fill="#FF6E6E"/><path d="M16 22.633V32h-4v-9.367A5.982 5.982 0 0 1 8 17h3.6a2.4 2.4 0 1 0 4.8 0H20a5.982 5.982 0 0 1-4 5.633z" fill="#FFF"/></g></symbol><symbol viewBox="0 0 35 33" id="bullhorn" xmlns="http://www.w3.org/2000/svg"><title>bullhorn</title><g fill="none" fill-rule="evenodd"><path d="M4.248 24.648l1.359 7.366L11.945 32 10 24l-5.752.648zM11 24L8 14 26.518 0 33 27l-22-3z" fill="#FF6E6E"/><path d="M14 9l7-5 5 22-8-1-4-16zM1 22c-.633-2.541.638-5.319 3-6l4-2 3 10-4 1c-2.362.681-5.367-.458-6-3zm29.82-4.083L28.5 8.255c.484-.162.99-.248 1.5-.255a4.992 4.992 0 0 1 .82 9.917z" fill="#0C0058"/></g></symbol><symbol viewBox="0 0 27 38" id="calculator" xmlns="http://www.w3.org/2000/svg"><title>calculator</title><g fill="none" fill-rule="evenodd"><path fill="#FF6E6E" d="M27 38H0V0h27z"/><path d="M4 4h19v7H4V4zm2.5 11a2.5 2.5 0 1 1 0 5 2.5 2.5 0 0 1 0-5zm7 0a2.5 2.5 0 1 1 0 5 2.5 2.5 0 0 1 0-5zm7 0a2.5 2.5 0 1 1 0 5 2.5 2.5 0 0 1 0-5zm-14 7a2.5 2.5 0 1 1 0 5 2.5 2.5 0 0 1 0-5zm7 0a2.5 2.5 0 1 1 0 5 2.5 2.5 0 0 1 0-5zm7 0a2.5 2.5 0 1 1 0 5 2.5 2.5 0 0 1 0-5zm-14 7a2.5 2.5 0 1 1 0 5 2.5 2.5 0 0 1 0-5zm7 0a2.5 2.5 0 1 1 0 5 2.5 2.5 0 0 1 0-5zm7 0a2.5 2.5 0 1 1 0 5 2.5 2.5 0 0 1 0-5z" fill="#0C0058"/></g></symbol><symbol viewBox="0 0 35 37" id="calendar" xmlns="http://www.w3.org/2000/svg"><title>calendar</title><g fill="none" fill-rule="evenodd"><path fill="#FF6E6E" d="M0 37V3.009h35V37z"/><path d="M3.007 13.013h4.984V18H3.007v-4.987zm7.991 0h5.014V18H11v-4.987h-.002zm7.99 0H24V18h-5.012v-4.987zm-15.981 8h4.984V26H3.007v-4.991.004zm7.991 0h5.014V26H11v-4.991l-.002.004zm7.99 0H24V26h-5.012v-4.991.004zM3.007 29h4.984v4.987H3.007V29zM11 29h5.014v4.987H11V29zm7.99 0H24v4.987h-5.012V29h.002zm8.021-15.991h4.983V18h-4.985v-4.987l.002-.004zm0 8h4.983V26h-4.985v-4.991h.002zm0 8h4.983v4.987h-4.985V29l.002.009zM0 3h35v7H0V3z" fill="#0C0058"/><path d="M8 0h4v6H8V0zm15 0h4v6h-4V0z" fill="#FF6E6E"/></g></symbol><symbol viewBox="0 0 36 26" id="camera" xmlns="http://www.w3.org/2000/svg"><title>camera</title><g fill="none" fill-rule="evenodd"><path fill="#FF6E6E" fill-rule="nonzero" d="M0 4h36v22H0z"/><path d="M18 8a7 7 0 1 1 0 14 7 7 0 0 1 0-14zm0 4a3 3 0 1 1 0 6 3 3 0 0 1 0-6zm11.5-4a1.5 1.5 0 1 1 0 3 1.5 1.5 0 0 1 0-3zM4 4l4-4h6l4 4H4z" fill="#0C0058"/></g></symbol><symbol viewBox="0 0 32 22" id="card" xmlns="http://www.w3.org/2000/svg"><title>card</title><g fill-rule="nonzero" fill="none"><rect fill="#FF6E6E" width="32" height="22" rx="3"/><path fill="#0C0058" d="M0 6h32v5H0z"/></g></symbol><symbol viewBox="0 0 40 36" id="cart" xmlns="http://www.w3.org/2000/svg"><title>cart</title><g fill="none" fill-rule="evenodd"><path d="M10.58 29.043a3.479 3.479 0 1 1-3.527 3.479 3.5 3.5 0 0 1 3.527-3.479zm11.771 0a3.479 3.479 0 1 1-3.542 3.479 3.511 3.511 0 0 1 3.542-3.479zM40 6H10L5 0H0l14 20h12l-2 3H9l-4 4h21L40 6z" fill="#FF6E6E"/><path d="M12 10h20l-2 2H14l-2-2zm3 4h13l-2 2h-9l-2-2z" fill="#0C0058"/></g></symbol><symbol viewBox="0 0 34 36" id="chat" xmlns="http://www.w3.org/2000/svg"><title>chat</title><g fill="none" fill-rule="evenodd"><path d="M17 31.765A18.556 18.556 0 0 1 6.924 29.1L0 36V15.882l.012.006C.011 15.791 0 15.7 0 15.6 0 6.369 6.247 0 17 0s17 6.652 17 15.882-6.247 15.883-17 15.883z" fill="#FF6E6E"/><path d="M24.994 12.99a3 3 0 1 1 0 6 3 3 0 0 1 0-6zM17 13a3 3 0 1 1 0 6 3 3 0 0 1 0-6zm-8 0a3 3 0 1 1 0 6 3 3 0 0 1 0-6z" fill="#0C0058"/></g></symbol><symbol viewBox="0 0 26 21" id="check" xmlns="http://www.w3.org/2000/svg"><title>check</title><g fill="none" fill-rule="evenodd"><path fill="#FF6E6E" d="M5 18l3 3L26 3l-3-3z"/><path fill="#0C0058" d="M11 18l-3 3-8-8 3-3z"/></g></symbol><symbol viewBox="0 0 36 36" id="clock" xmlns="http://www.w3.org/2000/svg"><title>clock</title><g fill-rule="nonzero" fill="none"><circle fill="#FF6E6E" cx="18" cy="18" r="18"/><circle fill="#0C0058" cx="18" cy="18" r="14"/><path fill="#FF6E6E" d="M15 10v11h9v-3h-6v-8z"/></g></symbol><symbol viewBox="0 0 21 21" id="close" xmlns="http://www.w3.org/2000/svg"><title>close</title><g fill="none" fill-rule="evenodd"><path fill="#FF6E6E" d="M21 18l-3 3-7.5-7.5L3 21l-3-3 7.5-7.5L0 3l3-3 7.5 7.5L18 0l3 3-7.5 7.5z"/><path d="M6 18l-3 3-3-3 3-3 3 3zM21 3l-3 3-3-3 3-3 3 3zm-6 15l3 3 3-3-3-3-3 3zM0 3l3 3 3-3-3-3-3 3z" fill="#0C0058"/></g></symbol><symbol viewBox="0 0 40 26" id="cloud" xmlns="http://www.w3.org/2000/svg"><title>cloud</title><path d="M33.22 26H9.492A9.67 9.67 0 0 1 0 16.162C0 10.729 3.758 7 9 7a17.222 17.222 0 0 1 3 0c1.607-3.882 5.022-7 9.356-7C27.16 0 32 3.985 32 10c0 .411.043 1.6 0 2 .331-.05.669-.05 1 0a7.046 7.046 0 0 1 7 6.973A6.907 6.907 0 0 1 33.22 26z" fill="#FF6E6E" fill-rule="evenodd"/></symbol><symbol viewBox="0 0 40 26" id="cloud-tools" xmlns="http://www.w3.org/2000/svg"><title>cloud-tools</title><g transform="translate(-1)" fill="none" fill-rule="evenodd"><path d="M34.22 26H10.492A9.67 9.67 0 0 1 1 16.162C1 10.729 4.758 7 10 7a17.222 17.222 0 0 1 3 0c1.607-3.882 5.022-7 9.356-7C28.16 0 33 3.985 33 10c0 .411.043 1.6 0 2 .331-.05.669-.05 1 0a7.046 7.046 0 0 1 7 6.973A6.907 6.907 0 0 1 34.22 26z" fill="#FF6E6E"/><path d="M5.809 24.713l12.414-12.49L21.9 15.9 11.853 26h-1.361a9.183 9.183 0 0 1-4.683-1.287z" fill="#0C0058"/><path d="M29.427 8.171a7.041 7.041 0 0 1-1.443 7.754 6.869 6.869 0 0 1-6.426 1.862 7.573 7.573 0 0 1-5.387-6.655 6.981 6.981 0 0 1 2.008-5.1 6.885 6.885 0 0 1 7.683-1.456l-5.009 5.055 3.566 3.6 5.008-5.06z" fill="#FFF"/></g></symbol><symbol viewBox="0 0 36 36" id="cog" xmlns="http://www.w3.org/2000/svg"><title>cog</title><g fill="none" fill-rule="evenodd"><path d="M13.08 6.122L15 0h6l1.92 6.122h-9.84zM12.986 30l1.938 6h6.153l1.938-6H12.986zm16.892-16.92L36 15v6l-6.122 1.92v-9.84zM6 12.986l-6 1.938v6.153l6 1.938V12.986zm16.92-6.864l5.686-2.971 4.243 4.243-2.971 5.686-6.958-6.958zM5.967 22.942L3.1 28.553 7.447 32.9l5.611-2.87-7.091-7.088zm23.911-.022l2.971 5.686-4.243 4.243-5.686-2.971 6.958-6.958zM13.058 5.967L7.447 3.1 3.1 7.447l2.87 5.611 7.088-7.091z" fill="#FF6E6E"/><path d="M18 31c-7.18 0-13-5.82-13-13S10.82 5 18 5s13 5.82 13 13-5.82 13-13 13zm0-17.875a4.875 4.875 0 1 0 0 9.75 4.875 4.875 0 0 0 0-9.75z" fill="#0C0058"/><path d="M18 25a7 7 0 1 1 0-14 7 7 0 0 1 0 14zm0-10a3 3 0 1 0 0 6 3 3 0 0 0 0-6z" fill="#FF6E6E"/></g></symbol><symbol viewBox="0 0 45 23" id="controller" xmlns="http://www.w3.org/2000/svg"><title>controller</title><g transform="translate(-1)" fill="none" fill-rule="evenodd"><path d="M34.55 23a10.459 10.459 0 0 1-10.307-8.842h-2.486A10.449 10.449 0 1 1 11.45 2h23.1c5.799 0 10.5 4.701 10.5 10.5S40.349 23 34.55 23z" fill="#FF6E6E"/><path d="M16 0h14v2H16V0zm0 14h-3v3h-3v-3H7v-3h3V8h3v3h3v3zm19-9a2 2 0 1 1 0 4 2 2 0 0 1 0-4zm0 10a2 2 0 1 1 0 4 2 2 0 0 1 0-4zm5-5a2 2 0 1 1 0 4 2 2 0 0 1 0-4zm-10 0a2 2 0 1 1 0 4 2 2 0 0 1 0-4z" fill="#0C0058"/></g></symbol><symbol viewBox="0 0 34 34" id="cookie" xmlns="http://www.w3.org/2000/svg"><title>cookie</title><g transform="translate(0 -1)" fill="none" fill-rule="evenodd"><path d="M34 22.6a17.976 17.976 0 0 1-29.265 7.655A18.08 18.08 0 0 1 12.095.996 5.373 5.373 0 0 0 13.779 3.1c.305.403.661.764 1.06 1.075-.424 1.105-1.643 4.895.9 6.37.534.958 1.616 1.66 3.613 1.7.02 1.381.325 3.629 1.969 4.624.925 1.482 2.811 2.365 6.6.751A5.55 5.55 0 0 0 30 21.228a3.282 3.282 0 0 0 4 1.372z" fill="#FF6E6E"/><path d="M6.5 19a1.5 1.5 0 1 1 0 3 1.5 1.5 0 0 1 0-3zm9 9a1.5 1.5 0 1 1 0 3 1.5 1.5 0 0 1 0-3zm0-10a1.5 1.5 0 1 1 0 3 1.5 1.5 0 0 1 0-3zm-6-10a1.5 1.5 0 1 1 0 3 1.5 1.5 0 0 1 0-3zm17 15a1.5 1.5 0 1 1 0 3 1.5 1.5 0 0 1 0-3z" fill="#0C0058"/></g></symbol><symbol viewBox="0 0 28 34" id="cup" xmlns="http://www.w3.org/2000/svg"><title>cup</title><g fill="none" fill-rule="evenodd"><path fill="#FF6E6E" d="M25 4l-3 30H6L3 4H0l5-4h18l5 4z"/><path d="M3 4h22l-.3 3H3.3L3 4zm11 10a4 4 0 1 1 0 8 4 4 0 0 1 0-8z" fill="#0C0058"/></g></symbol><symbol viewBox="0 0 38 34" id="desktop" xmlns="http://www.w3.org/2000/svg"><title>desktop</title><g fill-rule="nonzero" fill="none"><path d="M38 27H0V0h38v27zm-12 7H12v-2h14v2z" fill="#FF6E6E"/><path d="M3 24V3h32v21H3zm11 3h10v3l2 2H12l2-2v-3z" fill="#0C0058"/></g></symbol><symbol viewBox="0 0 26 34" id="doc" xmlns="http://www.w3.org/2000/svg"><title>doc</title><g fill="none" fill-rule="evenodd"><path fill="#FF6E6E" fill-rule="nonzero" d="M0 0h26v34H0z"/><path d="M5 0v11l3-3 3 3V0H5zm12 12h9v2h-9v-2zm0 6h9v2h-9v-2zm0 5h9v2h-9v-2z" fill="#0C0058"/><path d="M13.995 12.005v1.982h3.01v-1.982h-3.01zm0 6.01V20h3.01v-1.984h-3.01v-.001zm0 4.978v2.014h3.01v-2.014h-3.01z" fill="#FFF"/></g></symbol><symbol viewBox="0 0 38 28" id="envelope" xmlns="http://www.w3.org/2000/svg"><title>envelope</title><g fill="none" fill-rule="evenodd"><path fill="#FF6E6E" fill-rule="nonzero" d="M0 0h38v28H0z"/><path fill="#0C0058" d="M0 0h38L19 17z"/></g></symbol><symbol viewBox="0 0 32 30" id="equaliser" xmlns="http://www.w3.org/2000/svg"><title>equaliser</title><g fill="none" fill-rule="evenodd"><path d="M0 27v-4h32v4H0zm0-14h32v4H0v-4zM0 3h32v4H0V3z" fill="#FF6E6E"/><path d="M22 20a5 5 0 1 1 0-10 5 5 0 0 1 0 10zM11 10a5 5 0 1 1 0-10 5 5 0 0 1 0 10zm3 15a5 5 0 1 1-10 0 5 5 0 0 1 10 0z" fill="#0C0058"/><path d="M11 3a2 2 0 1 1 0 4 2 2 0 0 1 0-4zm11 10a2 2 0 1 1 0 4 2 2 0 0 1 0-4zM9 23a2 2 0 1 1 0 4 2 2 0 0 1 0-4z" fill="#FFF"/></g></symbol><symbol viewBox="0 0 39 28" id="export" xmlns="http://www.w3.org/2000/svg"><title>export</title><g fill="none" fill-rule="evenodd"><path fill="#FF6E6E" fill-rule="nonzero" d="M0 0h28v28H0z"/><path fill="#0C0058" d="M12 15h22l-3 3 2 2 6-6v-1l-6-6-2 2 3 3H12z"/></g></symbol><symbol viewBox="0 0 34 22" id="eye" xmlns="http://www.w3.org/2000/svg"><title>eye</title><g fill="none" fill-rule="evenodd"><path d="M17 0c11.267 0 17 11.5 17 11.5S28.267 22 17 22 0 11.5 0 11.5 5.733 0 17 0z" fill="#FF6E6E"/><circle fill="#0C0058" fill-rule="nonzero" cx="17" cy="11" r="6"/><circle fill="#FFF" fill-rule="nonzero" cx="17" cy="11" r="3"/></g></symbol><symbol viewBox="0 0 30 35" id="flag" xmlns="http://www.w3.org/2000/svg"><title>flag</title><g fill="none" fill-rule="evenodd"><path fill="#FF6E6E" d="M22 17l8 8H9v-5H4V2h14v7h12z"/><path d="M0 0h4v35H0V0zm17 20l-8 5v-5h8z" fill="#0C0058"/></g></symbol><symbol viewBox="0 0 24 34" id="flame" xmlns="http://www.w3.org/2000/svg"><title>flame</title><g transform="translate(-1)" fill="none" fill-rule="evenodd"><path d="M24.555 25.1A11.979 11.979 0 0 1 1 21.857a7.933 7.933 0 0 1 .485-2.924C2.643 11.595 9.785 11.063 5.8 0c0 0 6.65 1.727 8 12.143 0 0 4.919-.163 1.6-7.286A21.311 21.311 0 0 1 25 20c.027 1.71-.122 3.42-.445 5.1z" fill="#FF6E6E"/><path d="M20 26.5a7.5 7.5 0 0 1-14.975.484L5 27s-.075-3.272 0-4c.684-6.611 2.6-9.563 5-14 .067-2.639-1.115 7.273 5 10a8.188 8.188 0 0 1 5 7.5z" fill="#0C0058"/></g></symbol><symbol viewBox="0 0 29 34" id="flask" xmlns="http://www.w3.org/2000/svg"><title>flask</title><g fill="none" fill-rule="evenodd"><path fill="#FF6E6E" d="M0 34l11-22V0h7v12l11 22z"/><path fill="#0C0058" d="M11 0v3h7V0z"/></g></symbol><symbol viewBox="0 0 34 32" id="gem" xmlns="http://www.w3.org/2000/svg"><title>gem</title><g fill="none" fill-rule="evenodd"><path fill="#FF6E6E" d="M17 32L0 10 6 0h22l6 10z"/><path fill="#0C0058" d="M0 10L6 0h22l6 10z"/></g></symbol><symbol viewBox="0 0 33 37" id="gift" xmlns="http://www.w3.org/2000/svg"><title>gift</title><g fill="none" fill-rule="evenodd"><path d="M1 14h32v23H1V14zm3-9a4.939 4.939 0 0 1 4.875-5c1.866 0 2.2.489 4.125 2l4 3 4-3c1.711-1.621 2.259-2 4.125-2A4.939 4.939 0 0 1 30 5a4.939 4.939 0 0 1-4.875 5H8.875A4.939 4.939 0 0 1 4 5zm21 2a2 2 0 1 0 0-4 2.463 2.463 0 0 0-1.776 1.1L20 7h5zM10.776 4.1A2.463 2.463 0 0 0 9 3a2 2 0 1 0 0 4h5l-3.224-2.9z" fill="#FF6E6E"/><path fill="#0C0058" d="M8.875 10H32.99v4H19v23h-4V14H.99v-4z"/></g></symbol><symbol viewBox="0 0 44 34" id="graduation-cap" xmlns="http://www.w3.org/2000/svg"><title>graduation-cap</title><g fill="none" fill-rule="evenodd"><path d="M22 34L9 26V15h26v11l-13 8zM4 27a2.993 2.993 0 0 1-1-5.816V13l2 1v7.184A2.993 2.993 0 0 1 4 27z" fill="#0C0058"/><path fill="#FF6E6E" d="M22 .012l21.986 12.5L22 25.013.014 12.513z"/></g></symbol><symbol viewBox="0 0 36 30" id="graph-bar" xmlns="http://www.w3.org/2000/svg"><title>graph-bar</title><g fill-rule="nonzero" fill="none"><path fill="#0C0058" d="M0 26h36v4H0z"/><path d="M3 11h5v15H3V11zm8 5h5v10h-5V16zm8-9h5v19h-5V7zm8-7h5v26h-5V0z" fill="#FF6E6E"/></g></symbol><symbol viewBox="0 0 36 36" id="graph-pie" xmlns="http://www.w3.org/2000/svg"><title>graph-pie</title><g fill="none" fill-rule="evenodd"><path d="M18 18h18c-.32 9.671-8.233 18-17.981 18C8.067 36 0 27.933 0 17.981 0 8.233 8.329.32 18 0v18z" fill="#FF6E6E"/><path d="M20 0a17.773 17.773 0 0 1 16 16H20V0z" fill="#0C0058"/></g></symbol><symbol viewBox="0 0 41 29" id="graph-poly" xmlns="http://www.w3.org/2000/svg"><title>graph-poly</title><g transform="translate(0 -1)" fill="none" fill-rule="evenodd"><path d="M32.214 19.786a7 7 0 1 1-12.428 0l-5.02-5.02a6.925 6.925 0 0 1-5.612-.921L3 20l-3-3 6.477-6.477a7 7 0 1 1 11.947 1.9l4.363 4.363a6.965 6.965 0 0 1 6.428 0L38 8l3 3-8.786 8.786z" fill="#FF6E6E"/><path d="M13 5a3 3 0 1 1 0 6 3 3 0 0 1 0-6zm13 15a3 3 0 1 1 0 6 3 3 0 0 1 0-6z" fill="#0C0058"/></g></symbol><symbol viewBox="0 0 36 32" id="headphone" xmlns="http://www.w3.org/2000/svg"><title>headphone</title><g fill="none" fill-rule="evenodd"><path d="M4 13v3h3v-3H4zm25 0v3h3v-3h-3zM5 16h2v16H5a5 5 0 0 1-5-5v-6a5 5 0 0 1 5-5zm24 0h2a5 5 0 0 1 5 5v6a5 5 0 0 1-5 5h-2V16z" fill="#FF6E6E"/><path d="M29.789 13C28.552 6.817 23.755 2.2 18 2.2S7.448 6.817 6.211 13H4.03C5.425 5.574 11.134 0 18 0c6.866 0 12.575 5.573 13.97 13h-2.181zM7 16h3v16H7V16zm-7 4h3v8H0v-8zm26-4h3v16h-3V16zm7 4h3v8h-3v-8z" fill="#0C0058"/></g></symbol><symbol viewBox="0 0 34 32" id="heart" xmlns="http://www.w3.org/2000/svg"><title>heart</title><path d="M17 32S0 27.578 0 10.482C0 5.245 4.349 0 9.714 0A10.088 10.088 0 0 1 17 3.556 10.088 10.088 0 0 1 24.286 0C29.651 0 34 5.245 34 10.482 34 27.523 17 32 17 32z" fill="#FF6E6E" fill-rule="evenodd"/></symbol><symbol viewBox="0 0 38 35" id="home" xmlns="http://www.w3.org/2000/svg"><title>home</title><g fill="none" fill-rule="evenodd"><path fill="#FF6E6E" d="M0 19L19 0l19 19h-5v16H5V19z"/><path fill="#0C0058" d="M14 35V21h10v14z"/></g></symbol><symbol viewBox="0 0 38 34" id="hotel" xmlns="http://www.w3.org/2000/svg"><title>hotel</title><g fill="none" fill-rule="evenodd"><path d="M9 0l2 2h15l2-2H9zM7 21v13h24V21H7zM9 7h20v9H9V7z" fill="#FF6E6E"/><path d="M8 7L3 2h31l-5 5H8zm4 1h4v3.017h-4V8zm4 6.983h-4v-2.978h4V14.983zM17 8h4v3.017h-4V8zm4 6.983h-4v-2.978h4V14.983zM22 8h4v3.017h-4V8zm4 6.983h-4v-2.978h4V14.983zM32 22H6l-6-6h38l-6 6zm-8 5h-1v7h-8v-7h-1v-3h10v3z" fill="#0C0058"/></g></symbol><symbol viewBox="0 0 28 38" id="hourglass" xmlns="http://www.w3.org/2000/svg"><title>hourglass</title><g fill="none" fill-rule="evenodd"><path d="M25.79 30.83v4.177H28V38H0v-2.993h2.211V30.83S4.138 21.473 12 20v-2C4.137 16.527 2.211 7.17 2.211 7.17V2.993H0V0h28v2.993h-2.21V7.17S23.863 16.527 16 18v2c7.863 1.473 9.79 10.83 9.79 10.83z" fill="#FF6E6E"/><path d="M2.211 35v-3H25.79v3H2.211zm0-29V3H25.79v3H2.211z" fill="#0C0058"/></g></symbol><symbol viewBox="0 0 36 26" id="image" xmlns="http://www.w3.org/2000/svg"><title>image</title><g fill="none" fill-rule="evenodd"><path fill="#FF6E6E" fill-rule="nonzero" d="M0 0h36v26H0z"/><path d="M0 26l13-13 5 5L29 7l7 7v12H0zM18.5 6a2.5 2.5 0 1 1 0 5 2.5 2.5 0 0 1 0-5z" fill="#0C0058"/></g></symbol><symbol viewBox="0 0 39 28" id="import" xmlns="http://www.w3.org/2000/svg"><title>import</title><g fill="none" fill-rule="evenodd"><path fill="#FF6E6E" fill-rule="nonzero" d="M11 0h28v28H11z"/><path fill="#0C0058" d="M0 15h23l-3 3 2 2 6-6v-1l-6-6-2 2 3 3H0z"/></g></symbol><symbol viewBox="0 0 34 36" id="industry" xmlns="http://www.w3.org/2000/svg"><title>industry</title><g fill="none" fill-rule="evenodd"><path fill="#FF6E6E" d="M34 19v17H0V14h4V8l8-8v14h5v5h7.326l2.388-11.8h3.643L32.745 19z"/><path d="M27 34v-5h5v5h-5zm0-12h5v5h-5v-5zM19.188 6c-1-1.677 1.633-5.308 6.124-3.529a11.823 11.823 0 0 0 3.674 1.4V6a13.26 13.26 0 0 1-4.9-1.176A4.185 4.185 0 0 0 19.188 6zM10 31h5v5h-5v-5zm0-7h5v5h-5v-5zm0-7h5v5h-5v-5zM4 8l8-8v3l-8 8V8zm3 14H2v-5h5v5zm0 7H2v-5h5v5zm0 7H2v-5h5v5zm17-9h-5v-5h5v5zm0 7h-5v-5h5v5z" fill="#0C0058"/></g></symbol><symbol viewBox="0 0 38 19" id="infinity" xmlns="http://www.w3.org/2000/svg"><title>infinity</title><g fill="none" fill-rule="evenodd"><path d="M28.952 19a9.04 9.04 0 0 1-7.2-3.56L16.288 10l5.469-5.44A9.024 9.024 0 1 1 28.952 19zm-.1-14.4a5.56 5.56 0 0 0-4.4 2.136L21.112 10l3.342 3.264a5.559 5.559 0 0 0 4.4 2.136 5.4 5.4 0 1 0-.002-10.8z" fill="#0C0058"/><path d="M16.243 15.44a9 9 0 1 1 0-10.88L21.712 10l-5.469 5.44zm-2.7-8.7a5.56 5.56 0 0 0-4.4-2.136 5.4 5.4 0 1 0 0 10.8 5.559 5.559 0 0 0 4.4-2.136L16.888 10l-3.345-3.26z" fill="#FF6E6E"/></g></symbol><symbol viewBox="0 0 19 38" id="jar" xmlns="http://www.w3.org/2000/svg"><title>jar</title><g fill="none" fill-rule="evenodd"><path fill="#FF6E6E" d="M0 38V12l4-4V0h11v8l4 4v26z"/><path d="M3 0v5h13V0H3zm1 22v8h12v-8H4z" fill="#0C0058"/></g></symbol><symbol viewBox="0 0 46 30" id="laptop" xmlns="http://www.w3.org/2000/svg"><title>laptop</title><g fill="none" fill-rule="evenodd"><path fill="#FF6E6E" d="M42 26H4V0h38z"/><path d="M7 3h32v20H7V3zm39 27H0v-4h46v4z" fill="#0C0058"/></g></symbol><symbol viewBox="0 0 34 31" id="layers" xmlns="http://www.w3.org/2000/svg"><title>layers</title><g transform="translate(-1)" fill="none" fill-rule="evenodd"><path fill="#FF6E6E" d="M18 11.6l17.013 9.7L18 30.99.987 21.29z"/><path fill="#0C0058" d="M18 5.8l17.013 9.7L18 25.2.987 15.5z"/><path fill="#FF6E6E" d="M18 .01l17.013 9.7L18 19.4.987 9.7z"/></g></symbol><symbol viewBox="0 0 26 36" id="lock" xmlns="http://www.w3.org/2000/svg"><title>lock</title><g fill="none" fill-rule="evenodd"><path fill="#FF6E6E" fill-rule="nonzero" d="M0 13h26v23H0z"/><path d="M20 13v-3a7.213 7.213 0 0 0-7-7c-3.584 0-7 3.863-7 7v3H3v-3A10.068 10.068 0 0 1 13 0c6.188 0 10 5.656 10 10v3h-3zM0 34h26v2H0v-2zm13-15a4 4 0 1 1 0 8 4 4 0 0 1 0-8zm-2 4h4v8h-4v-8z" fill="#0C0058"/></g></symbol><symbol viewBox="0 0 28 36" id="map-marker" xmlns="http://www.w3.org/2000/svg"><title>map-marker</title><g fill="none" fill-rule="evenodd"><path d="M14 0c7.732 0 14 5.641 14 12.6C28 23.963 14 36 14 36S0 24.064 0 12.6C0 5.641 6.268 0 14 0z" fill="#FF6E6E"/><circle fill="#0C0058" fill-rule="nonzero" cx="14" cy="14" r="7"/></g></symbol><symbol viewBox="0 0 30 24" id="menu" xmlns="http://www.w3.org/2000/svg"><title>menu</title><g fill="none" fill-rule="evenodd"><path d="M0 0h30v4H0V0zm0 10h30v4H0v-4zm0 10h30v4H0v-4z" fill="#FF6E6E"/><path d="M0 0h4v4H0V0zm0 10h4v4H0v-4zm0 10h4v4H0v-4zM26 0h4v4h-4V0zm0 10h4v4h-4v-4zm0 10h4v4h-4v-4z" fill="#0C0058"/></g></symbol><symbol viewBox="0 0 40 35" id="message" xmlns="http://www.w3.org/2000/svg"><title>message</title><g fill="none" fill-rule="evenodd"><path fill="#FF6E6E" d="M0 0v35l7-7h33V0z"/><path d="M6 8h27v4H6V8zm0 8h16v4H6v-4z" fill="#0C0058"/></g></symbol><symbol viewBox="0 0 22 42" id="mobile" xmlns="http://www.w3.org/2000/svg"><title>mobile</title><g fill="none" fill-rule="evenodd"><path fill="#FF6E6E" fill-rule="nonzero" d="M0 0h22v42H0z"/><path d="M11 36a2 2 0 1 1 0 4 2 2 0 0 1 0-4zM3 4h16v30H3V4z" fill="#0C0058"/></g></symbol><symbol viewBox="0 0 35 35" id="moon" xmlns="http://www.w3.org/2000/svg"><title>moon</title><path d="M14.848 20.134A17.853 17.853 0 0 0 35 23.675 17.849 17.849 0 1 1 11.3 0a17.815 17.815 0 0 0 3.548 20.134z" fill="#FF6E6E" fill-rule="evenodd"/></symbol><symbol viewBox="0 0 29 29" id="move" xmlns="http://www.w3.org/2000/svg"><title>move</title><g fill="none" fill-rule="evenodd"><path fill="#FF6E6E" d="M24 20l-2-2 2-2h-8v8l2-2 2 2-5 5h-1l-5-5 2-2 2 2v-8H5l2 2-2 2-5-5v-1l5-5 2 2-2 2h8V5l-2 2-2-2 5-5h1l5 5-2 2-2-2v8h8l-2-2 2-2 5 5v1z"/><path fill="#0C0058" d="M9 13v3h4v4h3v-4h4v-3h-4V9h-3v4z"/></g></symbol><symbol viewBox="0 0 36 36" id="newspaper" xmlns="http://www.w3.org/2000/svg"><title>newspaper</title><g fill="none" fill-rule="evenodd"><path fill="#FF6E6E" d="M30 33h3v3H0V0h30z"/><path d="M36 33a2.7 2.7 0 0 1-3 3c-2.787 0-3-3-3-3l.011-17H36v17zm-22-6.019h11V29H14v-2.019zm0-9.961h11V19H14v-1.981.001zM5 6h20v3H5V6zm6 13H5v-6h6v6zm0 10H5v-6h6v6zm10-14l-7-.019V13h7v2zm0 10l-7-.01V23h7v2z" fill="#0C0058"/></g></symbol><symbol viewBox="0 0 22 36" id="pen" xmlns="http://www.w3.org/2000/svg"><title>pen</title><g fill="none" fill-rule="evenodd"><path fill="#FF6E6E" d="M16.556 32H5.444L0 16 11 0l11 16z"/><path d="M2 36v-4h18v4H2zm9-22a2 2 0 1 1 0-4 2 2 0 0 1 0 4z" fill="#0C0058"/></g></symbol><symbol viewBox="0 0 36 36" id="pencil" xmlns="http://www.w3.org/2000/svg"><title>pencil</title><g transform="translate(-1 -1)" fill="none" fill-rule="evenodd"><path fill="#FF6E6E" d="M28.694.994l8.312 8.312L12.07 34.243 3.758 25.93z"/><path d="M28.694.994l8.312 8.312-4.156 4.156-8.312-8.312L28.694.994zM.987 37.013L3.758 25.93l8.312 8.312L.987 37.013z" fill="#0C0058"/></g></symbol><symbol viewBox="0 0 32 32" id="processor" xmlns="http://www.w3.org/2000/svg"><title>processor</title><g fill="none" fill-rule="evenodd"><path fill="#FF6E6E" fill-rule="nonzero" d="M4 4h24v24H4z"/><path d="M8 8h16v16H8V8zM0 8h4v3H0V8zm0 6h4v3H0v-3zm0 6h4v3H0v-3zM28 8h4v3h-4V8zm0 6h4v3h-4v-3zm0 6h4v3h-4v-3zM24 0v4h-3V0h3zm-6 0v4h-3V0h3zm-6 0v4H9V0h3zm11 28v4h-3v-4h3zm-6 0v4h-3v-4h3zm-6 0v4H8v-4h3z" fill="#0C0058"/></g></symbol><symbol viewBox="0 0 30 36" id="refresh" xmlns="http://www.w3.org/2000/svg"><title>refresh</title><g transform="translate(-1)" fill="none" fill-rule="evenodd"><path d="M7.518 17.936A8.576 8.576 0 0 0 16 26.606v2.334l-.944 4.286C7.073 32.631.923 25.941 1 17.936A14.953 14.953 0 0 1 13 3h2l.048 6.323a8.6 8.6 0 0 0-7.53 8.613z" fill="#0C0058"/><path d="M16 33.275c-.319 0-.63-.029-.944-.049L16 28.94v-2.334a8.672 8.672 0 0 0 0-17.34c-.317.001-.634.02-.949.058L15 7s-.658-4.4 1-4.4c8.376.094 15.091 6.96 15 15.336.093 8.378-6.622 15.245-15 15.339z" fill="#FF6E6E"/><path fill="#FF6E6E" d="M18.005 36V22L11 29z"/><path fill="#0C0058" d="M13.989 0v13l6.024-6.494z"/></g></symbol><symbol viewBox="0 0 40 40" id="rocket" xmlns="http://www.w3.org/2000/svg"><title>rocket</title><g transform="translate(0 -1)" fill="none" fill-rule="evenodd"><path d="M25.624 40.785l-4.243-11.313 7.778-7.778 2.075 8.735-5.61 10.356zM.168 15.329l10.357-5.611 8.735 2.075-7.778 7.778L.168 15.329zm1.456 16.662c1.92-4.929 5.24-2.274 5.24-2.274l2.222 2.217 2.2 2.193s2.627 3.28-2.295 5.213c-1.49.402-3.042.53-4.578.376-.815-.076-3.537 1.6-4.347 1.222-.39-.814 1.288-3.537 1.207-4.355a12.681 12.681 0 0 1 .351-4.592z" fill="#FF6E6E"/><path d="M6.7 21.537C25.323 3.122 39.983.986 39.983.986S37.823 15.484 19.2 33.9c0 0-4.841 5.327-11.38-1.14A8.244 8.244 0 0 1 6.7 21.537z" fill="#0C0058"/><path d="M23.646 17.336a4.454 4.454 0 1 1-6.346-.058 4.512 4.512 0 0 1 6.346.058z" fill="#FF6E6E"/></g></symbol><symbol viewBox="0 0 31 32" id="search" xmlns="http://www.w3.org/2000/svg"><title>search</title><g fill="none" fill-rule="evenodd"><path fill="#0C0058" d="M17.283 20.611l10.606 10.607 2.828-2.828-10.606-10.607z"/><path d="M12 24C5.373 24 0 18.627 0 12S5.373 0 12 0s12 5.373 12 12a12 12 0 0 1-12 12zm0-20a8 8 0 1 0 0 16 8 8 0 0 0 0-16z" fill="#FF6E6E"/></g></symbol><symbol viewBox="0 0 31 32" id="search-disabled" xmlns="http://www.w3.org/2000/svg"><title>search-disabled</title><g fill-rule="nonzero" fill="none"><path d="M17.283 20.611l10.606 10.607 2.828-2.828-10.606-10.607-2.828 2.828zm-2.454-4.368L12 13.414l-2.828 2.828-1.414-1.414L10.586 12 7.758 9.172l1.414-1.414L12 10.586l2.828-2.828 1.414 1.414L13.414 12l2.828 2.828-1.413 1.415z" fill="#0C0058"/><path d="M12 24C5.373 24 0 18.627 0 12S5.373 0 12 0s12 5.373 12 12a12 12 0 0 1-12 12zm0-20a8 8 0 1 0 0 16 8 8 0 0 0 0-16z" fill="#FF6E6E"/></g></symbol><symbol viewBox="0 0 26 35" id="server" xmlns="http://www.w3.org/2000/svg"><title>server</title><g fill="none" fill-rule="evenodd"><path d="M0 7h26v7H0V7zm0 14h26v7H0v-7z" fill="#FF6E6E"/><path d="M0 0h26v7H0V0zm0 14h26v7H0v-7zm0 14h26v7H0v-7z" fill="#0C0058"/><path d="M3.5 30a1.5 1.5 0 1 1 0 3 1.5 1.5 0 0 1 0-3zm0-7a1.5 1.5 0 1 1 0 3 1.5 1.5 0 0 1 0-3zm0-7a1.5 1.5 0 1 1 0 3 1.5 1.5 0 0 1 0-3zm0-7a1.5 1.5 0 1 1 0 3 1.5 1.5 0 0 1 0-3zm0-7a1.5 1.5 0 1 1 0 3 1.5 1.5 0 0 1 0-3z" fill="#FFF"/></g></symbol><symbol viewBox="0 0 30 36" id="share" xmlns="http://www.w3.org/2000/svg"><title>share</title><g fill-rule="nonzero" fill="none"><path d="M20.954 9.211L7.818 16.76l-2.066-2.57 13.137-7.549 2.065 2.57zm-.094 17.561L7.632 18.72l-2.081 2.808L18.78 29.58l2.08-2.808z" fill="#0C0058"/><path d="M6 12a6 6 0 1 1 0 12 6 6 0 0 1 0-12zM24 0a6 6 0 1 1 0 12 6 6 0 0 1 0-12zm0 24a6 6 0 1 1 0 12 6 6 0 0 1 0-12z" fill="#FF6E6E"/></g></symbol><symbol viewBox="0 0 29 34" id="shield" xmlns="http://www.w3.org/2000/svg"><title>shield</title><g transform="translate(-1)" fill="none" fill-rule="evenodd"><path d="M15.516 34C-.414 27.828 1.032 6.8 1.032 6.8 10.675 8.578 15.516 0 15.516 0s4.83 8.578 14.452 6.8c0 0 1.443 21.028-14.452 27.2z" fill="#FF6E6E"/><path fill="#0C0058" d="M8 18l5 5 10-10-2-2-8 8-3-3z"/></g></symbol><symbol viewBox="0 0 38 34" id="shop" xmlns="http://www.w3.org/2000/svg"><title>shop</title><g fill="none" fill-rule="evenodd"><path fill="#FF6E6E" d="M36 4v30H2V4H0V0h38v4z"/><path d="M33.5 11C29.2 11 29 6 29 6a5 5 0 0 1-10 0A5 5 0 0 1 9 6s-.2 5-4.5 5A4.5 4.5 0 0 1 0 6.5V4h38v2.5a4.5 4.5 0 0 1-4.5 4.5zM17.01 28.01h-9v-9.02h9v9.02zM29.993 34h-8V18.99h8V34z" fill="#0C0058"/></g></symbol><symbol viewBox="0 0 33 32" id="star" xmlns="http://www.w3.org/2000/svg"><title>star</title><path d="M26.865 31.83l-10.25-5.621-10.153 5.8 2.091-11.647-8.563-8.027 11.542-1.577L16.394 0l5.042 10.672L33 12.047l-8.426 8.173z" fill="#FF6E6E" fill-rule="evenodd"/></symbol><symbol viewBox="0 0 34 34" id="sun" xmlns="http://www.w3.org/2000/svg"><title>sun</title><g fill="none" fill-rule="evenodd"><path fill="#FF6E6E" d="M29.021 4.979L29 12l5 5-5 5 .021 7.021L22 29l-5 5-5-5-7.021.021L5 22l-5-5 5-5-.021-7.021L12 5l5-5 5 5z"/><circle fill="#0C0058" fill-rule="nonzero" cx="17" cy="17" r="9"/></g></symbol><symbol viewBox="0 0 34 12" id="switch-off" xmlns="http://www.w3.org/2000/svg"><title>switch-off</title><g fill-rule="nonzero" fill="none"><path fill="#FF6E6E" d="M0 0h34v12H0z"/><path fill="#0C0058" d="M2 2h8v8H2z"/></g></symbol><symbol viewBox="0 0 34 12" id="switch-on" xmlns="http://www.w3.org/2000/svg"><title>switch-on</title><g fill-rule="nonzero" fill="none"><path fill="#FF6E6E" d="M0 0h34v12H0z"/><path fill="#0C0058" d="M24 2h8v8h-8z"/></g></symbol><symbol viewBox="0 0 28 42" id="tablet" xmlns="http://www.w3.org/2000/svg"><title>tablet</title><g fill="none" fill-rule="evenodd"><path fill="#FF6E6E" fill-rule="nonzero" d="M0 0h28v42H0z"/><path d="M14 36a2 2 0 1 1 0 4 2 2 0 0 1 0-4zM3 4h22v30H3V4z" fill="#0C0058"/></g></symbol><symbol viewBox="0 0 35 35" id="tag" xmlns="http://www.w3.org/2000/svg"><title>tag</title><g fill="none" fill-rule="evenodd"><path fill="#FF6E6E" d="M.008 19.205L19.215 0H35v15L16 35z"/><path d="M3.8 19.205l2.526-2.526 12 12-2.531 2.521L3.8 19.205zM24.951 5.629a3.126 3.126 0 1 1 4.422 4.42 3.126 3.126 0 0 1-4.422-4.42z" fill="#0C0058"/></g></symbol><symbol viewBox="0 0 36 34" id="tee" xmlns="http://www.w3.org/2000/svg"><title>tee</title><g fill="none" fill-rule="evenodd"><path fill="#FF6E6E" d="M31 15l-3-3v22H8V12l-3 3-5-5L8.952 0h18.1L36 10z"/><path d="M12 0h12a6 6 0 1 1-12 0zM8 32h20v2H8v-2z" fill="#0C0058"/></g></symbol><symbol viewBox="0 0 24 32" id="thunder" xmlns="http://www.w3.org/2000/svg"><title>thunder</title><g fill="none" fill-rule="evenodd"><path fill="#FF6E6E" d="M21 0H8.842L2 14h6L0 32l24-19h-9z"/><path fill="#0C0058" d="M16.421 19L0 32l5.778-13z"/></g></symbol><symbol viewBox="0 0 36 36" id="ticket" xmlns="http://www.w3.org/2000/svg"><title>ticket</title><g transform="translate(-1 -1)" fill="none" fill-rule="evenodd"><path d="M32.659 10.308l4.346 4.346-22.351 22.351-4.346-4.346a3.512 3.512 0 1 0-4.967-4.967L.995 23.346 23.346.995l4.346 4.346a3.512 3.512 0 1 0 4.967 4.967z" fill="#FF6E6E"/><path fill="#0C0058" d="M9.066 21.484L21.484 9.066l7.45 7.451-12.417 12.417z"/></g></symbol><symbol viewBox="0 0 26 35" id="trash" xmlns="http://www.w3.org/2000/svg"><title>trash</title><g fill="none" fill-rule="evenodd"><path fill="#FF6E6E" fill-rule="nonzero" d="M2 9h22v26H2z"/><path d="M7.969 0h9.969L22 4H4l3.969-4zM0 4h26v5H0V4zm7 9h4v17H7V13zm8 0h4v17h-4V13z" fill="#0C0058"/></g></symbol><symbol viewBox="0 0 32 34" id="user" xmlns="http://www.w3.org/2000/svg"><title>user</title><g fill="none" fill-rule="evenodd"><path fill="#FF6E6E" d="M0 34l5.818-10.889 4.364-1.811 2.909-5.445h5.818l2.909 5.445 4.364 1.815L32 34z"/><path fill="#0C0058" d="M24 10l-1 3h-1l-1 3-4 3h-2l-4-3-1-3H9l-1-3h2L9 4l7-4 7 4-1 6z"/></g></symbol><symbol viewBox="0 0 40 27" id="van" xmlns="http://www.w3.org/2000/svg"><title>van</title><g fill="none" fill-rule="evenodd"><path fill="#FF6E6E" d="M0 0v22.012h25.994V0z"/><path fill="#000" fill-rule="nonzero" d="M25.994 6.014h8.326l5.68 6v10H25.994v-16z"/><circle fill="#000" fill-rule="nonzero" cx="8" cy="22" r="5"/><circle fill="#FF6E6E" cx="33" cy="22" r="5"/><path d="M8 20a2 2 0 1 1 0 4 2 2 0 0 1 0-4zm25 0a2 2 0 1 1 0 4 2 2 0 0 1 0-4zM32 9l4 4h-7V9h3z" fill="#FFF"/></g></symbol><symbol viewBox="0 0 38 23" id="vr" xmlns="http://www.w3.org/2000/svg"><title>vr</title><g fill="none" fill-rule="evenodd"><path fill="#0C0058" d="M14.035 14.992L14 20.006h10l-.039-5.014z"/><path d="M25 23l-2.945-5.685c-1.619-3.125-4.5-3.125-6.123 0L12.743 23H2V3h34v20H25z" fill="#FF6E6E"/><path d="M30.995 2.988L31 0H7l.005 2.988h23.99zM36 9h2v7h-2V9zM0 9h2v7H0V9zm10.5 1a2.5 2.5 0 1 1 0 5 2.5 2.5 0 0 1 0-5zm17 0a2.5 2.5 0 1 1 0 5 2.5 2.5 0 0 1 0-5z" fill="#0C0058"/></g></symbol><symbol viewBox="0 0 34 28" id="website" xmlns="http://www.w3.org/2000/svg"><title>website</title><g fill="none" fill-rule="evenodd"><path fill="#FF6E6E" fill-rule="nonzero" d="M0 0h34v28H0z"/><path d="M0 0h34v3H0V0zm4 7h26v5H4V7zm0 9h8v8H4v-8zm11 0h15v3H15v-3zm0 5h8v3h-8v-3z" fill="#0C0058"/></g></symbol><symbol viewBox="0 0 35 36" id="wrench" xmlns="http://www.w3.org/2000/svg"><title>wrench</title><g fill-rule="nonzero" fill="none"><path fill="#0C0058" d="M0 30l17-17 6 6L6 36z"/><path d="M16.206 18.763c-4.296-4.296-4.296-11.26 0-15.556A11.952 11.952 0 0 1 29 1l-8 8v5h5l8-7c1.84 3.997.94 8.72-2.238 11.763-4.296 4.296-11.26 4.296-15.556 0z" fill="#FF6E6E"/><circle fill="#FFF" cx="7" cy="29" r="2"/></g></symbol><symbol viewBox="0 0 31 32" id="zoom-in" xmlns="http://www.w3.org/2000/svg"><title>zoom-in</title><g fill="none" fill-rule="evenodd"><path d="M17.283 20.611l10.606 10.607 2.828-2.828-10.606-10.607-2.828 2.828zM17 13h-4v4h-2v-4H7v-2h4V7h2v4h4v2z" fill="#0C0058"/><path d="M12 24C5.373 24 0 18.627 0 12S5.373 0 12 0s12 5.373 12 12a12 12 0 0 1-12 12zm0-20a8 8 0 1 0 0 16 8 8 0 0 0 0-16z" fill="#FF6E6E"/></g></symbol><symbol viewBox="0 0 31 32" id="zoom-out" xmlns="http://www.w3.org/2000/svg"><title>zoom-out</title><g fill="none" fill-rule="evenodd"><path d="M17.283 20.611l10.606 10.607 2.828-2.828-10.606-10.607-2.828 2.828zM17 13H7v-2h10v2z" fill="#0C0058"/><path d="M12 24C5.373 24 0 18.627 0 12S5.373 0 12 0s12 5.373 12 12a12 12 0 0 1-12 12zm0-20a8 8 0 1 0 0 16 8 8 0 0 0 0-16z" fill="#FF6E6E"/></g></symbol></svg>