<?xml version="1.0" encoding="iso-8859-1"?><svg xmlns="http://www.w3.org/2000/svg" xmlns:xlink="http://www.w3.org/1999/xlink"><symbol viewBox="0 0 32.001 32.001" id="banknote" xmlns="http://www.w3.org/2000/svg"><g fill="#010002"><path d="M31.415 10.586l-10-10a2.002 2.002 0 0 0-3.326.822c-.453 1.469-1.236 2.746-2.395 3.904-1.548 1.547-3.564 2.719-5.697 3.958-2.264 1.312-4.603 2.672-6.52 4.588C1.848 15.489.739 17.303.089 19.409a2.002 2.002 0 0 0 .496 2.006l10 10a2.002 2.002 0 0 0 3.326-.824c.454-1.469 1.237-2.746 2.397-3.904 1.547-1.547 3.562-2.717 5.697-3.955 2.262-1.314 4.602-2.674 6.518-4.59 1.629-1.629 2.738-3.445 3.389-5.551a2.004 2.004 0 0 0-.497-2.005zM12 30L2 20c2.842-9.201 15.16-8.799 18-18l10.002 10C27.159 21.199 14.841 20.799 12 30z"/><path d="M19.562 14.9c-.326-.273-.654-.459-.984-.551a2.864 2.864 0 0 0-.988-.105 3.54 3.54 0 0 0-1 .229 13.73 13.73 0 0 0-1.014.438 56.818 56.818 0 0 0-1.611-1.793c.242-.219.477-.33.703-.338.227-.01.445.014.652.066.211.053.404.098.582.133a.538.538 0 0 0 .473-.119.664.664 0 0 0 .236-.482c.01-.197-.064-.389-.229-.576a1.293 1.293 0 0 0-.77-.443 2.377 2.377 0 0 0-.93.021c-.316.072-.617.191-.902.359s-.514.34-.684.508l-.195-.184a.376.376 0 0 0-.27-.1.35.35 0 0 0-.273.133.36.36 0 0 0-.092.285.36.36 0 0 0 .127.252c.065.055.13.109.195.166-.256.309-.467.65-.633 1.01a3.376 3.376 0 0 0-.305 1.066c-.039.35-.002.67.105.967.107.299.305.553.594.793.471.391 1.025.557 1.668.52.641-.039 1.332-.23 2.075-.629.59.682 1.182 1.359 1.773 1.988-.25.211-.469.332-.662.371a1.035 1.035 0 0 1-.521-.01 1.657 1.657 0 0 1-.434-.209 3.048 3.048 0 0 0-.395-.234c-.129-.064-.262-.1-.398-.102s-.281.064-.441.201c-.164.143-.246.309-.246.496 0 .186.086.375.254.566.17.191.391.352.658.479s.569.207.901.229a2.5 2.5 0 0 0 1.051-.164c.371-.135.738-.379 1.1-.742.174.17.35.332.525.488a.36.36 0 0 0 .273.088.363.363 0 0 0 .27-.141.386.386 0 0 0 .094-.293.341.341 0 0 0-.125-.244 13.1 13.1 0 0 1-.527-.445c.299-.367.539-.754.717-1.137.178-.385.283-.756.318-1.1a1.965 1.965 0 0 0-.119-.941c-.112-.287-.311-.533-.596-.77zm-5.591.678a.971.971 0 0 1-.746-.291.733.733 0 0 1-.195-.322 1.004 1.004 0 0 1-.039-.418c.014-.15.059-.307.137-.465.074-.158.184-.316.324-.469a35.667 35.667 0 0 1 1.52 1.629c-.384.211-.718.324-1.001.336zm4.717 2.002c-.09.166-.193.314-.314.443a40.863 40.863 0 0 1-1.68-1.826c.143-.064.293-.131.455-.199s.324-.113.486-.141c.166-.025.33-.018.494.021.162.041.316.129.459.268.141.141.23.287.266.445.039.16.041.322.014.488a1.612 1.612 0 0 1-.18.501zM14.717 22.18h-.002a17.95 17.95 0 0 0-1.8 1.553 14.612 14.612 0 0 0-1.461 1.699l-.684.934.002.002a.503.503 0 0 0 .066.627.504.504 0 0 0 .71 0 .47.47 0 0 0 .074-.1l.639-.875c.396-.541.854-1.074 1.361-1.58a15.86 15.86 0 0 1 1.714-1.475l-.002-.002c.018-.014.035-.025.051-.041a.5.5 0 0 0-.668-.742zM18.378 7.715c-.523.523-1.09.994-1.678 1.443a.506.506 0 0 0-.117.801c.191.193.5.197.699.014l.004.002c.625-.48 1.234-.988 1.799-1.553a14.693 14.693 0 0 0 1.461-1.697l.684-.938-.002-.002a.504.504 0 0 0-.738-.684.545.545 0 0 0-.088.123l-.664.91a13.514 13.514 0 0 1-1.36 1.581z"/></g></symbol><symbol viewBox="0 0 32 32" id="big-megaphone" xmlns="http://www.w3.org/2000/svg"><path d="M25 0c-2.053 0-3.666 1.41-4.824 3.586l-.021-.012C18.473 6.867 15.969 9 13.226 9H4c-2.243 0-4 2.197-4 5 0 2.805 1.757 5 4 5a2 2 0 0 1 1.995 2v9a2 2 0 0 0 2 2h4a2 2 0 0 0 2-2v-1c0-1-1-1.447-1-2v-7c0-.023.016-.039.018-.062a.992.992 0 0 1 .112-.395.675.675 0 0 1 .059-.088.989.989 0 0 1 .304-.293c.006-.004.008-.01.014-.014.004 0 .007-.004.011-.004.08-.045.176-.055.266-.08 2.524.268 4.809 2.305 6.377 5.373l.025-.012C21.34 26.594 22.949 28 25 28c4.596 0 7-7.043 7-14S29.596 0 25 0zm-5 14c0-1.037.061-2.039.164-3H23c1.104 0 2 1.344 2 3 0 1.658-.896 3-2 3h-2.836A28.105 28.105 0 0 1 20 14zM2 14c0-1.656.896-3 2-3H11.014c-.62.729-1.014 1.787-1.014 3 0 1.215.394 2.273 1.014 3H4c-1.104 0-2-1.342-2-3zm9.995 16h-4v-9a3.97 3.97 0 0 0-.537-2h.698v.012h3.008a3.023 3.023 0 0 0-.169.988v7c0 .963.538 1.604.859 1.986.044.053.096.107.141.166V30zm1.231-12.988H13V17c-1.104 0-2-1.342-2-3 0-1.656.896-3 2-3h.226c1.886 0 3.652-.742 5.206-2.018A28.918 28.918 0 0 0 18 14c0 1.709.146 3.42.434 5.031-1.555-1.277-3.322-2.019-5.208-2.019zM25 26c-2.018 0-3.75-2.871-4.541-7H23c2.242 0 4-2.195 4-5 0-2.803-1.758-5-4-5h-2.541C21.25 4.873 22.982 2 25 2c2.762 0 5 5.373 5 12s-2.238 12-5 12z" fill="#010002"/></symbol><symbol viewBox="0 0 31.999 31.999" id="big-star" xmlns="http://www.w3.org/2000/svg"><path d="M31.881 12.056a2.303 2.303 0 0 0-1.844-1.511l-8.326-1.238-3.619-7.514A2.318 2.318 0 0 0 16 .499c-.896 0-1.711.505-2.092 1.294l-3.619 7.514-8.327 1.238A2.3 2.3 0 0 0 .12 12.056a2.207 2.207 0 0 0 .537 2.285l6.102 6.092-1.415 8.451a2.224 2.224 0 0 0 .948 2.203 2.351 2.351 0 0 0 2.449.131L16 27.31l7.26 3.908a2.367 2.367 0 0 0 2.449-.131 2.225 2.225 0 0 0 .947-2.203l-1.416-8.451 6.104-6.092c.603-.603.81-1.485.537-2.285zm-8.293 6.806a2.216 2.216 0 0 0-.627 1.934l1.416 8.451-7.26-3.906a2.361 2.361 0 0 0-2.235 0l-7.26 3.906 1.416-8.451a2.212 2.212 0 0 0-.626-1.934L2.31 12.77l8.326-1.24a2.306 2.306 0 0 0 1.743-1.268L16 2.75l3.62 7.513a2.31 2.31 0 0 0 1.742 1.268l8.328 1.24-6.102 6.091z" fill="#010002"/></symbol><symbol viewBox="0 0 32 32" id="camera-video" xmlns="http://www.w3.org/2000/svg"><path d="M30 6h-.887c-.525 0-1.029.207-1.404.576L25 9.248V8a3 3 0 0 0-3-3H3C1.346 5 0 6.345 0 8v16a3 3 0 0 0 3 3h19c1.656 0 3-1.344 3-3v-1.221l2.709 2.672c.375.369.879.576 1.404.576H30a2 2 0 0 0 2-2V8a2 2 0 0 0-2-2zM3 25c-.552 0-1-.449-1-1V8a1 1 0 0 1 1-1h19c.551 0 1 .448 1 1v16c0 .551-.449 1-1 1H3zm27-.973h-1l-4-4V20l-1-1v-6l5-5h1v16.027z" fill="#010002"/></symbol><symbol viewBox="0 0 32 32" id="chemistry" xmlns="http://www.w3.org/2000/svg"><g fill="#010002"><path d="M20.682 3.732C20.209 3.26 19.583 3 18.914 3s-1.295.26-1.77.733l-1.41 1.412A2.482 2.482 0 0 0 15 6.914c0 .471.129.922.371 1.313L1.795 13.666a2.998 2.998 0 0 0-.908 4.876l12.72 12.58a2.982 2.982 0 0 0 2.045.877l.077.001a2.985 2.985 0 0 0 2.787-1.89l5.342-13.376c.402.265.875.407 1.367.407a2.48 2.48 0 0 0 1.768-.733L28.4 15c.477-.474.738-1.103.738-1.773s-.262-1.3-.732-1.768l-7.724-7.727zM16.66 29.367a1 1 0 0 1-1.638.341L2.294 17.12a.998.998 0 0 1 .307-1.623l6.217-2.49c4.189 1.393 8.379.051 12.57 4.522L16.66 29.367zM26.993 13.58l-1.414 1.413a.499.499 0 0 1-.707 0l-1.768-1.767-1.432 3.589.119-.303c-3.01-3.005-6.069-3.384-8.829-3.723-.887-.109-1.747-.223-2.592-.405l8.491-3.401-1.715-1.715a.5.5 0 0 1 0-.707l1.414-1.415a.5.5 0 0 1 .707 0l7.725 7.727a.498.498 0 0 1 .001.707z"/><path d="M16.5 21c1.378 0 2.5-1.121 2.5-2.5S17.879 16 16.5 16 14 17.121 14 18.5s1.122 2.5 2.5 2.5zm0-4a1.5 1.5 0 1 1-.001 3.001A1.5 1.5 0 0 1 16.5 17zM29.5 0C28.122 0 27 1.121 27 2.5S28.122 5 29.5 5 32 3.879 32 2.5 30.879 0 29.5 0zm0 4a1.501 1.501 0 0 1 0-3 1.501 1.501 0 0 1 0 3zM8 17c0 1.103.897 2 2 2s2-.897 2-2-.897-2-2-2-2 .897-2 2zm2-1a1 1 0 1 1 0 2 1 1 0 0 1 0-2z"/><circle cx="13" cy="23" r="1"/><circle cx="29" cy="8" r="1"/></g></symbol><symbol viewBox="0 0 32 32" id="coffee" xmlns="http://www.w3.org/2000/svg"><path d="M28.111 5.022l-1.215-3.655A1.996 1.996 0 0 0 25 0H7a2 2 0 0 0-1.898 1.367L3.877 5.024C2.833 5.091 2 5.939 2 7v3a2 2 0 0 0 2 2h1.034l-.021.221 2 18A2 2 0 0 0 9 32h14c1.02 0 1.875-.768 1.986-1.779l2-18-.021-.221H28a2 2 0 0 0 2-2V7c0-1.065-.84-1.917-1.889-1.978zM7 2h18l1 3H6l1-3zm16 28H9l-.333-3h14.666L23 30zm.443-4H8.555L7.444 16h17.111l-1.112 10zm1.223-11H7.333L7 12h18l-.334 3zM28 10H4V7h24v3z" fill="#333"/></symbol><symbol viewBox="0 0 32 32" id="daily-newspaper" xmlns="http://www.w3.org/2000/svg"><g fill="#010002"><path d="M31.414 7.585l-6-6A2.001 2.001 0 0 0 24 1H3C1.346 1 0 2.345 0 4v24c0 1.654 1.346 3 3 3h26c1.654 0 3-1.346 3-3V9c0-.531-.211-1.04-.586-1.415zM30 28a1 1 0 0 1-1 1H3a1 1 0 0 1-1-1V4a1 1 0 0 1 1-1h20v4h-.002a3 3 0 0 0 3 3H30v18zM26.998 9h-1c-1.102 0-2-.897-2-2H24V3l6 6h-3.002z"/><path d="M15.5 8h5a.5.5 0 0 0 0-1h-5a.5.5 0 1 0 0 1zM15.5 11h5a.5.5 0 0 0 0-1h-5a.5.5 0 0 0 0 1zM15 13.5a.5.5 0 0 0 .5.5h12a.5.5 0 0 0 0-1h-12a.5.5 0 0 0-.5.5zM27.5 19h-23a.5.5 0 1 0 0 1h23a.5.5 0 0 0 0-1zM27.5 22h-23a.5.5 0 1 0 0 1h23a.5.5 0 0 0 0-1zM27.5 25h-23a.5.5 0 1 0 0 1h23a.5.5 0 0 0 0-1zM27.5 16h-23a.5.5 0 1 0 0 1h23a.5.5 0 0 0 0-1zM5 14h7a1 1 0 0 0 1-1V7a1 1 0 0 0-1-1H5a1 1 0 0 0-1 1v6a1 1 0 0 0 1 1zm1-6h5v4H6V8z"/></g></symbol><symbol viewBox="0 0 32 32" id="database" xmlns="http://www.w3.org/2000/svg"><g fill="#010002"><path d="M16 0C9.256 0 2 2.033 2 6.5v19C2 29.965 9.256 32 16 32c6.743 0 14-2.035 14-6.5v-19C30 2.033 22.742 0 16 0zm12 25.5c0 2.484-5.373 4.5-12 4.5-6.628 0-12-2.016-12-4.5v-3.736C6.066 23.893 11.05 25 16 25s9.934-1.107 12-3.236V25.5zm0-6h-.004c0 .01.004.021.004.031C28 22 22.627 24 16 24S4 22 4 19.531c0-.01.004-.021.004-.031H4v-3.736C6.066 17.893 11.05 19 16 19s9.934-1.107 12-3.236V19.5zm0-6h-.004c0 .01.004.021.004.031C28 16 22.627 18 16 18S4 16 4 13.531c0-.01.004-.021.004-.031H4v-3.436C6.621 12.061 11.425 13 16 13s9.379-.939 12-2.936V13.5zM16 11C9.372 11 4 8.984 4 6.5 4 4.014 9.372 2 16 2c6.627 0 12 2.014 12 4.5 0 2.484-5.373 4.5-12 4.5z"/><circle cx="25" cy="26" r="1"/><circle cx="25" cy="20" r="1"/><circle cx="25" cy="14" r="1"/></g></symbol><symbol viewBox="0 0 32 32" id="diamond" xmlns="http://www.w3.org/2000/svg"><path d="M31.414 9.672l-5.08-5.081a2.002 2.002 0 0 0-1.414-.586H7.081a2 2 0 0 0-1.414.586L.587 9.672a1.998 1.998 0 0 0-.081 2.743l13.999 14.908a1.999 1.999 0 0 0 2.989 0l14-14.908a1.999 1.999 0 0 0-.08-2.743zm-7.195-3.667l-1.916 1.597-1.596-1.597h3.512zm.074 5h-4.514l2.463-2.051 2.051 2.051zm-2.761-2.76L19 10.354l-2.218-1.849 2.731-2.278 2.019 2.018zm-3.313 2.76H13.78L16 9.156l2.219 1.849zm-.001-5L16 7.855l-2.22-1.85h4.438zm-2.999 2.5L13 10.354l-2.532-2.109 2.018-2.018 2.733 2.278zm-2.999 2.5H7.707l2.051-2.051 2.462 2.051zm-.927-5L9.696 7.602 7.78 6.005h3.513zm-4.607.39l2.301 1.917-2.694 2.693H2.006l4.68-4.61zm-3.822 5.61h3.554l6.286 10.479-9.84-10.479zm4.719 0h4.907l2.453 12.271-7.36-12.271zm5.927 0h4.98L16 24.458l-2.49-12.453zm3.547 12.27l2.453-12.271h4.906l-7.359 12.271zm2.238-1.79l6.287-10.48h3.555l-9.842 10.48zm6.412-11.48l-2.693-2.693 2.297-1.915 4.607 4.608h-4.211z" fill="#333"/></symbol><symbol viewBox="0 0 32 32" id="digital-photo" xmlns="http://www.w3.org/2000/svg"><g fill="#010002"><path d="M27 0H5a4 4 0 0 0-4 4v24a4 4 0 0 0 4 4h22a4 4 0 0 0 4-4V4a4 4 0 0 0-4-4zm2 28c0 1.102-.898 2-2 2H5c-1.103 0-2-.898-2-2V4c0-1.103.897-2 2-2h22c1.102 0 2 .897 2 2v24z"/><path d="M26 4H6a1 1 0 0 0-1 1v18a1 1 0 0 0 1 1h20a1 1 0 0 0 1-1V5a1 1 0 0 0-1-1zm0 1v13.869l-3.25-3.53a1 1 0 0 0-1.5 0l-2.604 2.95-7.896-8.95a.998.998 0 0 0-1.5 0L6 13.087V5h20zM6 14.6l4-4.6 8.066 9.143.58.658L21.408 23H6v-8.4zM22.74 23l-3.428-3.955L22 16l4 4.379V23h-3.26z"/><path d="M20 13a3 3 0 1 0 0-6 3 3 0 0 0 0 6zm0-5c1.102 0 2 .897 2 2s-.898 2-2 2c-1.104 0-2-.897-2-2s.896-2 2-2z"/></g></symbol><symbol viewBox="0 0 32 32" id="dustbin" xmlns="http://www.w3.org/2000/svg"><g fill="#010002"><path d="M29.98 6.818A2.99 2.99 0 0 0 27 4.002h-3V3a3 3 0 0 0-3-3H11a3 3 0 0 0-3 3v1.001H5a2.99 2.99 0 0 0-2.981 2.816H2V9a2 2 0 0 0 2 2v17a4 4 0 0 0 4 4h16a4 4 0 0 0 4-4V11a2 2 0 0 0 2-2V6.818h-.02zM10 3.001a1 1 0 0 1 1-1h10a1 1 0 0 1 1 1v1H10v-1zm16 25c0 1.102-.898 2-2 2H8c-1.103 0-2-.898-2-2v-17h20v17zM28 8v1H4V7.001a1 1 0 0 1 1-1h22a1 1 0 0 1 1 1V8z"/><path d="M9 28.005h2a1 1 0 0 0 1-1v-13a1 1 0 0 0-1-1H9a1 1 0 0 0-1 1v13a1 1 0 0 0 1 1zm0-14.001h2v13H9v-13zM15 28.005h2a1 1 0 0 0 1-1v-13a1 1 0 0 0-1-1h-2a1 1 0 0 0-1 1v13a1 1 0 0 0 1 1zm0-14.001h2v13h-2v-13zM21 28.005h2a1 1 0 0 0 1-1v-13a1 1 0 0 0-1-1h-2a1 1 0 0 0-1 1v13a1 1 0 0 0 1 1zm0-14.001h2v13h-2v-13z"/></g></symbol><symbol viewBox="0 0 32 32" id="envelope" xmlns="http://www.w3.org/2000/svg"><path d="M28 5.5H4a4 4 0 0 0-4 4v13a4 4 0 0 0 4 4h24a4 4 0 0 0 4-4v-13a4 4 0 0 0-4-4zM2 10.75L8.999 16 2 21.25v-10.5zM30 22.5c0 1.104-.898 2-2 2H4c-1.103 0-2-.896-2-2l7.832-5.875 4.368 3.277a3 3 0 0 0 3.599 0l4.369-3.277L30 22.5zm0-1.25L23 16l7-5.25v10.5zm-12.801-2.148c-.349.262-.763.4-1.199.4s-.851-.139-1.2-.4L10.665 16l-.833-.625L2 9.501V9.5c0-1.103.897-2 2-2h24c1.102 0 2 .897 2 2l-12.801 9.602z" fill="#010002"/></symbol><symbol viewBox="0 0 31.954 31.954" id="eye" xmlns="http://www.w3.org/2000/svg"><g fill="#010002"><path d="M31.919 15.757c-.01-.042-.004-.087-.02-.128-.006-.017-.021-.026-.027-.042-.01-.024-.008-.051-.021-.074-2.9-5.551-9.213-9.528-15.873-9.528-6.661 0-12.973 3.971-15.875 9.521-.013.023-.011.05-.021.074-.007.016-.021.025-.027.042-.016.041-.01.086-.02.128-.018.075-.035.147-.035.224s.018.148.035.224c.01.042.004.087.02.128.006.017.021.026.027.042.01.024.008.051.021.074 2.901 5.551 9.214 9.528 15.875 9.528 6.66 0 12.973-3.971 15.873-9.521.014-.023.012-.05.021-.074.006-.016.021-.025.027-.042.016-.041.01-.086.02-.128.017-.076.035-.148.035-.224s-.018-.149-.035-.224zm-15.942 8.212c-5.615 0-11.112-3.191-13.851-7.995 2.754-4.81 8.243-7.99 13.851-7.99 5.613 0 11.111 3.192 13.85 7.995-2.754 4.811-8.242 7.99-13.85 7.99z"/><path d="M15.977 11.98l-.006.001a3.998 3.998 0 0 0-3.992 3.996.5.5 0 0 0 .999 0 3.002 3.002 0 0 1 2.999-2.997v-.001a.499.499 0 0 0 0-.999z"/><path d="M15.954 8.981a7 7 0 1 0 0 14 7 7 0 0 0 0-14zm0 13c-3.309 0-6-2.691-6-6s2.691-6 6-6 6 2.691 6 6-2.691 6-6 6z"/></g></symbol><symbol viewBox="0 0 32 32" id="flame" xmlns="http://www.w3.org/2000/svg"><g fill="#010002"><path d="M21.996 9c-.062 2.675-2.07 4.934-2.07 4.934 0-4.976-3.93-8.934-3.93-8.934s-.053 2.962-2.043 5.948C11.963 3.981 5.991 0 5.991 0c2.986 10.948-.995 14.93-.995 22.892 0 4.671 3.954 9.108 10 9.108 8.957 0 10.689-3.288 11.615-6.993 1.276-5.101-.635-11.031-4.615-16.007zm2.676 15.521C24.029 27.09 23.303 30 14.996 30c-5.008 0-8-3.614-8-7.108 0-2.676.488-4.873 1.004-7.199.656-2.949 1.328-5.968 1.037-9.961 3.084 4.269 4.182 9.925 4.182 9.925s2.871-4.031 3.643-5.903C17.453 10.957 17.996 15 17.996 19c0 0 2.656-2.188 4.648-5.478 2.098 3.762 2.854 7.695 2.028 10.999z"/><path d="M22.428 16.795l-.85.985c-1.053 1.228-2.049 2.392-4.708 3.73-.381-1.142-.727-2.399-.727-4.323v-1.709l-1.518 2.378c-.512.811-.936 1.483-1.568 2.376-.959-2.162-1.637-3.761-2.152-5.212l-.479-1.35-.52 1.51c-.66 1.921-1.285 3.735-1.285 8.444a.5.5 0 1 0 1 0c0-3.609.359-5.396.84-6.941.52 1.322 1.176 2.825 2.037 4.75l.352.784.508-.692c.83-1.13 1.324-1.89 1.865-2.743.158 1.479.523 2.54.885 3.59l.182.528.506-.239c2.703-1.284 3.968-2.453 4.972-3.575.156 1.864-.09 3.904-.674 5.353a.499.499 0 0 0 .465.686.499.499 0 0 0 .463-.313c.775-1.924 1.008-4.664.592-6.982l-.186-1.035z"/></g></symbol><symbol viewBox="0 0 32 32" id="graduation-cap" xmlns="http://www.w3.org/2000/svg"><path d="M32 28a2 2 0 0 1-4 0c0-1.104.895-4 2-4 1.104 0 2 2.896 2 4zm-3-15v9a1 1 0 1 0 2 0v-9a1 1 0 1 0-2 0zm.674-2.076L27 11.541V20c0 2.654-3.038 5-11 5S5 22.654 5 20v-8.459l-2.675-.617C.957 10.608 0 9.406 0 8s.956-2.608 2.326-2.924l12.999-3a3.057 3.057 0 0 1 1.336-.003l13.013 3.003C31.043 5.392 32 6.594 32 8s-.957 2.608-2.326 2.924zM25 12.003l-8.326 1.921a3.036 3.036 0 0 1-1.336.003L7 12.003V20c0 1.105 3 3 9 3s9-1.895 9-3v-7.997zm4.225-3.028a1.001 1.001 0 0 0 0-1.95l-13-3L16 4l-.225.025-13 3a1 1 0 0 0 0 1.95l13 3L16 12l.225-.025 13-3z" fill="#333"/></symbol><symbol viewBox="0 0 32 32" id="groceries-store" xmlns="http://www.w3.org/2000/svg"><path d="M31.4 11.2l-3-3.998a2.967 2.967 0 0 0-.4-.423V2a2 2 0 0 0-2-2H6a2 2 0 0 0-2 2v4.78a2.945 2.945 0 0 0-.4.42L.601 11.199A3.013 3.013 0 0 0 0 13v1c0 1.654 1.346 3 3 3v13a2 2 0 0 0 2 2h22a2 2 0 0 0 2-2V17c1.654 0 3-1.346 3-3v-1c0-.646-.213-1.285-.6-1.8zM26 2v4H6V2h20zM10.193 15H6.004l4-7h2.189l-2 7zm3.041-7H15.5v7h-4.266l2-7zM16.5 8h2.266l2 7H16.5V8zm3.305 0h2.189l4 7h-4.189l-2-7zM2 14v-1c0-.217.07-.427.2-.6l3-4A1 1 0 0 1 6 8h2.852l-4 7H3a1 1 0 0 1-1-1zm18 16h-7.5V20H20v10zm7 0h-6V20a1 1 0 0 0-1-1h-7.5a1 1 0 0 0-1 1v10H5V17h22v13zm3-16a1 1 0 0 1-1 1h-1.854l-4-7H26c.314 0 .611.148.799.4l3 4A.992.992 0 0 1 30 13v1z" fill="#010002"/></symbol><symbol viewBox="0 0 31.996 31.996" id="heart-shape" xmlns="http://www.w3.org/2000/svg"><g fill="#010002"><path d="M29.189 4.762c-3.629-3.596-9.432-3.671-13.191-.288-3.76-3.383-9.561-3.308-13.192.288a9.42 9.42 0 0 0 0 13.415l11.053 10.941a3.042 3.042 0 0 0 4.278 0L29.19 18.177a9.418 9.418 0 0 0-.001-13.415zm-1.425 12.003L16.711 27.706a1.012 1.012 0 0 1-1.425 0L4.233 16.765a7.443 7.443 0 0 1 0-10.591c2.844-2.815 7.416-2.914 10.409-.222l1.356 1.22 1.355-1.22c2.994-2.692 7.566-2.594 10.41.222a7.444 7.444 0 0 1 .001 10.591z"/><path d="M9.249 6.998l-.004.001a4.25 4.25 0 0 0-4.246 4.249.5.5 0 0 0 1 0v-.001a3.25 3.25 0 0 1 3.249-3.249h.001a.5.5 0 0 0 0-1z"/></g></symbol><symbol viewBox="0 0 32 32" id="inbox" xmlns="http://www.w3.org/2000/svg"><g fill="#010002"><path d="M31.924 18.455L27.922 3.449A2.005 2.005 0 0 0 26 2H6c-.89 0-1.68.596-1.922 1.449L.076 18.455A2.018 2.018 0 0 0 0 19v7a4 4 0 0 0 4 4h24a4 4 0 0 0 4-4v-7c0-.18-.025-.363-.076-.545zM30 26c0 1.102-.898 2-2 2H4c-1.103 0-2-.898-2-2v-7L6.001 3.999h19.997L30 19v7z"/><path d="M23.742 6H8.258c-.453 0-.85.305-.967.743l-3.445 12A1 1 0 0 0 4.812 20H9.38l1.447 2.895A2.003 2.003 0 0 0 12.617 24h6.766c.758 0 1.449-.428 1.789-1.105L22.619 20h4.568a1 1 0 0 0 .967-1.258l-3.445-12A1 1 0 0 0 23.742 6zm.539 12h-1.662c-.762 0-1.447.422-1.789 1.105L19.383 22h-6.766l-1.447-2.895A1.989 1.989 0 0 0 9.381 18H5.334L8.258 7h15.484l2.924 11h-2.385z"/></g></symbol><symbol viewBox="0 0 32 32" id="like" xmlns="http://www.w3.org/2000/svg"><g fill="#010002"><path d="M29.164 10.472c-1.25-.328-4.189-.324-8.488-.438.203-.938.25-1.784.25-3.286C20.926 3.16 18.312 0 16 0c-1.633 0-2.979 1.335-3 2.977-.022 2.014-.645 5.492-4 7.256-.246.13-.95.477-1.053.522L8 10.8c-.525-.453-1.253-.8-2-.8H3c-1.654 0-3 1.346-3 3v16c0 1.654 1.346 3 3 3h3c1.19 0 2.186-.719 2.668-1.727.012.004.033.01.047.012l.239.062.046.012c.576.143 1.685.408 4.055.953.508.116 3.192.688 5.972.688h5.467c1.666 0 2.867-.641 3.582-1.928.01-.02.24-.469.428-1.076a3.33 3.33 0 0 0 .023-1.76c1.074-.738 1.42-1.854 1.645-2.58.377-1.191.264-2.086.002-2.727.604-.57 1.119-1.439 1.336-2.766a3.757 3.757 0 0 0-.389-2.372c.566-.636.824-1.436.854-2.176l.012-.209c.007-.131.013-.212.013-.5 0-1.263-.875-2.874-2.836-3.434zM7 29a1 1 0 0 1-1 1H3a1 1 0 0 1-1-1V13a1 1 0 0 1 1-1h3a1 1 0 0 1 1 1v16zm22.977-14.465C29.957 15.029 29.75 16 28 16h-2a.5.5 0 1 0 0 1h1.938c1.5 0 1.697 1.244 1.6 1.844-.124.746-.474 2.156-2.163 2.156H25a.499.499 0 1 0 0 1h1.969c1.688 0 1.539 1.287 1.297 2.055-.319 1.009-.514 1.945-2.641 1.945h-1.631a.499.499 0 1 0 0 1h1.568c1.094 0 1.145 1.035 1.031 1.406-.125.406-.273.707-.279.721-.302.545-.789.873-1.82.873h-5.467c-2.746 0-5.47-.623-5.54-.639-4.154-.957-4.373-1.031-4.634-1.105 0 0-.846-.143-.846-.881L8 13.563c0-.469.299-.893.794-1.042.062-.024.146-.05.206-.075 4.568-1.892 5.959-6.04 6-9.446.006-.479.375-1 1-1 1.057 0 2.926 2.122 2.926 4.748 0 2.371-.096 2.781-.926 5.252 10 0 9.93.144 10.812.375 1.094.313 1.188 1.219 1.188 1.531 0 .343-.01.293-.023.629z"/><path d="M4.5 26a1.5 1.5 0 1 0 .001 3.001A1.5 1.5 0 0 0 4.5 26zm0 2c-.275 0-.5-.225-.5-.5s.225-.5.5-.5.5.225.5.5-.225.5-.5.5z"/></g></symbol><symbol viewBox="0 0 32 32" id="location-gps" xmlns="http://www.w3.org/2000/svg"><g fill="#010002"><path d="M16.001 17.746c3.309 0 6-2.692 6-6s-2.691-6-6-6-6 2.691-6 6 2.691 6 6 6zm0-11c2.758 0 5 2.242 5 5s-2.242 5-5 5-5-2.242-5-5 2.242-5 5-5z"/><path d="M15.999 0c-6.618 0-12 5.316-12 12.001 0 7 6.001 14.161 10.376 19.194.016.02.718.805 1.586.805h.077c.867 0 1.57-.785 1.586-.805 4.377-5.033 10.377-12.193 10.377-19.194A11.971 11.971 0 0 0 15.999 0zm.117 29.883c-.021.02-.082.064-.135.098-.01-.027-.084-.086-.129-.133-3.665-4.217-9.853-11.334-9.853-17.847C5.999 6.487 10.486 2 15.999 2c5.516 0 10.002 4.487 10.002 10.002 0 6.512-6.188 13.629-9.885 17.881z"/></g></symbol><symbol viewBox="0 0 32 32" id="locked-padlock" xmlns="http://www.w3.org/2000/svg"><g fill="#010002"><path d="M25 13V9c0-4.971-4.029-9-9-9S7 4.029 7 9v4a3 3 0 0 0-3 3v7a9 9 0 0 0 9 9h6a9 9 0 0 0 9-9v-7a3 3 0 0 0-3-3zM9 9a7 7 0 1 1 14 0v4h-2V9.002c0-2.762-2.238-5-5-5s-5 2.238-5 5V13H9V9zm11 0v4h-8V9a4 4 0 0 1 8 0zm6 10v4c0 3.859-3.141 7-7 7h-6c-3.859 0-7-3.141-7-7v-7a1 1 0 0 1 1-1h18c.551 0 1 .448 1 1v3z"/><path d="M16 19a2 2 0 0 0-2 2c0 .607.333 1.76.667 2.672.272.742.614 1.326 1.333 1.326.782 0 1.061-.578 1.334-1.316.338-.914.666-2.073.666-2.682a2 2 0 0 0-2-2z"/></g></symbol><symbol viewBox="0 0 32 32" id="newspaper" xmlns="http://www.w3.org/2000/svg"><g fill="#010002"><path d="M29 0H7a3 3 0 0 0-3 3v2H3a3 3 0 0 0-3 3v20a4 4 0 0 0 4 4h24a4 4 0 0 0 4-4V3a3 3 0 0 0-3-3zm1 28c0 1.102-.898 2-2 2H4c-1.103 0-2-.898-2-2V8a1 1 0 0 1 1-1h1v20a1 1 0 1 0 2 0V3a1 1 0 0 1 1-1h22c.551 0 1 .448 1 1v25z"/><path d="M19.498 13.005h8a.5.5 0 1 0 0-1h-8a.5.5 0 0 0 0 1zM19.498 10.005h8a.5.5 0 1 0 0-1h-8a.5.5 0 0 0 0 1zM19.498 7.005h8a.5.5 0 1 0 0-1h-8a.5.5 0 0 0 0 1zM16.5 27.004h-8a.5.5 0 0 0 0 1h8a.5.5 0 0 0 0-1zM16.5 24.004h-8a.5.5 0 0 0 0 1h8a.5.5 0 0 0 0-1zM16.5 21.004h-8a.5.5 0 0 0 0 1h8a.5.5 0 0 0 0-1zM27.5 27.004h-8a.5.5 0 0 0 0 1h8a.5.5 0 0 0 0-1zM27.5 24.004h-8a.5.5 0 0 0 0 1h8a.5.5 0 0 0 0-1zM27.5 21.004h-8a.5.5 0 0 0 0 1h8a.5.5 0 0 0 0-1zM27.5 15.004h-19a.5.5 0 0 0 0 1h19a.5.5 0 0 0 0-1zM27.5 18.004h-19a.5.5 0 0 0 0 1h19a.5.5 0 0 0 0-1zM9 13h7a1 1 0 0 0 1-1V5.004a1 1 0 0 0-1-1H9a1 1 0 0 0-1 1V12a1 1 0 0 0 1 1zm1-7h5v5h-5V6z"/></g></symbol><symbol viewBox="0 0 32 32" id="noodle-bowl" xmlns="http://www.w3.org/2000/svg"><g fill="#010002"><path d="M29.5 21h-2.691c-.045-.239-.1-.473-.16-.706l4.799-2.399a1.001 1.001 0 0 0-.895-1.789l-4.578 2.288C24.229 14.626 20.42 12 16 12c-5.382 0-9.865 3.888-10.809 9H2.5A2.503 2.503 0 0 0 0 23.5c0 .49.18.963.505 1.329L4 28.761v.739C4 30.879 5.122 32 6.5 32h19c1.379 0 2.5-1.121 2.5-2.5v-.739l3.494-3.932c.326-.366.506-.839.506-1.329 0-1.379-1.121-2.5-2.5-2.5zm-3.701 0h-.562l.498-.25c.019.084.046.165.064.25zM16 13c4.029 0 7.5 2.4 9.082 5.841l-.891.445C22.775 16.171 19.645 14 16 14c-4.282 0-7.859 2.993-8.77 7H6.202c.929-4.559 4.969-8 9.798-8zm4.576 8c-.773-1.763-2.531-3-4.576-3s-3.802 1.237-4.576 3H10.35c.826-2.326 3.043-4 5.65-4a6.006 6.006 0 0 1 5.508 3.627l-.744.373h-.188zM16 20c-.883 0-1.67.391-2.22 1h-1.224c.694-1.189 1.97-2 3.444-2 1.473 0 2.75.811 3.443 2h-1.225A2.977 2.977 0 0 0 16 20zm0-4c-3.165 0-5.842 2.112-6.705 5H8.263c.892-3.444 4.017-6 7.737-6 3.246 0 6.043 1.948 7.295 4.734l-.893.446C21.314 17.723 18.855 16 16 16zm10 12v1.5a.5.5 0 0 1-.5.5h-19a.5.5 0 0 1-.5-.5V28l-4-4.5a.5.5 0 0 1 .5-.5h27a.5.5 0 0 1 .5.5L26 28zM7.977 11.712l.008.018h.002c.083.16.249.27.443.27a.503.503 0 0 0 .484-.628.034.034 0 0 0 0-.02c-.375-.882-.019-1.85.419-2.892.473-1.126.98-2.376.422-3.647a.49.49 0 0 0-.913.352l.003.009.005.012c.404.909.013 1.841-.428 2.893-.466 1.109-.982 2.338-.463 3.591l.018.042zM20.154 11.566c.004.006.006.012.008.018h.002a.501.501 0 0 0 .929-.357.024.024 0 0 0-.002-.02c-.373-.882-.018-1.85.42-2.892.473-1.126.98-2.376.422-3.647a.49.49 0 0 0-.914.346v.006l.004.009a.028.028 0 0 1 .004.012c.404.909.014 1.841-.428 2.893-.465 1.109-.98 2.339-.461 3.592l.016.04zM15.019 7.212l.008.018h.002a.501.501 0 0 0 .945-.232.472.472 0 0 0-.018-.125.034.034 0 0 0 0-.02c-.375-.882-.019-1.85.419-2.892.473-1.126.98-2.376.422-3.647a.49.49 0 0 0-.914.351l.003.009.004.012c.404.909.013 1.841-.428 2.893-.466 1.109-.982 2.339-.462 3.592l.019.041z"/></g></symbol><symbol viewBox="0 0 32.001 32.001" id="paper-plane" xmlns="http://www.w3.org/2000/svg"><path d="M31.544.16a1.002 1.002 0 0 0-1.098.008l-30 20a.995.995 0 0 0-.439.936.995.995 0 0 0 .623.824l7.824 3.131 3.679 6.438a1 1 0 0 0 .857.504h.011c.351 0 .677-.186.857-.486l2.077-3.463 9.695 3.877a.992.992 0 0 0 .861-.058c.264-.148.445-.408.496-.707l5-30A1.002 1.002 0 0 0 31.544.16zM3.137 20.777L26.312 5.326 9.462 23.363c-.089-.053-.168-.123-.266-.162l-6.059-2.424zm7.053 3.289l-.007-.01L29.126 3.781 12.977 28.943l-2.787-4.877zm15.028 5.543l-8.541-3.416a1.987 1.987 0 0 0-.623-.119L29.206 5.686l-3.988 23.923z" fill="#010002"/></symbol><symbol viewBox="0 0 32.001 32.001" id="paperclip-archive" xmlns="http://www.w3.org/2000/svg"><path d="M29.364 4.137a8.997 8.997 0 0 0-12.727 0L2.047 18.554c-2.729 2.729-2.729 7.171 0 9.9s7.17 2.729 9.898 0l14.59-14.418a5 5 0 1 0-7.07-7.071L8.497 17.933a1 1 0 1 0 1.414 1.415L20.88 8.379a3.004 3.004 0 0 1 4.242 0 3.003 3.003 0 0 1 0 4.243l-14.59 14.417a4.998 4.998 0 0 1-7.07 0 4.998 4.998 0 0 1 0-7.07L17.909 5.692a6.998 6.998 0 0 1 9.898 0 6.997 6.997 0 0 1 .002 9.899L16.983 26.418a.995.995 0 0 0 0 1.414.997.997 0 0 0 1.414 0l10.967-10.968a8.997 8.997 0 0 0 0-12.727z" fill="#010002"/></symbol><symbol viewBox="0 0 32 32" id="parameters" xmlns="http://www.w3.org/2000/svg"><g fill="#010002"><path d="M8 6.021V3c0-1.654-1.346-3-3-3S2 1.346 2 3v3.021C.792 6.936 0 8.369 0 10s.792 3.064 2 3.977V29c0 1.654 1.346 3 3 3s3-1.346 3-3V13.977c1.208-.912 2-2.346 2-3.977s-.792-3.064-2-3.979zM4 3a1 1 0 1 1 2 0v2.1a5.062 5.062 0 0 0-2 0V3zm2 26a1 1 0 1 1-2 0V14.898a4.916 4.916 0 0 0 2 0V29zm1.865-18.16c-.016.053-.03.105-.049.158a2.944 2.944 0 0 1-.378.736l-.014.016a3.026 3.026 0 0 1-.616.627l-.01.008c-.241.182-.51.328-.799.43-.313.113-.646.185-.999.185s-.686-.072-1-.186a2.962 2.962 0 0 1-.799-.43l-.01-.008a3.026 3.026 0 0 1-.616-.627l-.014-.016a2.979 2.979 0 0 1-.378-.736c-.019-.053-.033-.105-.049-.158A2.945 2.945 0 0 1 2 10c0-.295.055-.574.135-.842.016-.053.03-.105.049-.156.094-.264.216-.514.378-.738l.014-.016c.174-.236.381-.449.616-.627l.01-.008c.24-.179.509-.326.798-.429C4.314 7.072 4.647 7 5 7s.686.072 1 .184c.289.104.558.25.799.43l.01.008c.235.178.442.391.616.627l.014.016a2.931 2.931 0 0 1 .426.893c.08.268.135.547.135.842 0 .293-.055.572-.135.84zM30 6.021V3c0-1.654-1.346-3-3-3s-3 1.346-3 3v3.021c-1.209.915-2 2.348-2 3.979s.791 3.064 2 3.977V29c0 1.654 1.346 3 3 3s3-1.346 3-3V13.977c1.207-.912 2-2.346 2-3.977s-.793-3.064-2-3.979zM26 3a1 1 0 1 1 2 0v2.1a5.077 5.077 0 0 0-2 0V3zm2 26a1 1 0 1 1-2 0V14.898a4.902 4.902 0 0 0 2 0V29zm1.865-18.16c-.016.053-.031.105-.049.158a2.947 2.947 0 0 1-.379.736l-.014.016a3.046 3.046 0 0 1-.615.627l-.01.008c-.242.182-.51.328-.799.43A2.932 2.932 0 0 1 27 13a2.91 2.91 0 0 1-1-.186 2.947 2.947 0 0 1-.809-.438 3.006 3.006 0 0 1-.617-.627l-.014-.016a2.975 2.975 0 0 1-.377-.736c-.02-.053-.033-.105-.049-.158A2.945 2.945 0 0 1 24 10c0-.295.055-.574.135-.842.016-.053.029-.105.049-.156.094-.264.217-.514.377-.738l.014-.016c.174-.236.381-.449.617-.627l.01-.008c.24-.18.51-.326.799-.43A2.97 2.97 0 0 1 27 7c.352 0 .686.072 1 .184a3.093 3.093 0 0 1 .809.438c.234.178.441.391.615.627l.014.016c.162.225.283.475.379.738.018.051.033.104.049.156.079.267.134.546.134.841 0 .293-.055.572-.135.84zM19 18.021V3c0-1.654-1.346-3-3-3s-3 1.346-3 3v15.021c-1.208.914-2 2.348-2 3.979s.792 3.064 2 3.977V29c0 1.654 1.346 3 3 3s3-1.346 3-3v-3.023c1.207-.912 2-2.346 2-3.977s-.793-3.064-2-3.979zM15 3a1 1 0 1 1 2 0v14.1a5.062 5.062 0 0 0-2 0V3zm2 26a1 1 0 1 1-2 0v-2.102a4.916 4.916 0 0 0 2 0V29zm1.865-6.16c-.016.053-.031.105-.049.158a2.947 2.947 0 0 1-.379.736l-.014.016a3.046 3.046 0 0 1-.615.627l-.01.008c-.242.182-.51.328-.799.43A2.932 2.932 0 0 1 16 25c-.353 0-.686-.072-1-.186a2.962 2.962 0 0 1-.799-.43l-.01-.008a3.026 3.026 0 0 1-.616-.627l-.014-.016a2.979 2.979 0 0 1-.378-.736c-.019-.053-.033-.105-.049-.158A2.945 2.945 0 0 1 13 22c0-.295.055-.574.135-.842.016-.053.03-.105.049-.156.095-.264.217-.514.378-.738l.014-.016c.174-.236.381-.449.616-.627l.01-.008c.241-.18.51-.326.799-.43.313-.111.646-.183.999-.183.352 0 .686.072 1 .184a3.093 3.093 0 0 1 .809.438c.234.178.441.391.615.627l.014.016c.162.225.283.475.379.738.018.051.033.104.049.156.079.267.134.546.134.841 0 .293-.055.572-.135.84z"/></g></symbol><symbol viewBox="0 0 32 32" id="pencil-with-rubber" xmlns="http://www.w3.org/2000/svg"><path d="M29.395 2.58C27.75.937 25.584 0 23.449 0c-1.801 0-3.459.668-4.67 1.877l-4.867 4.904c-.015.014-.032.023-.047.038-.008.008-.013.019-.021.026l.002.002L3.517 17.256a4.023 4.023 0 0 0-1.013 1.705L.155 27.469C.153 27.492 0 28.16 0 28.5 0 30.432 1.569 32 3.504 32c.385 0 1.13-.184 1.157-.188l8.478-2.229a4.021 4.021 0 0 0 1.705-1.016l15.263-15.383c2.776-2.778 2.463-7.434-.712-10.604zM16.014 23.795a8.145 8.145 0 0 0-.719-2.627l9.455-9.454c.578 1.826.281 3.736-.986 5.004-.008.008-.018.013-.025.021l.014.013-7.728 7.79c0-.249.012-.493-.011-.747zm-1.221-3.539c-.373-.613-.797-1.205-1.322-1.729-.611-.611-1.312-1.09-2.044-1.492l9.532-9.532a6.939 6.939 0 0 1 2.098 1.438 6.976 6.976 0 0 1 1.281 1.771l-9.545 9.544zm-4.307-3.694a7.976 7.976 0 0 0-2.868-.599l7.703-7.762c1.179-1.15 2.896-1.481 4.587-1.062l-9.422 9.423zM4.167 29.873c-.109.025-.448.111-.678.127A1.505 1.505 0 0 1 2 28.5c.012-.168.079-.457.102-.562l1.053-3.814c1.143-.031 2.373.414 3.34 1.383.982.98 1.444 2.234 1.394 3.391l-3.722.975zm4.707-1.236c-.024-1.342-.57-2.738-1.672-3.838-1.042-1.043-2.406-1.645-3.766-1.699l.996-3.607c.072-.24.215-.477.391-.684 2.006-1.436 5.091-1.012 7.234 1.133 2.267 2.266 2.617 5.586.871 7.568a1.97 1.97 0 0 1-.359.156l-3.695.971zm19.817-16.865l-1.684 1.697c0-.226.027-.443.006-.674-.176-1.935-1.078-3.806-2.543-5.269-1.629-1.63-3.789-2.565-5.928-2.571l1.656-1.67C21.027 2.458 22.184 2 23.449 2c1.609 0 3.262.728 4.533 1.995 1.193 1.191 1.904 2.671 2.006 4.168.094 1.397-.367 2.678-1.297 3.609z" fill="#010002"/></symbol><symbol viewBox="0 0 32 32" id="quaver" xmlns="http://www.w3.org/2000/svg"><path d="M31.285.469A1.996 1.996 0 0 0 30 0l-.349.031-17.001 3A1.997 1.997 0 0 0 10.999 5v17.17C9.984 21.434 8.667 21 7.205 21c-.85 0-1.7.141-2.529.416-1.898.633-3.42 1.902-4.176 3.484-.584 1.223-.659 2.553-.214 3.746C1.047 30.683 3.209 32 5.794 32c.85 0 1.7-.139 2.528-.416 1.897-.631 3.419-1.9 4.175-3.48A4.963 4.963 0 0 0 12.98 26h.018V10l.348-.029L30 7.032V19.17c-1.017-.736-2.332-1.17-3.795-1.17-.851 0-1.701.141-2.529.416-1.896.633-3.42 1.902-4.174 3.484-.584 1.223-.66 2.553-.215 3.746.762 2.037 2.922 3.354 5.508 3.354a7.95 7.95 0 0 0 2.529-.416c1.896-.631 3.418-1.9 4.174-3.48A4.918 4.918 0 0 0 31.981 23H32V2c0-.59-.263-1.152-.715-1.531zM7.687 29.688c-2.396.799-4.873.02-5.529-1.738-.658-1.762.751-3.834 3.146-4.635 2.396-.799 4.873-.02 5.529 1.74.66 1.759-.75 3.834-3.146 4.633zM29.959 5L12.958 8V5l17.001-3v3zm-3.308 21.688c-2.397.799-4.875.02-5.53-1.738-.658-1.762.752-3.834 3.146-4.635 2.397-.799 4.875-.02 5.53 1.74.66 1.759-.748 3.834-3.146 4.633z" fill="#333"/></symbol><symbol viewBox="0 0 32 32" id="reflex-camera" xmlns="http://www.w3.org/2000/svg"><g fill="#010002"><path d="M16 9.501a8 8 0 0 0-8 8 8 8 0 1 0 16 0 8 8 0 0 0-8-8zm4.555 11.905a5.998 5.998 0 0 1-8.459.65 5.997 5.997 0 0 1-.65-8.459 6 6 0 0 1 9.109 7.809z"/><path d="M16 13.501a4 4 0 0 0-4 3.999v.002a.5.5 0 0 0 1 0V17.5a3 3 0 0 1 3-2.999.5.5 0 0 0 0-1z"/><path d="M29.492 8.542l-4.334-.723-1.373-3.434A2.988 2.988 0 0 0 21 2.5H11a2.99 2.99 0 0 0-2.786 1.886L6.842 7.819l-4.333.723A2.989 2.989 0 0 0 0 11.5v15c0 1.654 1.346 3 3 3h26c1.654 0 3-1.346 3-3v-15a2.989 2.989 0 0 0-2.508-2.958zM30 26.5a1 1 0 0 1-1 1H3a1 1 0 0 1-1-1v-15a1 1 0 0 1 .836-.986l5.444-.907 1.791-4.478c.153-.379.52-.629.929-.629h10c.408 0 .775.249.928.629l1.791 4.478 5.445.907A1 1 0 0 1 30 11.5v15z"/></g></symbol><symbol viewBox="0 0 32 32" id="screen-outline" xmlns="http://www.w3.org/2000/svg"><path d="M29 1.001H3a3 3 0 0 0-3 3v20a2.997 2.997 0 0 0 2.99 2.998H13v1.217l-6.242.811A1 1 0 0 0 7 30.999h18a1 1 0 0 0 .242-1.971L19 28.216v-1.217h10.01A2.997 2.997 0 0 0 32 24.001v-20a3 3 0 0 0-3-3zm1 23c0 .551-.449 1-1 1H3c-.552 0-1-.449-1-1v-20a1 1 0 0 1 1-1h26c.551 0 1 .448 1 1v20zM27 4.997L5 5.001c-.553 0-1 .443-1 .996v14a1 1 0 0 0 1 1h22a1 1 0 0 0 1-1v-14a1 1 0 0 0-1-1zm0 15.004H5V5.997h22v14.004z" fill="#333"/></symbol><symbol viewBox="0 0 32 32" id="setting-tool" xmlns="http://www.w3.org/2000/svg"><g fill="#010002"><path d="M30.391 12.679l-3.064-.614a12.098 12.098 0 0 0-.537-1.289l1.736-2.604a1.999 1.999 0 0 0-.25-2.523l-1.924-1.924a1.996 1.996 0 0 0-2.523-.25L21.225 5.21a12.09 12.09 0 0 0-1.291-.536l-.614-3.065A1.998 1.998 0 0 0 17.359.001h-2.72a2 2 0 0 0-1.961 1.608l-.614 3.065c-.443.154-.873.335-1.289.536L8.172 3.475a1.996 1.996 0 0 0-2.524.25L3.725 5.649a2 2 0 0 0-.25 2.523l1.735 2.604c-.202.417-.382.847-.536 1.29l-3.066.613A1.998 1.998 0 0 0 0 14.639v2.72a2 2 0 0 0 1.608 1.961l3.065.615c.154.443.335.873.536 1.289l-1.734 2.604a1.999 1.999 0 0 0 .25 2.523l1.924 1.924a1.996 1.996 0 0 0 2.523.25l2.604-1.736c.417.203.847.383 1.29.537l.613 3.064A2 2 0 0 0 14.64 32h2.72a2 2 0 0 0 1.961-1.609l.615-3.064c.443-.154.873-.336 1.289-.537l2.604 1.736a1.998 1.998 0 0 0 2.523-.25l1.924-1.924a2 2 0 0 0 .25-2.523l-1.736-2.604c.203-.418.383-.848.537-1.291l3.064-.613A2.001 2.001 0 0 0 32 17.36v-2.72a2 2 0 0 0-1.609-1.961zm-3.457 5.295a1.997 1.997 0 0 0-1.496 1.305c-.129.369-.279.727-.447 1.074a1.996 1.996 0 0 0 .135 1.982l1.736 2.604-1.924 1.924-2.604-1.736a1.997 1.997 0 0 0-1.98-.137c-.348.168-.705.32-1.076.449a1.998 1.998 0 0 0-1.303 1.496L17.36 30h-2.72l-.613-3.066a1.997 1.997 0 0 0-1.304-1.496 10.17 10.17 0 0 1-1.075-.447 1.994 1.994 0 0 0-1.981.135l-2.604 1.736-1.924-1.924 1.735-2.604c.393-.59.444-1.344.137-1.98a10.106 10.106 0 0 1-.448-1.076 2 2 0 0 0-1.496-1.303l-3.065-.615L2 14.639l3.066-.613a1.999 1.999 0 0 0 1.496-1.304c.129-.369.278-.728.447-1.075a1.995 1.995 0 0 0-.136-1.981L5.139 7.063l1.923-1.924 2.604 1.735a1.997 1.997 0 0 0 1.98.137 10.09 10.09 0 0 1 1.075-.448 1.999 1.999 0 0 0 1.304-1.496l.614-3.065 2.72-.001.613 3.066a1.998 1.998 0 0 0 1.305 1.496c.369.129.727.278 1.074.447a1.998 1.998 0 0 0 1.982-.136l2.604-1.735 1.924 1.924-1.736 2.604a2.006 2.006 0 0 0-.137 1.98c.168.347.32.705.449 1.075a1.997 1.997 0 0 0 1.496 1.304l3.064.614.003 2.72-3.066.614z"/><path d="M16 9a7 7 0 1 0 .001 13.999A7 7 0 0 0 16 9zm0 13.126a6.126 6.126 0 1 1 6.125-6.125A6.127 6.127 0 0 1 16 22.126z"/><path d="M16 12a4 4 0 1 0 0 8 4 4 0 0 0 0-8zm0 7.001a3.001 3.001 0 0 1 0-6 3.001 3.001 0 0 1 0 6z"/></g></symbol><symbol viewBox="0 0 32 32" id="small-calendar" xmlns="http://www.w3.org/2000/svg"><g fill="#010002"><path d="M29.334 3H25V1a1 1 0 1 0-2 0v2h-6V1a1 1 0 1 0-2 0v2H9V1a1 1 0 1 0-2 0v2H2.667A2.666 2.666 0 0 0 0 5.666v23.667A2.667 2.667 0 0 0 2.667 32h26.667A2.666 2.666 0 0 0 32 29.333V5.666A2.665 2.665 0 0 0 29.334 3zM30 29.333a.667.667 0 0 1-.666.667H2.667A.667.667 0 0 1 2 29.333V5.666C2 5.299 2.299 5 2.667 5H7v2a1 1 0 1 0 2 0V5h6v2a1 1 0 1 0 2 0V5h6v2a1 1 0 1 0 2 0V5h4.334c.367 0 .666.299.666.666v23.667z"/><path d="M7 12h4v3H7zM7 17h4v3H7zM7 22h4v3H7zM14 22h4v3h-4zM14 17h4v3h-4zM14 12h4v3h-4zM21 22h4v3h-4zM21 17h4v3h-4zM21 12h4v3h-4z"/></g></symbol><symbol viewBox="0 0 31.999 31.999" id="small-cloud" xmlns="http://www.w3.org/2000/svg"><path d="M25.913 12.642C25.476 8.08 21.677 4.5 16.999 4.5c-3.619 0-6.717 2.148-8.146 5.23A4.46 4.46 0 0 0 7.5 9.5 4.501 4.501 0 0 0 3 14c0 .494.099.961.246 1.404C1.313 16.531 0 18.599 0 20.998a6.5 6.5 0 0 0 6.5 6.5v.002h17.999v-.002c4.143 0 7.5-3.357 7.5-7.5 0-3.657-2.621-6.693-6.086-7.356zm-1.414 12.855v.003H6.5A4.51 4.51 0 0 1 2 20.998c0-1.6.843-3.045 2.254-3.867 1.371-.787 1.465-.943.89-2.357A2.455 2.455 0 0 1 5 14.001c0-1.379 1.121-2.5 2.5-2.5 0 0 .656-.047 1.353.23 1.147.457 1.272.02 1.814-1.159C11.814 8.099 14.299 6.5 16.999 6.5c3.6 0 6.576 2.723 6.924 6.334.123 1.432.123 1.432 1.615 1.773a5.496 5.496 0 0 1 4.461 5.391 5.505 5.505 0 0 1-5.5 5.499z" fill="#010002"/></symbol><symbol viewBox="0 0 32.004 32.004" id="small-key" xmlns="http://www.w3.org/2000/svg"><g fill="#010002"><path d="M22.004.002c-5.523 0-10 4.478-10 10a9.87 9.87 0 0 0 .713 3.629L.568 25.779c-.351.352-.568.686-.568 1.223v3c0 1.07.929 2 2 2h3c.536 0 .875-.215 1.226-.564l1.435-1.436h2.343a2 2 0 0 0 2-2v-2h2a2 2 0 0 0 2-2v-2.344l2.369-2.371c1.129.445 2.344.715 3.631.715 5.521 0 10-4.478 10-10s-4.479-10-10-10zm0 18c-1.48 0-2.852-.43-4.041-1.132l-.344.343-1.125 1.125-1.905 1.906a1.999 1.999 0 0 0-.586 1.414v2.344h-2a2 2 0 0 0-2 2v2H7.661a2 2 0 0 0-1.414.586l-1.418 1.418-2.826-.004L2 27.152l11.665-11.645.001.002 1.469-1.469c-.702-1.189-1.132-2.56-1.132-4.04a8.001 8.001 0 1 1 8.001 8.002z"/><path d="M27.82 8.241a17.71 17.71 0 0 0-4.055-4.054.961.961 0 0 0-.882-.127c-1.389.489-2.34 1.439-2.826 2.828a.952.952 0 0 0 .127.882 17.736 17.736 0 0 0 4.053 4.053.968.968 0 0 0 .882.128c1.391-.486 2.342-1.438 2.83-2.828a.977.977 0 0 0 .055-.319.98.98 0 0 0-.184-.563zm-3 2.771A17.059 17.059 0 0 1 21 7.219c.387-1.103 1.111-1.827 2.182-2.221a16.75 16.75 0 0 1 3.816 3.811c-.391 1.095-1.113 1.815-2.178 2.203z"/></g></symbol><symbol viewBox="0 0 32 32" id="small-light-bulb" xmlns="http://www.w3.org/2000/svg"><g fill="#010002"><path d="M16 0C9.924 0 5 4.924 5 11c0 4.031 3.688 8.303 5.031 12.055C12.034 28.65 11.812 32 16 32c4.25 0 3.965-3.334 5.969-8.922C23.316 19.318 27 15 27 11c0-6.076-4.926-11-11-11zm2.592 27.176l-4.958.619a43.56 43.56 0 0 1-.598-1.893l-.009-.031 6.188-.773c-.088.295-.182.605-.264.883-.131.449-.248.839-.359 1.195zm-5.856-2.268A60 60 0 0 0 12.121 23h7.766c-.123.359-.246.719-.352 1.059l-6.799.849zM16 30c-1.013 0-1.479-.117-1.997-1.25l4.238-.531C17.627 29.873 17.18 30 16 30zm4.672-9h-9.333c-.498-1.08-1.096-2.16-1.686-3.217C8.348 15.448 7 13.033 7 11c0-4.963 4.037-9 9-9s9 4.037 9 9c0 2.018-1.35 4.446-2.656 6.795-.584 1.053-1.178 2.131-1.672 3.205z"/><path d="M16 5c-3.309 0-6 2.691-6 6a.5.5 0 0 0 1 0c0-2.757 2.243-5 5-5a.5.5 0 0 0 0-1z"/></g></symbol><symbol viewBox="0 0 32 32" id="small-truck" xmlns="http://www.w3.org/2000/svg"><g fill="#010002"><path d="M24.832 11.445A1.001 1.001 0 0 0 24 11h-1a1 1 0 0 0-1 1v6a1 1 0 0 0 1 1h4a1 1 0 0 0 1-1v-1.5c0-.197-.059-.391-.168-.555l-3-4.5zM27 18h-4v-6h1l3 4.5V18z"/><path d="M31.496 15.336l-4-6A2.995 2.995 0 0 0 25 8h-4V6c0-1.654-1.346-3-3-3H3C1.346 3 0 4.346 0 6v11c0 1.654 1.346 3 3 3v3c0 1.654 1.346 3 3 3h1.142c.447 1.721 2 3 3.859 3 1.857 0 3.41-1.279 3.857-3h5.282c.447 1.721 2 3 3.859 3 1.857 0 3.41-1.279 3.857-3H29c1.654 0 3-1.346 3-3v-6c0-.594-.174-1.17-.504-1.664zM3 18a1 1 0 0 1-1-1V6a1 1 0 0 1 1-1h15a1 1 0 0 1 1 1v11a1 1 0 0 1-1 1H3zm8.001 9a2 2 0 1 1 0-4 2 2 0 0 1 0 4zM24 27a2 2 0 1 1 0-4 2 2 0 0 1 0 4zm6-4a1 1 0 0 1-1 1h-1.143c-.447-1.721-2-3-3.857-3-1.859 0-3.412 1.279-3.859 3h-5.282c-.447-1.721-2-3-3.857-3-1.859 0-3.412 1.279-3.859 3H6a1 1 0 0 1-1-1v-3h13c1.654 0 3-1.346 3-3v-7h4c.334 0 .646.167.832.445l4 6c.109.164.168.358.168.555v6z"/></g></symbol><symbol viewBox="0 0 32 32" id="smartphone-outline" xmlns="http://www.w3.org/2000/svg"><path d="M15 28.496a.5.5 0 0 1 .5-.5h1a.5.5 0 0 1 0 1h-1a.5.5 0 0 1-.5-.5zM17.5 3h-3a.499.499 0 1 0 0 1h3a.5.5 0 0 0 0-1zM27 3v26c0 1.656-1.344 3-3 3H8a3 3 0 0 1-3-3V3a3 3 0 0 1 3-3h16a3 3 0 0 1 3 3zm-2 23.996H7V29a1 1 0 0 0 1 1h16c.551 0 1-.449 1-1v-2.004zM25 6H7v19.996h18V6zm0-3c0-.552-.449-1-1-1H8a1 1 0 0 0-1 1v2h18V3z" fill="#333"/></symbol><symbol viewBox="0 0 32 32" id="sound-on" xmlns="http://www.w3.org/2000/svg"><g fill="#010002"><path d="M26.998 14.003H27A.5.5 0 0 0 28 14l-.002-.008a9.996 9.996 0 0 0-9.973-9.986C18.018 4.004 18.01 4 18 4a.5.5 0 0 0-.002 1v.004c4.963-.001 9 4.037 9 8.999zM9.121.878a2.996 2.996 0 0 0-3.268-.65A2.999 2.999 0 0 0 4 3l-.001 13.757-3.12 3.122a2.998 2.998 0 0 0 0 4.242l7 7C8.465 31.707 9.232 32 10 32s1.535-.293 2.121-.879L15.242 28h13.756c1.215 0 2.309-.73 2.771-1.852a2.998 2.998 0 0 0-.65-3.27L9.121.878zm4.707 25.708l-3.121 3.121a1 1 0 0 1-1.414 0l-7-7a.998.998 0 0 1 0-1.414l3.12-3.121c.009-.01.012-.021.021-.031l8.425 8.426c-.009.007-.022.009-.031.019zM15.242 26c-.155 0-.299.055-.447.088L5.91 17.203c.034-.148.089-.292.089-.446L6 4.711 27.287 26H15.242zm14.68-.617a.995.995 0 0 1-.924.617h-.297L6 3.297V3a.996.996 0 0 1 .999-1c.268 0 .519.104.707.292l21.999 22.001a.996.996 0 0 1 .217 1.09z"/><path d="M17.998 2v.004c6.617 0 12 5.383 12 12H30A1 1 0 0 0 32 14l-.002-.008C31.992 6.274 25.742.019 18.025.005 18.018.004 18.01 0 18 0a1 1 0 0 0-.002 2z"/></g></symbol><symbol viewBox="0 0 32 32" id="speech-bubble" xmlns="http://www.w3.org/2000/svg"><g fill="#010002"><path d="M16 7c-5.963 0-11 3.206-11 7a.5.5 0 0 0 1 0c0-3.196 4.673-6 10-6a.5.5 0 0 0 0-1z"/><path d="M16 2C7.163 2 0 7.373 0 14c0 4.127 2.779 7.766 7.008 9.926 0 .027-.008.045-.008.074 0 1.793-1.339 3.723-1.928 4.736h.002A.906.906 0 0 0 5.906 30c.094 0 .259-.025.255-.014 3.125-.512 6.069-3.383 6.753-4.215A21.18 21.18 0 0 0 16 26c8.835 0 16-5.373 16-12S24.836 2 16 2zm0 22c-.917 0-1.858-.07-2.796-.207a2 2 0 0 0-1.836.709c-.428.521-1.646 1.684-3.085 2.539.39-.895.695-1.898.716-2.932a2 2 0 0 0-1.081-1.965C4.212 20.252 2 17.207 2 14 2 8.486 8.28 4 16 4c7.718 0 14 4.486 14 10s-6.281 10-14 10z"/></g></symbol><symbol viewBox="0 0 32 32" id="tag" xmlns="http://www.w3.org/2000/svg"><g fill="#010002"><path d="M31.391 13.88l-5-8A3.999 3.999 0 0 0 23 4H4a4 4 0 0 0-4 4v16a4 4 0 0 0 4 4h19c1.379 0 2.66-.711 3.391-1.881l5-8a3.993 3.993 0 0 0 0-4.239zm-1.696 3.179l-5 8.002A1.988 1.988 0 0 1 23 26H4c-1.103 0-2-.898-2-2V8c0-1.103.897-2 2-2h19a1.99 1.99 0 0 1 1.695.939l5 8a2.01 2.01 0 0 1 0 2.12z"/><path d="M23 13a3 3 0 1 0-.002 5.998A3 3 0 0 0 23 13zm0 5.001a2 2 0 1 1 0-4 2 2 0 0 1 0 4z"/></g></symbol><symbol viewBox="0 0 31.989 31.989" id="television-outline" xmlns="http://www.w3.org/2000/svg"><path d="M30.843 5.814a1.998 1.998 0 0 0-1.705-1.522c-4.36-.53-8.782-.798-13.144-.798-4.361 0-8.783.268-13.143.797a1.999 1.999 0 0 0-1.704 1.523 41.429 41.429 0 0 0 0 19.36 1.996 1.996 0 0 0 1.704 1.521c2.101.256 4.216.443 6.331.576-.114.072-.188.146-.188.223 0 .553 3.134 1 7 1s7-.447 7-1c0-.076-.073-.15-.188-.223 2.115-.133 4.229-.32 6.33-.576.83-.1 1.513-.707 1.705-1.521a41.429 41.429 0 0 0 .002-19.36zm-1.947 18.897a106.799 106.799 0 0 1-25.805 0c-1.463-6.145-1.463-12.29 0-18.434a106.697 106.697 0 0 1 25.805 0c1.463 6.144 1.463 12.289 0 18.434zM13.994 11.778a.523.523 0 0 1-.5.518l-3.749.257a.669.669 0 0 0-.564.546l-.167 1.895a.526.526 0 0 1-.518.5.471.471 0 0 1-.473-.5l.305-2.786a.706.706 0 0 1 .58-.551l4.586-.359c.276-.011.5.204.5.48zm12.5-.284a1.5 1.5 0 1 0-.001-3.001 1.5 1.5 0 0 0 .001 3.001zm0-2c.275 0 .5.225.5.5s-.225.5-.5.5c-.274 0-.5-.225-.5-.5s.225-.5.5-.5zm2.5 9.5c0 .275-.225.5-.5.5h-3a.5.5 0 0 1 0-1h3a.5.5 0 0 1 .5.5zm0-3c0 .275-.225.5-.5.5h-3a.5.5 0 0 1 0-1h3a.5.5 0 0 1 .5.5zm-1 6c0 .275-.225.5-.5.5h-3a.5.5 0 0 1 0-1h3a.5.5 0 0 1 .5.5zM22.158 8.118c-2.707-.557-5.455-.839-8.165-.839s-5.457.282-8.165.839c-.35.072-.636.326-.749.667-1.442 4.381-1.442 8.823 0 13.204a1 1 0 0 0 .749.666 40.69 40.69 0 0 0 8.165.839 40.62 40.62 0 0 0 8.165-.84.998.998 0 0 0 .75-.666c1.441-4.381 1.441-8.823 0-13.204a1 1 0 0 0-.75-.666zm-.2 13.558a39.196 39.196 0 0 1-15.927 0c-1.381-4.191-1.381-8.385 0-12.579a39.16 39.16 0 0 1 15.927 0c1.381 4.193 1.381 8.385 0 12.579z" fill="#333"/></symbol><symbol viewBox="0 0 31 31" id="the-world" xmlns="http://www.w3.org/2000/svg"><path d="M15.5 0C6.939 0 0 6.939 0 15.5S6.939 31 15.5 31 31 24.061 31 15.5 24.061 0 15.5 0zm13.475 15h-5.996c-.055-2.215-.449-4.331-1.148-6.268a16.334 16.334 0 0 0 3.736-2.197A13.433 13.433 0 0 1 28.975 15zM14.947 28.972c-1.662-1.384-3.056-3.181-4.076-5.268A15.497 15.497 0 0 1 15 23.025v5.949l-.053-.002zm1.104-26.944c1.886 1.57 3.425 3.673 4.466 6.126-1.426.487-2.941.77-4.518.82V2.025l.052.003zm1.666.17a13.463 13.463 0 0 1 7.164 3.614 15.297 15.297 0 0 1-3.428 1.998c-.91-2.157-2.187-4.064-3.736-5.612zM15 2.025v6.949a15.492 15.492 0 0 1-4.518-.82c1.041-2.453 2.58-4.556 4.466-6.126L15 2.025zM9.546 7.811a15.335 15.335 0 0 1-3.427-1.998 13.46 13.46 0 0 1 7.164-3.614c-1.55 1.547-2.826 3.454-3.737 5.612zm.559 1.265c1.542.535 3.185.847 4.895.899V15H9.021c.054-2.094.425-4.095 1.084-5.924zM15 16v6.025a16.411 16.411 0 0 0-4.539.769A18.785 18.785 0 0 1 9.021 16H15zm-1.717 12.802a13.431 13.431 0 0 1-6.545-3.052 15.199 15.199 0 0 1 3.188-1.7 17.317 17.317 0 0 0 3.357 4.752zm2.717.173v-5.949c1.432.046 2.82.27 4.129.679-1.021 2.087-2.414 3.884-4.076 5.268a.975.975 0 0 0-.053.002zm5.074-4.925a15.32 15.32 0 0 1 3.188 1.7 13.44 13.44 0 0 1-6.545 3.052 17.338 17.338 0 0 0 3.357-4.752zm-.535-1.256A16.424 16.424 0 0 0 16 22.025V16h5.979a18.806 18.806 0 0 1-1.44 6.794zM16 15V9.975a16.44 16.44 0 0 0 4.895-.898c.658 1.829 1.029 3.83 1.084 5.924H16V15zM5.434 6.535a16.35 16.35 0 0 0 3.735 2.197C8.47 10.669 8.076 12.785 8.021 15H2.025a13.429 13.429 0 0 1 3.409-8.465zM2.025 16h5.996a19.724 19.724 0 0 0 1.503 7.137 16.23 16.23 0 0 0-3.538 1.931A13.463 13.463 0 0 1 2.025 16zm22.989 9.067a16.256 16.256 0 0 0-3.539-1.931 19.725 19.725 0 0 0 1.504-7.137h5.996a13.464 13.464 0 0 1-3.961 9.068z" fill="#010002"/></symbol><symbol viewBox="0 0 29.751 29.751" id="user-avatar" xmlns="http://www.w3.org/2000/svg"><path d="M28.921 26.344c-.188-.124-3.577-2.347-8.621-3.438 1.85-2.345 3.038-5.496 3.543-7.595.701-2.909.429-8.599-2.364-12.145C19.846 1.094 17.562 0 14.874 0 12.185 0 9.901 1.095 8.27 3.167c-2.793 3.545-3.064 9.235-2.364 12.144.505 2.098 1.692 5.25 3.543 7.595-5.044 1.091-8.434 3.314-8.62 3.438a1.858 1.858 0 0 0-.748 2.084c.236.786.96 1.323 1.779 1.323h26.031a1.86 1.86 0 0 0 1.03-3.407zM7.587 9.992c.507-3.978 2.786-8.133 7.286-8.133s6.779 4.156 7.287 8.134c.551 4.142-.729 8.477-3.32 11.76l-.303.386c-2.218 2.547-5.109 2.547-7.325 0l-.304-.386c-2.589-3.28-3.874-7.621-3.321-11.761zm-5.73 17.899c.128-.086 3.278-2.15 7.982-3.168l2.309-.498c.825.541 1.729.879 2.724.879.996 0 1.898-.338 2.724-.879l2.31.498c4.667 1.01 7.806 3.053 7.981 3.168H1.857z" fill="#090509"/></symbol><symbol viewBox="0 0 32.009 32.009" id="vynil" xmlns="http://www.w3.org/2000/svg"><g fill="#010002"><path d="M21.951 1.151c-8.202-3.284-17.515.702-20.8 8.905-3.286 8.204.702 17.518 8.905 20.802 8.203 3.285 17.516-.702 20.801-8.905 3.286-8.204-.703-17.516-8.906-20.802zM10.8 29.002C3.634 26.132.138 17.968 3.007 10.801 5.877 3.635 14.042.138 21.209 3.009c7.166 2.869 10.662 11.034 7.793 18.2-2.871 7.167-11.035 10.662-18.202 7.793z"/><path d="M16.749 14.148a2.001 2.001 0 0 0-1.489 3.713 2.001 2.001 0 0 0 1.489-3.713zm-1.117 2.786a1.003 1.003 0 0 1-.557-1.301 1.003 1.003 0 0 1 1.301-.557 1.002 1.002 0 0 1-.744 1.858z"/><path d="M18.234 10.436a6 6 0 1 0-4.46 11.14 6 6 0 0 0 4.46-11.14zm-3.716 9.282a4.005 4.005 0 0 1-2.227-5.2 4.005 4.005 0 0 1 5.199-2.227 4.007 4.007 0 0 1 2.229 5.201 4.005 4.005 0 0 1-5.201 2.226z"/><path d="M23.432 18.979a.5.5 0 0 0-.929-.371v-.001a6.98 6.98 0 0 1-3.744 3.834.5.5 0 0 0 .394.919c.01-.004.014-.012.021-.015a7.978 7.978 0 0 0 4.256-4.366h.002zM26.865 19.815a.5.5 0 0 0-.65.278 10.965 10.965 0 0 1-5.883 6.023.5.5 0 0 0 .394.919c.012-.006.021-.017.033-.022a11.962 11.962 0 0 0 6.385-6.548.501.501 0 0 0-.279-.65z"/><path d="M25.008 19.072a.5.5 0 0 0-.65.278 8.958 8.958 0 0 1-4.812 4.928h.002a.5.5 0 0 0 .392.92c.01-.005.016-.014.027-.02a9.967 9.967 0 0 0 5.32-5.456.501.501 0 0 0-.279-.65zM13.513 8.913a.5.5 0 0 0-.657-.262c-.009.003-.014.011-.021.014a7.978 7.978 0 0 0-4.256 4.366h-.001a.5.5 0 1 0 .928.372h.001a6.975 6.975 0 0 1 3.743-3.832.501.501 0 0 0 .263-.658zM11.938 5.236a.501.501 0 0 0-.657-.263c-.012.005-.021.016-.031.021a11.962 11.962 0 0 0-6.385 6.548.5.5 0 1 0 .928.373 10.97 10.97 0 0 1 5.883-6.022.501.501 0 0 0 .262-.657z"/><path d="M12.463 7.73a.5.5 0 1 0-.394-.918c-.01.004-.016.014-.026.018a9.97 9.97 0 0 0-5.32 5.458.5.5 0 0 0 .927.373 8.965 8.965 0 0 1 4.812-4.928V7.73h.001z"/></g></symbol><symbol viewBox="0 0 32 32" id="wallet-with-zipper" xmlns="http://www.w3.org/2000/svg"><g fill="#010002"><circle cx="18" cy="19.5" r="2"/><path d="M29.001 12.5c-.001 0-.001 0 0 0L29 6.5v-3a3 3 0 0 0-3-3H5.5A5.506 5.506 0 0 0 0 6v20c0 3.032 2.467 5.5 5.5 5.5h18c3.032 0 5.5-2.468 5.5-5.5v-1.5h.001c3.998-3.001 3.998-8.999 0-12zM5.5 2.5H26c.551 0 1 .448 1 1v6.184a2.966 2.966 0 0 0-1-.184h-.001v-5a1 1 0 0 0-1-1h-21a1 1 0 0 0-1 1v3.943A3.482 3.482 0 0 1 2 6a3.5 3.5 0 0 1 3.5-3.5zm19.499 3h-21v-1h21v1zm0 1v1h-21v-1h21zm0 2v1H5.5A3.46 3.46 0 0 1 4 9.15V8.5h20.999zM27 26a3.5 3.5 0 0 1-3.5 3.5h-18A3.5 3.5 0 0 1 2 26V10.239A5.473 5.473 0 0 0 5.5 11.5H26c.551 0 1 .448 1 1v2h-9a5 5 0 1 0 0 10h9V26zm1.277-3.5H18c-1.654 0-3-1.346-3-3s1.346-3 3-3h9a2.062 2.062 0 0 0 1.602-.804c.104-.14.185-.297.25-.461.009-.022.025-.039.033-.062A5.458 5.458 0 0 1 30 18.5a5.448 5.448 0 0 1-1.723 4z"/></g></symbol><symbol viewBox="0 0 31.999 31.999" id="white-t-shirt" xmlns="http://www.w3.org/2000/svg"><path d="M31.25 6.438l-5-4A2.003 2.003 0 0 0 25 2H7a2 2 0 0 0-1.25.438l-5 4a2.001 2.001 0 0 0-.647 2.195l2 6A2 2 0 0 0 5 15.732V28a2 2 0 0 0 2 2h18a2 2 0 0 0 2-2V15.732a2.002 2.002 0 0 0 1.648.16 1.998 1.998 0 0 0 1.248-1.259l2-6a2 2 0 0 0-.646-2.195zM19.754 4C19.201 5.161 17.736 6 16 6s-3.202-.839-3.754-2h7.508zM28 14l-3-2v16H7V12l-3 2-2-6 5-4h4.177c.557 1.722 2.496 3 4.823 3 2.326 0 4.266-1.278 4.822-3H25l5 4-2 6z" fill="#010002"/></symbol><symbol viewBox="0 0 32 32" id="wristwatch" xmlns="http://www.w3.org/2000/svg"><g fill="#010002"><circle cx="15" cy="10" r="1"/><circle cx="15" cy="22" r="1"/><circle cx="9" cy="16" r="1"/><circle cx="21" cy="16" r="1"/><circle cx="10.757" cy="20.242" r="1"/><circle cx="10.757" cy="11.757" r="1"/><circle cx="19.242" cy="20.242" r="1"/><path d="M25 14c-.07 0-.129.033-.197.04-.348-1.745-1.17-3.306-2.297-4.594L21.07 1.634A1.998 1.998 0 0 0 19.104 0h-8c-.964 0-1.79.688-1.967 1.635l-1.4 7.549C6.057 10.971 5 13.352 5 16c0 2.583 1.014 4.905 2.621 6.678l1.412 7.688A2.001 2.001 0 0 0 11 32h8c.963 0 1.789-.688 1.967-1.635l1.424-7.682c1.189-1.311 2.053-2.92 2.412-4.725.068.009.127.042.197.042a2 2 0 0 0 0-4zM11.104 2h8l1 5.387C18.627 6.528 16.936 6 15.104 6c-1.831 0-3.523.528-5 1.387l1-5.387zM19 30h-8l-1-5.387c1.476.858 3.168 1.387 5 1.387 1.831 0 3.524-.529 5-1.387L19 30zm-4-6c-4.411 0-8-3.59-8-8 0-4.411 3.589-8 8-8s8 3.589 8 8c0 4.41-3.59 8-8 8z"/><path d="M19.941 11.026a.34.34 0 0 0-.453-.021l-5.192 4.285a1.01 1.01 0 0 0-.296.718c0 .263.102.512.289.698s.438.29.707.292c.25-.002.51-.095.699-.277l1.848-2.225 2.426-3.021a.34.34 0 0 0-.028-.449z"/></g></symbol><symbol viewBox="0 0 32.001 32.001" id="zoom-tool" xmlns="http://www.w3.org/2000/svg"><g fill="#010002"><path d="M20 0C13.373 0 8 5.373 8 12c0 2.026.507 3.933 1.395 5.608L1.052 25.95l.007.006a3.515 3.515 0 0 0-1.058 2.516 3.529 3.529 0 0 0 3.529 3.529c.985 0 1.874-.406 2.515-1.059l-.002-.002 8.341-8.34c1.675.891 3.585 1.4 5.616 1.4 6.627 0 12-5.373 12-12S26.628 0 20 0zM4.796 29.692a1.75 1.75 0 0 1-1.266.543 1.764 1.764 0 0 1-1.765-1.764c0-.498.21-.943.543-1.266l-.009-.008 8.066-8.066a12.101 12.101 0 0 0 2.494 2.498l-8.063 8.063zM20 22.001c-5.522 0-10-4.479-10-10 0-5.522 4.478-10 10-10 5.521 0 10 4.478 10 10 0 5.521-4.479 10-10 10z"/><path d="M20 5a7 7 0 0 0-7 7 .5.5 0 0 0 1 0 6 6 0 0 1 6-6 .5.5 0 0 0 0-1z"/></g></symbol></svg>