<?xml version="1.0" encoding="UTF-8"?>
<svg width="42px" height="42px" viewBox="0 0 42 42" version="1.1" xmlns="http://www.w3.org/2000/svg" xmlns:xlink="http://www.w3.org/1999/xlink">
    <!-- Generator: Sketch 49.3 (51167) - http://www.bohemiancoding.com/sketch -->
    <title>iconpress copy 2</title>
    <desc>Created with Sketch.</desc>
    <defs>
        <path d="M6.1194269,11.8384832 C5.88148168,11.9788126 5.58139535,12.5039848 5.58139535,12.7800776 L5.58139535,29.1607307 C5.58139535,29.4366456 5.88167864,29.9621119 6.1194269,30.1023251 L19.9605052,38.265168 C20.1823771,38.396018 20.7545664,38.3959913 20.9763931,38.265168 L34.8174714,30.1023251 C35.0554166,29.9619957 35.3555029,29.4368235 35.3555029,29.1607307 L35.3555029,12.7800776 C35.3555029,12.5041627 35.0552196,11.9786964 34.8174714,11.8384832 L20.9763931,3.67564031 C20.7545212,3.54479027 20.1823319,3.54481692 19.9605052,3.67564031 L6.1194269,11.8384832 Z M22.7971784,0.59497108 L36.6382566,8.75781399 C37.9671418,9.54153043 38.9368983,11.2385091 38.9368983,12.7800776 L38.9368983,29.1607307 C38.9368983,30.7024206 37.9673874,32.399133 36.6382566,33.1829943 L22.7971784,41.3458372 C21.4521297,42.1390862 19.4849239,42.1391778 18.1397199,41.3458372 L4.29864164,33.1829943 C2.96975651,32.3992778 2,30.7022991 2,29.1607307 L2,12.7800776 C2,11.2383876 2.96951091,9.54167527 4.29864164,8.75781399 L18.1397199,0.59497108 C19.4847686,-0.198277881 21.4519743,-0.198369509 22.7971784,0.59497108 Z M16.6837209,14.2543539 L16.6837209,16.8700073 C16.6837209,17.9136657 17.5217253,18.746167 18.555456,18.746167 C19.5963937,18.746167 20.4271911,17.9061816 20.4271911,16.8700073 L20.4271911,14.2543539 C20.4271911,13.2106954 19.5891867,12.3781942 18.555456,12.3781942 C17.5145183,12.3781942 16.6837209,13.2181795 16.6837209,14.2543539 Z M16.7553488,22.8443166 L16.7553488,28.6003171 C16.7553488,29.635911 17.5933532,30.4804089 18.6270839,30.4804089 C19.6680216,30.4804089 20.498819,29.6386631 20.498819,28.6003171 L20.498819,22.8443166 C20.498819,21.8087227 19.6608146,20.9642249 18.6270839,20.9642249 C17.5861462,20.9642249 16.7553488,21.8059706 16.7553488,22.8443166 Z M22.7004651,14.1812083 L22.7004651,22.9533743 C22.7004651,23.9869384 23.5384695,24.8279387 24.5722002,24.8279387 C25.6131379,24.8279387 26.4439353,23.9886676 26.4439353,22.9533743 L26.4439353,14.1812083 C26.4439353,13.1476442 25.6059309,12.306644 24.5722002,12.306644 C23.5312625,12.306644 22.7004651,13.145915 22.7004651,14.1812083 Z" id="path-1"></path>
    </defs>
    <g id="iconpress-copy-2" stroke="none" stroke-width="1" fill="none" fill-rule="evenodd">
        <mask id="mask-2" fill="white">
            <use xlink:href="#path-1"></use>
        </mask>
        <use id="Path" fill="#444444" fill-rule="nonzero" xlink:href="#path-1"></use>
    </g>
</svg>