<?xml version="1.0" encoding="UTF-8"?>
<svg width="18px" height="20px" viewBox="0 0 18 20" version="1.1" xmlns="http://www.w3.org/2000/svg" xmlns:xlink="http://www.w3.org/1999/xlink">
    <path fill="#fff" d="M1.96440034,5.64532908 C1.85093318,5.71224688 1.70783325,5.96268183 1.70783325,6.09434015 L1.70783325,13.9056598 C1.70783325,14.0372333 1.8510271,14.2878085 1.96440034,14.3546709 L8.56469196,18.2472249 C8.67049437,18.3096223 8.94335,18.3096096 9.04913085,18.2472249 L15.6494225,14.3546709 C15.7628896,14.2877531 15.9059896,14.0373182 15.9059896,13.9056598 L15.9059896,6.09434015 C15.9059896,5.96276667 15.7627957,5.71219149 15.6494225,5.64532908 L9.04913085,1.75277514 C8.94332845,1.69037766 8.67047282,1.69039037 8.56469196,1.75277514 L1.96440034,5.64532908 Z M9.91739512,0.283719414 L16.5176867,4.17627335 C17.1513823,4.54999835 17.6138228,5.35922391 17.6138228,6.09434015 L17.6138228,13.9056598 C17.6138228,14.640834 17.1514994,15.4499326 16.5176867,15.8237266 L9.91739512,19.7162806 C9.27599181,20.0945513 8.33790509,20.094595 7.69642769,19.7162806 L1.09613607,15.8237266 C0.462440545,15.4500016 4.48990749e-15,14.6407761 4.12586094e-15,13.9056598 L0,6.09434015 C-3.64046553e-16,5.35916597 0.462323426,4.55006742 1.09613607,4.17627335 L7.69642769,0.283719414 C8.33783101,-0.0945512933 9.27591772,-0.0945949869 9.91739512,0.283719414 Z M7.00211633,6.79736728 L7.00211633,8.04467436 C7.00211633,8.54235598 7.4017292,8.93934462 7.89467666,8.93934462 C8.39106085,8.93934462 8.78723698,8.5387871 8.78723698,8.04467436 L8.78723698,6.79736728 C8.78723698,6.29968566 8.38762411,5.90269702 7.89467666,5.90269702 C7.39829246,5.90269702 7.00211633,6.30325454 7.00211633,6.79736728 Z M7.036273,10.8935986 L7.036273,13.6384196 C7.036273,14.1322555 7.43588587,14.5349649 7.92883332,14.5349649 C8.42521751,14.5349649 8.82139364,14.1335679 8.82139364,13.6384196 L8.82139364,10.8935986 C8.82139364,10.3997627 8.42178078,9.99705334 7.92883332,9.99705334 C7.43244913,9.99705334 7.036273,10.3984503 7.036273,10.8935986 Z M9.87127619,6.76248688 L9.87127619,10.9456042 C9.87127619,11.4477439 10.2708891,11.8395137 10.7638365,11.8395137 C11.2602207,11.8395137 11.6563968,11.4392968 11.6563968,10.9456042 L11.6563968,6.76248688 C11.6563968,6.26034719 11.256784,5.86857739 10.7638365,5.86857739 C10.2674523,5.86857739 9.87127619,6.2687943 9.87127619,6.76248688 Z" id="Path"></path>
</svg>