<?xml version="1.0" encoding="UTF-8"?>
<svg width="37px" height="42px" viewBox="0 0 37 42" version="1.1" xmlns="http://www.w3.org/2000/svg" xmlns:xlink="http://www.w3.org/1999/xlink">
    <defs>
        <path d="M4.1194269,11.8384832 C3.88148168,11.9788126 3.58139535,12.5039848 3.58139535,12.7800776 L3.58139535,29.1607307 C3.58139535,29.4366456 3.88167864,29.9621119 4.1194269,30.1023251 L17.9605052,38.265168 C18.1823771,38.396018 18.7545664,38.3959913 18.9763931,38.265168 L32.8174714,30.1023251 C33.0554166,29.9619957 33.3555029,29.4368235 33.3555029,29.1607307 L33.3555029,12.7800776 C33.3555029,12.5041627 33.0552196,11.9786964 32.8174714,11.8384832 L18.9763931,3.67564031 C18.7545212,3.54479027 18.1823319,3.54481692 17.9605052,3.67564031 L4.1194269,11.8384832 Z M20.7971784,0.59497108 L34.6382566,8.75781399 C35.9671418,9.54153043 36.9368983,11.2385091 36.9368983,12.7800776 L36.9368983,29.1607307 C36.9368983,30.7024206 35.9673874,32.399133 34.6382566,33.1829943 L20.7971784,41.3458372 C19.4521297,42.1390862 17.4849239,42.1391778 16.1397199,41.3458372 L2.29864164,33.1829943 C0.969756513,32.3992778 9.41551746e-15,30.7022991 8.65209713e-15,29.1607307 L0,12.7800776 C-7.63420335e-16,11.2383876 0.969510908,9.54167527 2.29864164,8.75781399 L16.1397199,0.59497108 C17.4847686,-0.198277881 19.4519743,-0.198369509 20.7971784,0.59497108 Z M14.6837209,14.2543539 L14.6837209,16.8700073 C14.6837209,17.9136657 15.5217253,18.746167 16.555456,18.746167 C17.5963937,18.746167 18.4271911,17.9061816 18.4271911,16.8700073 L18.4271911,14.2543539 C18.4271911,13.2106954 17.5891867,12.3781942 16.555456,12.3781942 C15.5145183,12.3781942 14.6837209,13.2181795 14.6837209,14.2543539 Z M14.7553488,22.8443166 L14.7553488,28.6003171 C14.7553488,29.635911 15.5933532,30.4804089 16.6270839,30.4804089 C17.6680216,30.4804089 18.498819,29.6386631 18.498819,28.6003171 L18.498819,22.8443166 C18.498819,21.8087227 17.6608146,20.9642249 16.6270839,20.9642249 C15.5861462,20.9642249 14.7553488,21.8059706 14.7553488,22.8443166 Z M20.7004651,14.1812083 L20.7004651,22.9533743 C20.7004651,23.9869384 21.5384695,24.8279387 22.5722002,24.8279387 C23.6131379,24.8279387 24.4439353,23.9886676 24.4439353,22.9533743 L24.4439353,14.1812083 C24.4439353,13.1476442 23.6059309,12.306644 22.5722002,12.306644 C21.5312625,12.306644 20.7004651,13.145915 20.7004651,14.1812083 Z" id="path-1"></path>
    </defs>
    <g id="Page-1" stroke="none" stroke-width="1" fill="none" fill-rule="evenodd">
        <g id="iconpress">
            <g id="Group">
                <mask id="mask-2" fill="white">
                    <use xlink:href="#path-1"></use>
                </mask>
                <use id="Path" fill="#00FDFE" fill-rule="nonzero" xlink:href="#path-1"></use>
                <path d="M43.7270576,37.6541557 C41.6371275,42.1360253 40.4959302,53.2000023 40.4959302,53.2000023 C40.4959302,53.2000023 30.6111503,44.6819891 16.383956,38.0477394 C2.15676162,31.4134897 -10.7222291,29.3165823 -10.7222291,29.3165823 C-10.7222291,29.3165823 -10.8399906,18.4819993 -8.75,14 C-6.66000942,9.51800074 2.34077899,1.30287112 2.34077899,1.30287112 C2.34077899,1.30287112 12.225317,9.82140305 26.4525114,16.4556527 C40.6797057,23.0899024 33.0862198,35.6132896 53.5589383,25.186291 C74.0316568,14.7592925 45.8170481,33.1721565 43.7270576,37.6541557 Z" id="Shape-Copy" fill="#FF2DC3" style="mix-blend-mode: multiply;" mask="url(#mask-2)"></path>
                <ellipse id="Oval-Copy" fill="#2C8EFF" fill-rule="nonzero" style="mix-blend-mode: multiply;" mask="url(#mask-2)" cx="6.76883721" cy="6.40374787" rx="24.4609302" ry="13.7734242"></ellipse>
                <path d="M5.79891801,45.0606604 C18.1410905,48.3677355 29.5600215,45.7729357 31.3038142,39.2650128 C33.0476069,32.7570898 19.0722908,27.2035759 6.7301183,23.8965008 C-5.61205422,20.5894256 -11.6473535,20.7811113 -13.3911462,27.2890342 C-15.1349389,33.7969572 -6.54325451,41.7535852 5.79891801,45.0606604 Z" id="Oval-Copy-2" fill="#FF2CB2" fill-rule="nonzero" mask="url(#mask-2)"></path>
            </g>
        </g>
    </g>
</svg>